SplineFontDB: 3.0
FontName: GoldenDragonShadow
FullName: Golden Dragon Shadow
FamilyName: Golden Dragon 
Weight: Black
Copyright: Copyright (c) 2017, Alberto de la Cruz
UComments: "2017-11-29: Created with FontForge (http://fontforge.org)"
Version: 001.000
DefaultBaseFilename: golden-dragon-shadow
ItalicAngle: 0
UnderlinePosition: -102
UnderlineWidth: 51
Ascent: 800
Descent: 225
InvalidEm: 0
LayerCount: 2
Layer: 0 0 "Back" 1
Layer: 1 0 "Fore" 0
XUID: [1021 97 -1070742597 4711661]
FSType: 0
OS2Version: 0
OS2_WeightWidthSlopeOnly: 0
OS2_UseTypoMetrics: 1
CreationTime: 1511978515
ModificationTime: 1512405986
PfmFamily: 17
TTFWeight: 900
TTFWidth: 5
LineGap: 92
VLineGap: 0
OS2TypoAscent: 0
OS2TypoAOffset: 1
OS2TypoDescent: 0
OS2TypoDOffset: 1
OS2TypoLinegap: 92
OS2WinAscent: 0
OS2WinAOffset: 1
OS2WinDescent: 0
OS2WinDOffset: 1
HheadAscent: 0
HheadAOffset: 1
HheadDescent: 0
HheadDOffset: 1
OS2Vendor: 'PfEd'
Lookup: 258 0 0 "'kern' Horizontal Kerning in Latin lookup 0" { "'kern' Horizontal Kerning in Latin lookup 0-1" [153,15,0] } ['    ' ('DFLT' <'dflt' > 'latn' <'dflt' > ) 'kern' ('DFLT' <'dflt' > 'latn' <'dflt' > ) ]
MarkAttachClasses: 1
DEI: 91125
KernClass2: 1 1 "'kern' Horizontal Kerning in Latin lookup 0-1"
 0 {}
LangName: 1033
Encoding: mac
UnicodeInterp: none
NameList: AGL For New Fonts
DisplaySize: -48
AntiAlias: 1
FitToEm: 0
WinInfo: 23 23 11
BeginPrivate: 0
EndPrivate
Grid
-1025 178 m 0
 2050 178 l 1024
EndSplineSet
TeXData: 1 0 0 346030 173015 115343 0 1048576 115343 783286 444596 497025 792723 393216 433062 380633 303038 157286 324010 404750 52429 2506097 1059062 262144
BeginChars: 257 223

StartChar: A
Encoding: 65 65 0
Width: 637
VWidth: 0
Flags: W
HStem: 0 46.5332<44.9844 259.394 343.26 570.617> 219.553 46.5508<305.785 319.125> 392.937 22.2393<305.776 319.116> 761.56 22.2568<121.379 570.511>
VStem: 20.8682 22.2744<46.542 672.165> 259.394 46.3916<46.542 219.553 415.176 598.32> 319.125 22.2393<46.5332 219.553 415.176 598.393> 570.617 46.3828<46.5332 759.521>
LayerCount: 2
Fore
SplineSet
341.364257812 645.806640625 m 5
 341.373046875 645.806640625 l 5
 341.373046875 392.936523438 l 5
 259.403320312 392.936523438 l 5
 259.403320312 509.889648438 l 6
 259.403320312 592.928710938 262.5703125 613.076171875 264.947265625 621.0234375 c 4
 267.563476562 629.7265625 275.563476562 644.517578125 299.8046875 645.7890625 c 6
 300.383789062 645.806640625 l 5
 341.364257812 645.806640625 l 5
305.776367188 415.17578125 m 5
 319.116210938 415.17578125 l 5
 319.116210938 598.392578125 l 6
 313.295898438 596.861328125 311.392578125 593.684570312 310.385742188 590.330078125 c 4
 308.286132812 583.307617188 305.776367188 559.458984375 305.776367188 485.5859375 c 6
 305.776367188 415.17578125 l 5
616.901367188 759.521484375 m 5
 617 0 l 5
 343.259765625 0 l 5
 319.125 24.294921875 l 5
 319.125 219.552734375 l 5
 305.78515625 219.552734375 l 5
 305.78515625 0 l 5
 44.984375 0 l 5
 20.849609375 24.294921875 l 5
 20.8681640625 35.4541015625 l 6
 20.9208984375 59.21484375 22.1484375 617.659179688 24.6943359375 640.477539062 c 4
 27.3017578125 664.086914062 34.07421875 687.135742188 44.82421875 708.965820312 c 4
 55.9580078125 731.596679688 73.4169921875 749.963867188 96.71484375 763.53515625 c 4
 119.80859375 776.991210938 148.97265625 783.81640625 183.384765625 783.81640625 c 6
 592.7578125 783.81640625 l 5
 616.901367188 759.521484375 l 5
46.7998046875 638.020507812 m 4
 44.8505859375 620.462890625 43.525390625 215.521484375 43.142578125 46.5419921875 c 5
 259.393554688 46.5419921875 l 5
 259.393554688 266.103515625 l 5
 341.364257812 266.103515625 l 5
 341.364257812 46.533203125 l 5
 570.6171875 46.533203125 l 5
 570.510742188 761.559570312 l 5
 183.384765625 761.559570312 l 6
 152.967773438 761.559570312 127.569335938 755.756835938 107.919921875 744.3046875 c 4
 88.4658203125 732.975585938 73.951171875 717.775390625 64.78515625 699.140625 c 4
 55.1748046875 679.633789062 49.123046875 659.067382812 46.7998046875 638.020507812 c 4
EndSplineSet
Validated: 524289
EndChar

StartChar: B
Encoding: 66 66 1
Width: 638
VWidth: 0
Flags: W
HStem: 0 45.9824<51 504.978> 164.778 22.3291<323.157 332.973> 333.463 45.9736<323.157 345.355> 500.805 22.3008<323.708 343.065> 622.679 45.9736<323.708 345.911> 761.018 22.248<48.3584 483.327>
VStem: 26.1191 22.2393<45.9824 761.018> 276.018 87.9248<275.008 376.481 583.897 665.999> 276.018 47.1396<187.107 333.463 523.105 622.679> 346.909 22.2393<190.619 332.639 525.406 621.805> 565.101 46.9785<105.5 390.41 468.959 685.317>
LayerCount: 2
Fore
SplineSet
364.493164062 642.959960938 m 4xfe20
 366.078125 637.353515625 368.293945312 624.930664062 369.326171875 581.90234375 c 4
 369.744140625 573.875976562 366.478515625 533.536132812 364.51171875 526.513671875 c 4
 361.174804688 514.767578125 351.171875 500.8046875 322.409179688 500.8046875 c 6
 276.579101562 500.7421875 l 5
 276.579101562 668.65234375 l 5
 322.409179688 668.65234375 l 6
 351.171875 668.65234375 361.174804688 654.680664062 364.493164062 642.959960938 c 4xfe20
343.099609375 532.547851562 m 4
 344.381835938 537.772460938 347.42578125 574.5703125 347.104492188 581.048828125 c 4
 346.615234375 601.098632812 345.876953125 614.154296875 345.120117188 622.678710938 c 6
 323.708007812 622.678710938 l 5
 323.708007812 523.10546875 l 6
 340.385742188 523.469726562 342.388671875 530.020507812 343.099609375 532.547851562 c 4
321.848632812 379.436523438 m 6
 350.620117188 379.436523438 360.61328125 365.456054688 363.942382812 353.752929688 c 4xff20
 365.829101562 347.043945312 368.418945312 331.319335938 369.1484375 272.271484375 c 4
 368.418945312 212.950195312 365.829101562 197.216796875 363.951171875 190.5234375 c 4
 361.619140625 182.3359375 356.599609375 175.715820312 349.391601562 171.3203125 c 6
 348.538085938 170.84765625 l 6
 345.022460938 169.103515625 340.956054688 167.581054688 336.453125 166.291015625 c 4
 335.268554688 166.05078125 334.112304688 165.837890625 332.97265625 165.651367188 c 6
 332.97265625 164.814453125 l 5
 321.848632812 164.778320312 l 5
 276.017578125 164.778320312 l 5
 276.017578125 379.436523438 l 5xfee0
 321.848632812 379.436523438 l 6
342.5390625 196.56640625 m 4
 343.874023438 201.309570312 346.223632812 217.48828125 346.909179688 272.262695312 c 4
 346.517578125 303.721679688 345.564453125 322.356445312 344.577148438 333.462890625 c 6
 323.157226562 333.462890625 l 5
 323.157226562 187.107421875 l 6xfee0
 326.075195312 187.159179688 328.817382812 187.400390625 331.2109375 187.890625 c 4
 333.41796875 188.548828125 335.989257812 189.508789062 338.205078125 190.549804688 c 4
 340.439453125 192.010742188 341.782226562 193.888671875 342.5390625 196.56640625 c 4
590.008789062 390.16015625 m 4
 601.80078125 368.223632812 609.221679688 345.0859375 612.079101562 321.405273438 c 4
 614.864257812 298.435546875 613.102539062 183.359375 613.03125 178.473632812 c 4
 612.764648438 160.907226562 612.283203125 149.551757812 611.58984375 143.767578125 c 4
 608.7421875 120.069335938 601.310546875 96.939453125 589.51953125 75.0029296875 c 4
 577.380859375 52.408203125 558.380859375 34.111328125 533.045898438 20.6025390625 c 4
 508.046875 7.271484375 476.5 0.5078125 439.229492188 0.5078125 c 6
 51 0 l 5
 26.119140625 23.7255859375 l 5
 26.119140625 783.265625 l 5
 414.8359375 783.265625 l 6
 452.107421875 783.265625 483.663085938 776.51171875 508.65234375 763.1796875 c 4
 520.68359375 756.772460938 531.23828125 749.235351562 540.3515625 740.709960938 c 6
 540.32421875 740.806640625 l 5
 541.5078125 739.676757812 l 6
 541.6953125 739.490234375 541.873046875 739.330078125 542.060546875 739.143554688 c 6
 564.850585938 717.4296875 l 5
 564.734375 717.4296875 l 6
 575.040039062 707.889648438 583.53125 697.09375 590.008789062 685.043945312 c 4
 601.791015625 663.125976562 609.221679688 639.98828125 612.0703125 616.2890625 c 4
 613.690429688 602.9140625 613.876953125 584.58984375 613.743164062 571.571289062 c 4
 613.948242188 550.809570312 613.823242188 522.7578125 612.0703125 508.297851562 c 4
 609.221679688 484.598632812 601.80078125 461.469726562 590.008789062 439.541992188 c 4
 585.248046875 430.713867188 579.366210938 422.447265625 572.40625 414.85546875 c 4
 579.375 407.247070312 585.274414062 398.979492188 590.008789062 390.16015625 c 4
48.3662109375 761.017578125 m 5
 48.3583984375 761.017578125 l 5
 48.3583984375 45.982421875 l 5
 414.3203125 46.4541015625 l 6
 447.90625 46.4541015625 475.956054688 52.3271484375 497.678710938 63.923828125 c 4
 519.073242188 75.3408203125 535.01171875 90.5859375 545.0234375 109.23828125 c 4
 555.498046875 128.728515625 562.083984375 149.213867188 564.6015625 170.126953125 c 4
 565.020507812 173.536132812 565.580078125 181.91796875 565.8828125 202.529296875 c 4
 566.399414062 235.40234375 567.262695312 324.6171875 565.100585938 342.43359375 c 4
 562.581054688 363.374023438 555.99609375 383.850585938 545.522460938 403.33203125 c 4
 540.19140625 413.235351562 533.045898438 422.331054688 524.288085938 430.358398438 c 6
 515.318359375 438.563476562 l 5
 524.288085938 446.77734375 l 6
 533.0546875 454.786132812 540.19140625 463.881835938 545.522460938 473.786132812 c 4
 555.99609375 493.266601562 562.581054688 513.743164062 565.100585938 534.674804688 c 4
 566.354492188 545.041992188 566.888671875 566.560546875 566.612304688 595.296875 c 4
 566.737304688 607.870117188 566.578125 625.15234375 565.100585938 637.344726562 c 4
 562.572265625 658.28515625 555.99609375 678.76171875 545.522460938 698.234375 c 4
 535.500976562 716.895507812 519.5625 732.1484375 498.168945312 743.557617188 c 4
 476.446289062 755.143554688 448.404296875 761.017578125 414.827148438 761.017578125 c 6
 48.3662109375 761.017578125 l 5
EndSplineSet
Validated: 524321
EndChar

StartChar: C
Encoding: 67 67 2
Width: 489
VWidth: 0
Flags: W
HStem: 0 46.5957<125.54 427.549> 167.145 22.2578<312.29 427.549> 598.598 45.6074<315.598 427.549> 765.6 22.248<129.076 427.549>
VStem: 17.3662 22.2568<143.99 668.207> 262.878 47.459<192.832 588.197> 427.549 47.4512<46.5957 165.516 645.033 763.5>
LayerCount: 2
Fore
SplineSet
315.551757812 588.487304688 m 4
 313.61328125 582.551757812 310.345703125 560.60546875 310.336914062 480.130859375 c 6
 310.336914062 283.3515625 l 6
 310.336914062 231.512695312 311.681640625 204.0234375 313.16796875 189.40234375 c 4
 330.521484375 189.419921875 434.552734375 189.536132812 438.307617188 189.624023438 c 6
 449.671875 189.865234375 l 5
 474.892578125 165.515625 l 5
 475 154.15234375 l 5
 475 0 l 5
 225.065429688 0 l 6
 186.53125 0 153.8984375 6.9677734375 128.081054688 20.7353515625 c 4
 116.654296875 26.83984375 106.553710938 33.923828125 97.6552734375 41.87109375 c 6
 97.646484375 41.763671875 l 5
 95.83984375 43.4990234375 l 6
 94.548828125 44.6826171875 93.28515625 45.892578125 92.048828125 47.1298828125 c 6
 68.8740234375 69.4140625 l 6
 68.697265625 69.591796875 68.5185546875 69.7431640625 68.3408203125 69.9208984375 c 6
 68.171875 70.0810546875 l 5
 68.189453125 70.0810546875 l 6
 58.6220703125 79.36328125 50.703125 89.7919921875 44.517578125 101.299804688 c 4
 32.3251953125 123.984375 24.654296875 147.895507812 21.69921875 172.38671875 c 4
 19.2255859375 192.828125 17.8017578125 230.454101562 17.455078125 284.375 c 5
 17.4013671875 284.375 l 5
 17.3662109375 295.498046875 l 5
 17.455078125 527.822265625 l 6
 17.8017578125 581.723632812 19.2255859375 619.3671875 21.69921875 639.818359375 c 4
 24.654296875 664.299804688 32.3251953125 688.212890625 44.517578125 710.88671875 c 4
 57.056640625 734.220703125 76.6875 753.131835938 102.860351562 767.0859375 c 4
 128.685546875 780.862304688 161.3203125 787.84765625 199.852539062 787.84765625 c 6
 449.796875 787.84765625 l 5
 475.008789062 763.5 l 5
 475.008789062 598.418945312 l 5
 475.008789062 598.418945312 377.4375 598.5703125 346.913085938 598.59765625 c 6
 336.278320312 598.446289062 l 6
 318.809570312 598.446289062 316.522460938 591.469726562 315.551757812 588.487304688 c 4
427.548828125 46.595703125 m 5
 427.548828125 167.323242188 l 6
 395.920898438 167.215820312 312.08203125 167.14453125 311.06640625 167.14453125 c 4
 283.301757812 167.14453125 272.96875 180.89453125 269.186523438 192.436523438 c 4
 266.482421875 200.676757812 262.877929688 221.599609375 262.877929688 307.690429688 c 6
 262.877929688 504.478515625 l 6
 262.877929688 590.5703125 266.482421875 611.500976562 269.196289062 619.758789062 c 4
 272.409179688 629.592773438 280.409179688 641.055664062 299.943359375 644.205078125 c 6
 299.943359375 644.205078125 395.83203125 645.149414062 427.548828125 645.033203125 c 6
 427.548828125 765.599609375 l 5
 199.852539062 765.599609375 l 6
 165.012695312 765.599609375 135.903320312 759.50390625 113.334960938 747.462890625 c 4
 91.1044921875 735.600585938 74.54296875 719.750976562 64.123046875 700.350585938 c 4
 53.248046875 680.131835938 46.4130859375 658.86328125 43.796875 637.139648438 c 4
 41.2607421875 616.172851562 39.86328125 575.637695312 39.6591796875 516.653320312 c 6
 39.623046875 506.6953125 l 5
 39.623046875 300.7578125 l 5
 39.6591796875 295.525390625 l 6
 39.86328125 236.532226562 41.2607421875 196.005859375 43.796875 175.056640625 c 4
 46.4130859375 153.315429688 53.2568359375 132.037109375 64.123046875 111.827148438 c 4
 74.54296875 92.427734375 91.1044921875 76.578125 113.334960938 64.7060546875 c 4
 135.885742188 52.701171875 165.00390625 46.595703125 199.852539062 46.595703125 c 6
 427.548828125 46.595703125 l 5
EndSplineSet
Validated: 524321
EndChar

StartChar: D
Encoding: 68 68 3
Width: 655
VWidth: 0
Flags: W
HStem: 0 47.4961<40 523.847> 167.857 22.1855<315.254 339.096> 598.225 47.4951<315.254 343.146> 766.276 22.248<39.1377 500.682>
VStem: 16.8984 22.2393<47.4961 766.276> 269.903 90.665<509.153 642.814> 269.903 45.3506<190.043 598.225> 344.648 22.2471<193.087 597.502> 590.142 45.2695<117.128 676.66>
LayerCount: 2
Fore
SplineSet
318.697265625 645.719726562 m 6xfa80
 346.454101562 645.719726562 356.786132812 631.978515625 360.568359375 620.4453125 c 4xfc80
 363.282226562 612.1875 366.895507812 591.255859375 366.895507812 505.165039062 c 6
 366.895507812 308.3671875 l 6xf980
 366.895507812 222.267578125 363.282226562 201.344726562 360.568359375 193.086914062 c 4xfc80
 356.786132812 181.5625 346.454101562 167.8125 318.697265625 167.8125 c 6
 318.510742188 167.821289062 l 5
 318.127929688 167.803710938 l 5
 317.033203125 167.857421875 l 5
 269.903320312 167.83984375 l 5
 269.903320312 645.719726562 l 5
 318.697265625 645.719726562 l 6xfa80
344.6484375 308.3671875 m 5xfb80
 344.6484375 505.165039062 l 6
 344.6484375 555.908203125 343.33984375 583.353515625 341.8984375 598.20703125 c 4
 341.862304688 598.20703125 341.8359375 598.215820312 341.799804688 598.215820312 c 6
 315.25390625 598.224609375 l 5
 315.25390625 190.04296875 l 5
 318.573242188 190.04296875 l 5
 318.39453125 190.069335938 l 5
 319.018554688 190.051757812 l 6
 336.166992188 190.060546875 338.462890625 197.046875 339.432617188 200.028320312 c 4
 341.381835938 205.946289062 344.6484375 227.891601562 344.6484375 308.3671875 c 5xfb80
635.46484375 503.224609375 m 5
 635.509765625 475.0234375 l 5
 635.411132812 259.768554688 l 6
 635.064453125 205.733398438 633.631835938 168.080078125 631.176757812 147.772460938 c 4
 628.221679688 123.272460938 620.55078125 99.3603515625 608.349609375 76.693359375 c 4
 595.829101562 53.369140625 576.197265625 34.458984375 550.014648438 20.49609375 c 4
 524.208007812 6.71875 491.564453125 -0.2578125 453.022460938 -0.2578125 c 6
 40 0 l 5
 16.8984375 25.265625 l 5
 16.8984375 788.524414062 l 5
 429.911132812 788.524414062 l 6
 468.436523438 788.524414062 501.069335938 781.5390625 526.895507812 767.772460938 c 4
 544.693359375 758.286132812 559.368164062 746.467773438 570.9375 732.576171875 c 6
 570.955078125 732.700195312 l 5
 587.365234375 714.857421875 l 5
 587.204101562 714.90234375 l 6
 595.614257812 706.260742188 602.733398438 696.747070312 608.349609375 686.291015625 c 4
 620.541015625 663.633789062 628.212890625 639.721679688 631.166992188 615.221679688 c 4
 633.631835938 594.913085938 635.055664062 557.260742188 635.403320312 503.224609375 c 5
 635.46484375 503.224609375 l 5
39.1376953125 766.276367188 m 5
 39.1376953125 47.49609375 l 5
 429.911132812 47.255859375 l 6
 464.76953125 47.255859375 493.87890625 53.3505859375 516.428710938 65.3828125 c 4
 538.676757812 77.2548828125 555.229492188 93.095703125 565.642578125 112.486328125 c 4
 576.517578125 132.706054688 583.360351562 153.974609375 585.967773438 175.706054688 c 4
 588.495117188 196.530273438 589.892578125 237.05859375 590.106445312 296.202148438 c 6
 590.141601562 313.225585938 l 5
 590.106445312 517.311523438 l 6
 589.8828125 576.439453125 588.495117188 616.983398438 585.977539062 637.80859375 c 4
 583.360351562 659.548828125 576.517578125 680.817382812 565.642578125 701.028320312 c 4
 555.229492188 720.427734375 538.676757812 736.268554688 516.428710938 748.140625 c 4
 493.8515625 760.172851562 464.734375 766.276367188 429.90234375 766.276367188 c 6
 39.1376953125 766.276367188 l 5
EndSplineSet
Validated: 524293
EndChar

StartChar: E
Encoding: 69 69 4
Width: 539
VWidth: 0
Flags: W
HStem: 0 46.8896<43 478.769> 173.739 22.2393<315.885 478.769> 364.548 46.8984<315.885 478.769> 538.287 22.2568<315.885 478.769> 588.177 46.8984<315.885 478.769> 761.916 22.2559<40.7666 478.769>
VStem: 18.5186 22.248<46.8896 761.916> 269.147 46.7373<195.979 364.548 560.544 588.177> 478.769 46.7295<46.8896 171.319 411.446 535.885 635.075 759.513>
LayerCount: 2
Fore
SplineSet
525.506835938 588.176757812 m 5
 315.884765625 588.176757812 l 5
 315.884765625 560.543945312 l 5
 501.016601562 560.543945312 l 5
 525.506835938 535.884765625 l 5
 525.506835938 364.547851562 l 5
 315.884765625 364.547851562 l 5
 315.884765625 195.978515625 l 5
 501.0078125 195.978515625 l 5
 525.498046875 171.319335938 l 5
 525.498046875 0 l 5
 43 0 l 5
 18.5185546875 24.650390625 l 5
 18.5185546875 784.171875 l 5
 501.016601562 784.171875 l 5
 525.506835938 759.512695312 l 5
 525.506835938 588.176757812 l 5
478.768554688 411.446289062 m 5
 478.768554688 538.287109375 l 5
 269.147460938 538.287109375 l 5
 269.147460938 635.075195312 l 5
 478.768554688 635.075195312 l 5
 478.768554688 761.916015625 l 5
 40.7666015625 761.916015625 l 5
 40.7666015625 46.8896484375 l 5
 478.768554688 46.8896484375 l 5
 478.768554688 173.739257812 l 5
 269.147460938 173.739257812 l 5
 269.147460938 411.446289062 l 5
 478.768554688 411.446289062 l 5
EndSplineSet
Validated: 524289
EndChar

StartChar: F
Encoding: 70 70 5
Width: 533
VWidth: 0
Flags: W
HStem: 0 46.8896<38.8652 265.715> 364.548 46.8984<312 475.327> 538.287 22.2568<312 475.327> 588.177 46.8984<312 475.327> 761.916 22.2559<37.0762 475.327>
VStem: 14.8281 22.248<46.8896 761.916> 265.715 46.2852<46.8896 364.548 560.544 588.177> 475.327 46.2939<411.446 535.885 635.075 759.513>
LayerCount: 2
Fore
SplineSet
521.62109375 588.176757812 m 5
 312 588.176757812 l 5
 312 560.543945312 l 5
 497.575195312 560.543945312 l 5
 521.62109375 535.884765625 l 5
 521.62109375 364.547851562 l 5
 312 364.547851562 l 5
 312 0 l 5
 38.865234375 0 l 5
 14.828125 24.650390625 l 5
 14.828125 784.171875 l 5
 497.575195312 784.171875 l 5
 521.62109375 759.512695312 l 5
 521.62109375 588.176757812 l 5
475.327148438 411.446289062 m 5
 475.327148438 538.287109375 l 5
 265.71484375 538.287109375 l 5
 265.71484375 635.075195312 l 5
 475.327148438 635.075195312 l 5
 475.327148438 761.916015625 l 5
 37.076171875 761.916015625 l 5
 37.076171875 46.8896484375 l 5
 265.71484375 46.8896484375 l 5
 265.71484375 411.446289062 l 5
 475.327148438 411.446289062 l 5
EndSplineSet
Validated: 524289
EndChar

StartChar: G
Encoding: 71 71 6
Width: 648
VWidth: 0
Flags: W
HStem: 0 46.5156<124.567 516.409> 167.064 22.2568<311.218 355.16> 296.068 46.5244<333.802 356.699> 469.451 22.2568<332.093 582.775> 519.171 46.5254<369.941 582.74> 598.446 46.667<314.502 344.348> 765.537 22.2568<129.269 493.859>
VStem: 17.5596 22.248<143.924 668.154> 263.062 46.1953<192.752 319.117 491.699 588.212> 345.771 21.9453<565.696 598.135> 355.489 23.458<191.918 296.068> 582.775 46.3203<115.141 467.423 565.696 677.976>
LayerCount: 2
Fore
SplineSet
309.854492188 491.69921875 m 5xffd0
 309.854492188 491.708007812 l 5
 605.34375 491.708007812 l 5
 629.2734375 467.422851562 l 5
 629.095703125 456.129882812 l 6
 628.935546875 445.18359375 628.712890625 417.817382812 628.4375 383.671875 c 4
 627.502929688 266.068359375 626.541992188 159.553710938 625.153320312 148.029296875 c 4
 622.19921875 123.520507812 614.51953125 99.6083984375 602.327148438 76.94140625 c 4
 589.805664062 53.6171875 570.173828125 34.70703125 543.983398438 20.7529296875 c 4
 518.17578125 6.9677734375 485.551757812 0 447 0 c 6
 223.967773438 0 l 6
 185.416015625 0 152.783203125 6.9677734375 126.974609375 20.7529296875 c 4
 107.15625 31.31640625 91.1015625 44.736328125 79.025390625 60.7626953125 c 4
 64.57421875 72.216796875 53.03125 85.7255859375 44.7021484375 101.24609375 c 4
 32.509765625 123.912109375 24.837890625 147.82421875 21.8837890625 172.333007812 c 4
 19.41015625 192.774414062 17.9853515625 230.41796875 17.638671875 284.321289062 c 5
 17.59375 284.321289062 l 5
 17.5595703125 312.513671875 l 5
 17.638671875 527.759765625 l 6
 17.9853515625 581.661132812 19.41015625 619.305664062 21.8837890625 639.764648438 c 4
 24.837890625 664.24609375 32.509765625 688.159179688 44.7021484375 710.834960938 c 4
 57.240234375 734.16796875 76.8720703125 753.078125 103.044921875 767.032226562 c 4
 128.87890625 780.80859375 161.512695312 787.793945312 200.037109375 787.793945312 c 6
 423.079101562 787.793945312 l 6
 461.594726562 787.793945312 494.228515625 780.80859375 520.0625 767.041015625 c 4
 539.899414062 756.46875 555.961914062 743.03125 568.029296875 727.013671875 c 4
 582.482421875 715.559570312 594.014648438 702.041992188 602.344726562 686.530273438 c 4
 614.528320312 663.873046875 622.208007812 639.9609375 625.162109375 615.4609375 c 4
 627.173828125 598.756835938 628.5078125 570.155273438 629.104492188 530.463867188 c 6
 629.282226562 519.170898438 l 5
 369.94140625 519.170898438 l 5
 346.010742188 543.458007812 l 5
 345.771484375 554.33203125 l 6
 345.28125 575.69921875 344.463867188 589.546875 343.599609375 598.561523438 c 6
 335.189453125 598.446289062 l 6
 317.721679688 598.446289062 315.434570312 591.46875 314.455078125 588.487304688 c 4
 312.612304688 582.844726562 309.578125 562.662109375 309.275390625 491.69921875 c 5
 309.854492188 491.69921875 l 5xffd0
312.185546875 189.321289062 m 6
 312.203125 189.321289062 334.122070312 189.330078125 336.125 189.33984375 c 4
 351.430664062 189.357421875 354.403320312 194.97265625 355.489257812 198.016601562 c 4xffb0
 356.40625 206.106445312 356.63671875 257.1875 356.69921875 296.068359375 c 5
 333.801757812 296.068359375 l 5
 309.2578125 319.1171875 l 5
 309.2578125 319.133789062 l 5
 309.2578125 319.1171875 l 5
 309.2578125 283.333984375 l 6
 309.2578125 231.432617188 310.611328125 203.924804688 312.096679688 189.321289062 c 6
 312.185546875 189.321289062 l 6
43.98046875 174.975585938 m 4
 46.5966796875 153.235351562 53.4404296875 131.974609375 64.3056640625 111.764648438 c 4
 74.7275390625 92.365234375 91.2802734375 76.515625 113.51953125 64.6435546875 c 4
 136.0703125 52.6201171875 165.1796875 46.515625 200.037109375 46.515625 c 6
 423.051757812 46.515625 l 6
 457.91015625 46.515625 487.01953125 52.611328125 509.579101562 64.6435546875 c 4
 531.827148438 76.515625 548.37109375 92.365234375 558.783203125 111.747070312 c 4
 569.666992188 131.974609375 576.501953125 153.235351562 579.118164062 174.975585938 c 4
 580.48828125 186.224609375 581.591796875 325.1328125 582.25 408.135742188 c 4
 582.463867188 433.711914062 582.6328125 455.505859375 582.775390625 469.451171875 c 6
 332.092773438 469.451171875 l 5
 332.092773438 342.592773438 l 5
 378.938476562 342.592773438 l 5
 378.947265625 331.469726562 l 6xffb0
 378.974609375 198.274414062 377.942382812 195.115234375 376.84765625 191.760742188 c 4
 373.163085938 180.5390625 363.133789062 167.153320312 336.23046875 167.100585938 c 4
 336.196289062 167.100585938 336.16015625 167.100585938 336.125 167.100585938 c 6
 336.125 167.393554688 l 6
 332.858398438 167.100585938 328.889648438 167.08203125 324.216796875 167.08203125 c 6
 311.856445312 167.064453125 l 6
 283.477539062 167.064453125 273.14453125 180.814453125 269.37109375 192.356445312 c 4
 266.666015625 200.596679688 263.0625 221.51953125 263.0625 307.627929688 c 6
 263.0625 504.416992188 l 6
 263.0625 590.5078125 266.666015625 611.438476562 269.379882812 619.696289062 c 4
 272.6015625 629.530273438 280.592773438 640.993164062 300.126953125 644.143554688 c 6
 322.784179688 645.11328125 l 6
 348.895507812 644.721679688 358.719726562 631.533203125 362.350585938 620.454101562 c 4
 364.12109375 615.069335938 366.524414062 603.517578125 367.716796875 565.696289062 c 5xffd0
 582.740234375 565.696289062 l 6
 582.090820312 598.739257812 580.879882812 622.723632812 579.143554688 637.068359375 c 4
 576.52734375 658.809570312 569.694335938 680.078125 558.819335938 700.2890625 c 4
 548.397460938 719.688476562 531.853515625 735.529296875 509.60546875 747.400390625 c 4
 487.028320312 759.43359375 457.91015625 765.537109375 423.079101562 765.537109375 c 6
 200.046875 765.537109375 l 6
 165.206054688 765.537109375 136.10546875 759.44140625 113.51953125 747.391601562 c 4
 91.2890625 735.538085938 74.7275390625 719.688476562 64.3056640625 700.2890625 c 4
 53.431640625 680.069335938 46.5966796875 658.80078125 43.98046875 637.077148438 c 4
 41.4443359375 616.1015625 40.0478515625 575.56640625 39.841796875 516.581054688 c 6
 39.8076171875 506.624023438 l 5
 39.8076171875 300.6953125 l 5
 39.841796875 295.462890625 l 6
 40.0478515625 236.469726562 41.4443359375 195.934570312 43.98046875 174.975585938 c 4
EndSplineSet
Validated: 524325
EndChar

StartChar: H
Encoding: 72 72 7
Width: 675
VWidth: 0
Flags: W
HStem: 0.00878906 46.8906<45.0479 272.584 378.646 603.591> 370.901 46.9092<318.993 354.483> 547.925 22.248<318.984 354.475> 761.925 22.2568<43.1357 272.584 376.731 603.591>
VStem: 20.8877 22.248<46.8994 761.925> 272.584 46.4092<46.8994 370.901 570.173 759.521> 354.483 22.2393<46.8994 370.901 570.173 761.925> 603.591 46.4092<46.8994 759.521>
LayerCount: 2
Fore
SplineSet
625.83984375 784.172851562 m 5
 650 759.521484375 l 5
 650 0 l 5
 378.645507812 0 l 5
 354.483398438 24.6513671875 l 5
 354.483398438 370.901367188 l 5
 318.993164062 370.901367188 l 5
 318.993164062 0.0087890625 l 5
 45.0478515625 0.0087890625 l 5
 20.8876953125 24.66015625 l 5
 20.8876953125 784.181640625 l 5
 294.823242188 784.181640625 l 5
 318.984375 759.521484375 l 5
 318.984375 570.172851562 l 5
 354.474609375 570.172851562 l 5
 354.474609375 784.172851562 l 5
 625.83984375 784.172851562 l 5
43.1357421875 761.924804688 m 5
 43.1357421875 46.8994140625 l 5
 272.583984375 46.8994140625 l 5
 272.583984375 417.810546875 l 5
 376.72265625 417.810546875 l 5
 376.72265625 46.8994140625 l 5
 603.590820312 46.8994140625 l 5
 603.590820312 761.924804688 l 5
 376.731445312 761.924804688 l 5
 376.731445312 547.924804688 l 5
 272.583984375 547.924804688 l 5
 272.583984375 761.924804688 l 5
 43.1357421875 761.924804688 l 5
EndSplineSet
Validated: 524289
EndChar

StartChar: I
Encoding: 73 73 8
Width: 449
VWidth: 0
Flags: W
HStem: 0 46.3467<35.2002 390.261> 172.173 22.2393<32.9668 84.1367 367.854 390.261> 589.199 46.3555<35.2002 84.1367 367.854 390.261> 761.372 22.248<32.9668 390.261>
VStem: 10.7188 22.248<46.3467 172.173 635.555 761.372> 84.1367 22.248<194.412 589.199> 321.123 46.7305<194.412 589.199> 390.261 46.7393<46.3467 170.322 635.546 759.521>
LayerCount: 2
Fore
SplineSet
437.008789062 589.19921875 m 1
 367.853515625 589.19921875 l 1
 367.853515625 194.412109375 l 1
 412.508789062 194.412109375 l 1
 437 170.322265625 l 1
 437 0 l 1
 35.2001953125 0 l 1
 10.71875 24.08984375 l 1
 10.71875 194.412109375 l 1
 84.13671875 194.412109375 l 1
 84.13671875 589.19921875 l 1
 35.2001953125 589.19921875 l 1
 10.71875 613.297851562 l 1
 10.71875 783.620117188 l 1
 412.518554688 783.620117188 l 1
 437.008789062 759.521484375 l 1
 437.008789062 589.19921875 l 1
390.270507812 46.3466796875 m 1
 390.260742188 46.3466796875 l 1
 390.260742188 172.1640625 l 1
 321.123046875 172.1640625 l 1
 321.123046875 635.545898438 l 1
 390.260742188 635.545898438 l 1
 390.260742188 761.372070312 l 1
 32.966796875 761.372070312 l 1
 32.966796875 635.5546875 l 1
 106.384765625 635.5546875 l 1
 106.384765625 172.172851562 l 1
 32.966796875 172.172851562 l 1
 32.966796875 46.3466796875 l 1
 390.270507812 46.3466796875 l 1
EndSplineSet
Validated: 524293
EndChar

StartChar: J
Encoding: 74 74 9
Width: 651
VWidth: 0
Flags: W
HStem: 0 46.5527<129.177 521.279> 167.164 22.2207<309.89 336.855> 398.428 22.2471<44.9326 259.769> 765.583 22.2568<364.184 587.901>
VStem: 23.0938 22.248<140.85 398.428> 260.293 46.5703<192.085 396.363> 342.389 22.248<199.632 765.583> 587.91 46.5693<116.287 763.527>
LayerCount: 2
Fore
SplineSet
610.140625 787.83984375 m 5
 634.479492188 763.52734375 l 5
 634.479492188 271.159179688 l 6
 634.408203125 266.852539062 632.770507812 169.672851562 630.145507812 148.029296875 c 4
 627.208984375 123.556640625 619.529296875 99.6455078125 607.336914062 76.9609375 c 4
 594.788085938 53.6181640625 575.157226562 34.70703125 548.984375 20.7529296875 c 4
 523.194335938 6.986328125 490.551757812 0 452 0 c 6
 228.9765625 0 l 6
 190.416992188 0 157.784179688 6.986328125 131.984375 20.7529296875 c 4
 118.208984375 28.11328125 106.291992188 36.8525390625 96.2275390625 46.86328125 c 6
 96.201171875 46.810546875 l 5
 75.599609375 67.544921875 l 5
 75.705078125 67.5634765625 l 6
 64.919921875 77.486328125 56.0478515625 88.716796875 49.3115234375 101.283203125 c 4
 37.1279296875 123.913085938 29.447265625 147.825195312 26.484375 172.3515625 c 4
 25.0244140625 184.427734375 24.0458984375 268.258789062 23.09375 360.534179688 c 4
 22.8623046875 382.177734375 22.6845703125 399.887695312 22.5419921875 409.381835938 c 6
 22.3642578125 420.674804688 l 5
 281.5625 420.674804688 l 5
 305.883789062 396.36328125 l 5
 306.133789062 385.479492188 l 6
 306.311523438 377.274414062 306.561523438 360.5703125 306.86328125 339.942382812 c 4
 307.50390625 296.122070312 308.581054688 222.15234375 309.889648438 189.384765625 c 6
 316.083007812 189.3671875 l 6
 333.92578125 189.3671875 336.221679688 196.352539062 337.19140625 199.342773438 c 4
 339.140625 205.251953125 342.388671875 227.170898438 342.388671875 307.681640625 c 6
 341.909179688 787.83984375 l 5
 610.140625 787.83984375 l 5
48.5625 175.030273438 m 4
 51.1982421875 153.271484375 58.03125 131.994140625 68.90625 111.801757812 c 4
 79.3193359375 92.4013671875 95.8720703125 76.5517578125 118.12890625 64.6806640625 c 4
 140.6796875 52.6572265625 169.7890625 46.552734375 204.646484375 46.552734375 c 6
 427.661132812 46.552734375 l 6
 462.528320312 46.552734375 491.646484375 52.6484375 514.188476562 64.6806640625 c 4
 536.418945312 76.5517578125 552.98046875 92.3828125 563.401367188 111.801757812 c 4
 574.276367188 132.038085938 581.120117188 153.315429688 583.727539062 175.021484375 c 4
 586.21875 195.534179688 587.892578125 294.662109375 587.91015625 295.650390625 c 6
 587.901367188 765.583007812 l 5
 364.18359375 765.583007812 l 5
 364.63671875 307.673828125 l 6
 364.63671875 221.545898438 361.041992188 200.642578125 358.327148438 192.383789062 c 4
 354.544921875 180.859375 344.213867188 167.110351562 316.456054688 167.110351562 c 6
 314.694335938 167.1640625 l 5
 304.905273438 167.145507812 l 5
 304.887695312 167.145507812 l 5
 304.780273438 167.145507812 l 5
 304.780273438 167.1640625 l 6
 278.6796875 167.546875 268.85546875 180.744140625 265.21484375 191.814453125 c 4
 263.434570312 197.26953125 262.349609375 222.391601562 260.29296875 363.924804688 c 4
 260.088867188 377.603515625 259.919921875 389.545898438 259.768554688 398.427734375 c 6
 44.9326171875 398.427734375 l 6
 45.0478515625 388.646484375 45.1806640625 375.645507812 45.341796875 360.783203125 c 4
 45.9638671875 300.001953125 47.138671875 186.883789062 48.5625 175.030273438 c 4
EndSplineSet
Validated: 524289
EndChar

StartChar: K
Encoding: 75 75 10
Width: 640
VWidth: 0
Flags: W
HStem: 0.329102 47.0947<51.373 274.574 370.642 564.743> 333.686 46.9082<323.529 339.949> 762.112 22.248<46.9238 274.593 420.727 557.774>
VStem: 24.6758 22.248<47.4238 762.112> 274.574 48.9551<47.4238 333.686 601.276 759.523> 343.704 22.0693<47.0859 305.002> 564.743 48.4561<47.0859 376.579>
LayerCount: 2
Fore
SplineSet
613.19921875 83.6884765625 m 4
 613.458007812 49.240234375 613.670898438 21.6884765625 613.822265625 11.302734375 c 6
 614 0 l 5
 370.641601562 0 l 5
 343.944335938 24.837890625 l 5
 343.704101562 35.7216796875 l 6
 343.5078125 44.826171875 343.21484375 74.8779296875 342.8671875 113.065429688 c 4
 342.262695312 178.759765625 341.203125 291.7265625 339.94921875 333.543945312 c 4
 335.018554688 333.579101562 328.806640625 333.631835938 323.529296875 333.685546875 c 6
 323.529296875 0.3291015625 l 5
 51.373046875 0.3291015625 l 5
 24.67578125 25.1669921875 l 5
 24.67578125 784.360351562 l 5
 296.813476562 784.360351562 l 5
 323.51171875 759.5234375 l 5
 323.716796875 601.276367188 l 5
 406.344726562 784.360351562 l 5
 592.197265625 784.360351562 l 5
 618.89453125 759.5234375 l 5
 485.219726562 462.911132812 l 6
 508.85546875 455.09765625 527.233398438 443.182617188 540.421875 431.328125 c 6
 540.404296875 431.390625 l 5
 543.358398438 428.658203125 l 6
 543.5625 428.4453125 543.8125 428.23046875 544.034179688 428.017578125 c 6
 568.684570312 405.12890625 l 5
 568.525390625 405.12890625 l 6
 578.109375 396.274414062 584.916992188 387.552734375 588.690429688 380.771484375 c 4
 600.0546875 360.27734375 607.272460938 337.841796875 610.137695312 314.0625 c 4
 611.428710938 303.357421875 612.327148438 198.978515625 613.19921875 83.6884765625 c 4
46.923828125 762.112304688 m 5
 46.923828125 47.423828125 l 5
 274.57421875 47.423828125 l 5
 274.57421875 380.958984375 l 5
 285.788085938 380.869140625 l 5
 285.788085938 380.869140625 319.8984375 380.59375 321.946289062 380.59375 c 4
 340.900390625 380.576171875 355.362304688 370.946289062 360.630859375 354.84765625 c 4
 362.197265625 350.096679688 363.1484375 324.706054688 365.115234375 113.279296875 c 4
 365.373046875 84.9794921875 365.596679688 61.1650390625 365.7734375 47.0859375 c 6
 564.743164062 47.0859375 l 6
 564.618164062 60.8896484375 564.440429688 82.71875 564.252929688 108.358398438 c 4
 563.630859375 189.71484375 562.607421875 325.880859375 561.352539062 336.240234375 c 4
 558.833984375 357.153320312 552.505859375 376.838867188 542.548828125 394.796875 c 4
 532.501953125 412.879882812 496.850585938 447.569335938 433.737304688 449.46484375 c 6
 417.104492188 449.963867188 l 5
 557.774414062 762.112304688 l 5
 420.7265625 762.112304688 l 5
 275.01953125 439.284179688 l 5
 274.592773438 762.112304688 l 5
 46.923828125 762.112304688 l 5
EndSplineSet
Validated: 524289
EndChar

StartChar: L
Encoding: 76 76 11
Width: 523
VWidth: 0
Flags: W
HStem: 0 46.4805<43.2998 461.536> 172.307 22.248<318.224 461.536> 761.507 22.248<41.3418 271.77>
VStem: 19.0938 22.248<46.4805 761.507> 271.77 46.4541<194.555 759.522> 461.536 46.4639<46.4805 170.322>
LayerCount: 2
Fore
SplineSet
483.78515625 194.5546875 m 5
 508 170.322265625 l 5
 508 0 l 5
 43.2998046875 0 l 5
 19.09375 24.232421875 l 5
 19.09375 783.754882812 l 5
 294.017578125 783.754882812 l 5
 318.223632812 759.522460938 l 5
 318.223632812 194.5546875 l 5
 483.78515625 194.5546875 l 5
41.341796875 761.506835938 m 5
 41.341796875 46.48046875 l 5
 461.536132812 46.48046875 l 5
 461.536132812 172.306640625 l 5
 271.76953125 172.306640625 l 5
 271.76953125 761.506835938 l 5
 41.341796875 761.506835938 l 5
EndSplineSet
Validated: 524289
EndChar

StartChar: M
Encoding: 77 77 12
Width: 810
VWidth: 0
Flags: W
HStem: 0 46.0088<39.1992 267.865 514 742.684> 772.924 22.248<37.4473 271.87 508.011 742.684>
VStem: 15.1992 22.248<46.0088 772.924> 267.865 46.2578<46.0088 292.722> 489.99 22.248<46.0088 269.531> 742.684 46.2402<46.0088 771.42>
LayerCount: 2
Fore
SplineSet
764.922851562 795.171875 m 1
 788.923828125 771.419921875 l 1
 788.923828125 0 l 1
 514 0 l 1
 489.990234375 23.7607421875 l 1
 489.990234375 269.53125 l 1
 413.946289062 89.392578125 l 1
 389.9453125 113.135742188 l 1
 314.123046875 292.721679688 l 1
 314.123046875 0 l 1
 39.19921875 0 l 1
 15.19921875 23.7607421875 l 1
 15.19921875 795.171875 l 1
 286.5625 795.171875 l 1
 310.563476562 771.419921875 l 1
 396.859375 569.657226562 l 1
 493.318359375 795.171875 l 1
 764.922851562 795.171875 l 1
267.865234375 459.448242188 m 1
 389.936523438 170.33984375 l 1
 512.23828125 460.036132812 l 1
 512.23828125 46.0087890625 l 1
 742.68359375 46.0087890625 l 1
 742.68359375 772.923828125 l 1
 508.010742188 772.923828125 l 1
 389.9453125 496.896484375 l 1
 271.870117188 772.923828125 l 1
 37.447265625 772.923828125 l 1
 37.447265625 46.0087890625 l 1
 267.865234375 46.0087890625 l 1
 267.865234375 459.448242188 l 1
EndSplineSet
Validated: 524289
EndChar

StartChar: N
Encoding: 78 78 13
Width: 747
VWidth: 0
Flags: W
HStem: 0 46.9609<46.6367 275.125 449.22 680.563> 773.876 22.248<44.6963 278.845 450.137 680.563>
VStem: 22.4482 22.248<46.9609 773.876> 275.125 46.4355<46.9609 288.478> 427.889 22.248<508.573 773.876> 680.563 46.4365<46.9609 771.421>
LayerCount: 2
Fore
SplineSet
702.802734375 796.124023438 m 5
 727 771.420898438 l 5
 727 0 l 5
 449.219726562 0 l 5
 321.560546875 288.477539062 l 5
 321.560546875 0 l 5
 46.63671875 0 l 5
 22.4482421875 24.712890625 l 5
 22.4482421875 796.124023438 l 5
 293.643554688 796.124023438 l 5
 317.831054688 771.420898438 l 5
 427.888671875 508.573242188 l 5
 427.888671875 796.124023438 l 5
 702.802734375 796.124023438 l 5
275.125 456.975585938 m 5
 446.799804688 46.9609375 l 5
 680.563476562 46.9609375 l 5
 680.563476562 773.875976562 l 5
 450.13671875 773.875976562 l 5
 450.13671875 364.778320312 l 5
 278.844726562 773.875976562 l 5
 44.6962890625 773.875976562 l 5
 44.6962890625 46.9609375 l 5
 275.125 46.9609375 l 5
 275.125 456.975585938 l 5
EndSplineSet
Validated: 524289
EndChar

StartChar: O
Encoding: 79 79 14
Width: 654
VWidth: 0
Flags: W
HStem: 0 45.0029<139.524 522.675> 166.016 23.4229<313.293 337.029> 770.664 23.2715<131.844 500.531>
VStem: 18.7588 23.2803<142.008 673.669> 266.789 44.4424<192.226 602.405> 342.308 23.2891<191.823 603.786> 590.364 44.416<116.469 668.663>
LayerCount: 2
Fore
SplineSet
315.89453125 166.015625 m 6
 287.594726562 166.015625 277.05859375 180.05859375 273.196289062 191.823242188 c 4
 270.447265625 200.206054688 266.7890625 221.413085938 266.7890625 308.420898438 c 6
 266.7890625 507.247070312 l 6
 266.7890625 594.272460938 270.447265625 615.470703125 273.196289062 623.845703125 c 4
 277.05859375 635.618164062 287.594726562 649.661132812 315.89453125 649.661132812 c 6
 316.490234375 649.661132812 l 6
 344.790039062 649.661132812 355.318359375 635.618164062 359.180664062 623.845703125 c 4
 361.930664062 615.461914062 365.596679688 594.263671875 365.596679688 507.247070312 c 6
 365.596679688 308.420898438 l 6
 365.596679688 221.404296875 361.930664062 200.198242188 359.180664062 191.823242188 c 4
 355.327148438 180.05859375 344.790039062 166.015625 316.490234375 166.015625 c 6
 315.89453125 166.015625 l 6
339.860351562 597.69921875 m 4
 339.841796875 597.850585938 339.841796875 597.983398438 339.815429688 598.099609375 c 4
 339.62890625 600.225585938 339.450195312 602.157226562 339.264648438 603.866210938 c 5
 327.624023438 601.970703125 320.166992188 596.337890625 317.051757812 586.841796875 c 4
 313.162109375 574.9609375 311.231445312 537.326171875 311.231445312 473.875 c 6
 311.231445312 275.057617188 l 6
 311.231445312 237.4140625 311.916015625 208.91796875 313.278320312 189.438476562 c 4
 314.16015625 189.40234375 314.915039062 189.294921875 315.885742188 189.294921875 c 6
 316.188476562 189.313476562 l 5
 317.131835938 189.27734375 l 6
 333.862304688 189.294921875 336.104492188 196.166015625 337.075195312 199.084960938 c 4
 339.0234375 205.065429688 342.307617188 227.20703125 342.307617188 308.4296875 c 6
 342.307617188 507.255859375 l 6
 342.307617188 534.060546875 342.084960938 560.901367188 340.572265625 587.669921875 c 4
 340.448242188 589.743164062 340.314453125 591.692382812 340.189453125 593.506835938 c 4
 340.153320312 593.809570312 340.13671875 594.15625 340.119140625 594.46875 c 4
 340.038085938 595.598632812 339.94921875 596.67578125 339.860351562 597.69921875 c 4
634.745117188 486.208984375 m 6
 634.745117188 486.200195312 l 5
 634.780273438 486.200195312 l 5
 634.780273438 468.954101562 l 5
 634.780273438 279.970703125 l 5
 634.780273438 262.713867188 l 5
 634.745117188 262.713867188 l 5
 634.53125 202.279296875 633.108398438 161.227539062 630.482421875 139.69140625 c 4
 627.65234375 116.126953125 620.372070312 93.53125 608.705078125 71.8349609375 c 4
 597.047851562 50.1298828125 578.920898438 32.7490234375 554.358398438 19.6591796875 c 4
 529.796875 6.55078125 498.8984375 0 461.6640625 0 c 6
 349 0 l 5
 236.317382812 0 l 6
 199.07421875 0 168.176757812 6.55078125 143.614257812 19.6591796875 c 4
 140.384765625 21.3583984375 137.278320312 23.1826171875 134.270507812 25.0419921875 c 6
 134.279296875 25.025390625 l 5
 99.572265625 45.9736328125 l 5
 99.7412109375 45.9736328125 l 6
 99.732421875 45.9912109375 99.7236328125 45.9912109375 99.7236328125 45.9912109375 c 6
 96.8232421875 47.681640625 94.0107421875 49.41796875 91.2783203125 51.2421875 c 4
 91.171875 51.3046875 91.064453125 51.3759765625 90.966796875 51.4638671875 c 4
 88.3505859375 53.2001953125 85.8056640625 55.0068359375 83.3486328125 56.8662109375 c 4
 83.099609375 57.0537109375 82.8603515625 57.2490234375 82.6279296875 57.4365234375 c 4
 80.3232421875 59.20703125 78.0712890625 61.03125 75.900390625 62.9091796875 c 4
 75.5087890625 63.255859375 75.1259765625 63.6025390625 74.7431640625 63.9501953125 c 4
 72.7587890625 65.7216796875 70.810546875 67.509765625 68.94140625 69.3701171875 c 4
 68.3896484375 69.9208984375 67.8642578125 70.5 67.3212890625 71.0517578125 c 4
 65.666015625 72.751953125 64.029296875 74.4775390625 62.48046875 76.2490234375 c 4
 61.7509765625 77.1025390625 61.0556640625 77.984375 60.3349609375 78.8564453125 c 4
 59.0458984375 80.421875 57.74609375 81.9794921875 56.53515625 83.599609375 c 4
 55.556640625 84.8818359375 54.6572265625 86.2607421875 53.732421875 87.5771484375 c 4
 52.8515625 88.8505859375 51.935546875 90.10546875 51.107421875 91.404296875 c 4
 49.37109375 94.1005859375 47.734375 96.8505859375 46.2216796875 99.6806640625 c 4
 33.8876953125 122.640625 26.1181640625 146.85546875 23.1279296875 171.657226562 c 4
 20.6455078125 192.170898438 19.212890625 230.098632812 18.84765625 284.446289062 c 5
 18.7939453125 284.446289062 l 5
 18.7587890625 313.333007812 l 5
 18.84765625 531.22265625 l 6
 19.212890625 585.569335938 20.6455078125 623.489257812 23.1279296875 644.01953125 c 4
 26.1181640625 668.8125 33.8876953125 693.02734375 46.23046875 715.978515625 c 4
 58.9296875 739.614257812 78.828125 758.783203125 105.34765625 772.916015625 c 4
 131.484375 786.870117188 164.51953125 793.935546875 203.524414062 793.935546875 c 6
 428.861328125 793.935546875 l 6
 467.866210938 793.935546875 500.8828125 786.870117188 527.028320312 772.916015625 c 4
 553.557617188 758.791992188 573.456054688 739.614257812 586.1640625 715.978515625 c 6
 604.87109375 683.692382812 l 5
 604.80859375 683.709960938 l 6
 606.151367188 681.538085938 607.487304688 679.348632812 608.705078125 677.088867188 c 4
 620.36328125 655.401367188 627.65234375 632.7890625 630.482421875 609.241210938 c 4
 633.108398438 587.705078125 634.541015625 546.662109375 634.745117188 486.208984375 c 6
42.0390625 502.326171875 m 5
 42.0390625 301.506835938 l 5
 42.07421875 296.130859375 l 6
 42.2880859375 236.461914062 43.6943359375 195.5078125 46.248046875 174.443359375 c 4
 48.8916015625 152.541992188 55.7890625 131.094726562 66.7333984375 110.70703125 c 4
 77.2265625 91.1904296875 93.89453125 75.234375 116.293945312 63.2919921875 c 4
 139.03125 51.1533203125 168.390625 45.0029296875 203.524414062 45.0029296875 c 6
 428.870117188 45.0029296875 l 6
 463.99609375 45.0029296875 493.354492188 51.162109375 516.091796875 63.2919921875 c 4
 538.491210938 75.234375 555.16015625 91.1904296875 565.642578125 110.70703125 c 4
 576.615234375 131.094726562 583.51171875 152.541992188 586.13671875 174.443359375 c 4
 588.692382812 195.5078125 590.106445312 236.461914062 590.310546875 296.130859375 c 6
 590.364257812 313.341796875 l 5
 590.310546875 519.537109375 l 6
 590.09765625 579.223632812 588.692382812 620.16015625 586.13671875 641.225585938 c 4
 583.51171875 663.143554688 576.606445312 684.573242188 565.661132812 704.9609375 c 4
 555.168945312 724.4765625 538.5 740.43359375 516.091796875 752.384765625 c 4
 493.354492188 764.514648438 463.99609375 770.6640625 428.870117188 770.6640625 c 6
 203.524414062 770.6640625 l 6
 168.390625 770.6640625 139.03125 764.505859375 116.293945312 752.384765625 c 4
 93.9033203125 740.43359375 77.2265625 724.4765625 66.7431640625 704.9609375 c 4
 55.7802734375 684.573242188 48.8828125 663.143554688 46.248046875 641.2421875 c 4
 43.6943359375 620.16015625 42.2880859375 579.223632812 42.07421875 519.537109375 c 6
 42.0390625 502.326171875 l 5
EndSplineSet
Validated: 524289
EndChar

StartChar: P
Encoding: 80 80 15
Width: 633
VWidth: 0
Flags: W
HStem: -0.364258 46.3467<47.8447 273.646> 315.327 46.3203<320 503.591> 453.977 22.3467<320.553 331.143> 622.314 46.3203<320.553 343.529> 761 22.248<45.9844 480.949>
VStem: 23.7363 22.248<45.9824 761> 273.646 46.3545<46.2764 315.327 476.323 622.314> 274.205 87.916<583.871 665.68> 344.616 22.2295<478.8 548.629 548.648 621.783> 564.07 46.5352<422.47 681.561>
LayerCount: 2
Fore
SplineSet
331.142578125 454.012695312 m 5xfcc0
 320.02734375 453.9765625 l 5
 274.205078125 453.9765625 l 5
 274.205078125 668.634765625 l 5
 320.02734375 668.634765625 l 6
 348.790039062 668.634765625 358.791992188 654.663085938 362.12109375 642.942382812 c 4xfd40
 363.704101562 637.327148438 365.920898438 624.913085938 366.953125 581.875976562 c 4
 367.2734375 575.611328125 367.2109375 548.62890625 367.2109375 548.62890625 c 6
 367.094726562 545.78125 366.98046875 543.057617188 366.845703125 540.486328125 c 4
 365.823242188 497.76171875 363.616210938 485.337890625 362.032226562 479.740234375 c 4
 359.201171875 469.763671875 351.477539062 458.034179688 331.142578125 454.884765625 c 6
 331.142578125 454.012695312 l 5xfcc0
344.616210938 541.322265625 m 4xfcc0
 344.909179688 547.15234375 344.999023438 575.575195312 344.72265625 581.03125 c 4
 344.2421875 600.8046875 343.512695312 613.7890625 342.7734375 622.314453125 c 6
 320.552734375 622.314453125 l 5
 320.552734375 476.323242188 l 5
 321.086914062 476.323242188 l 6
 338.048828125 476.6875 339.926757812 483.291015625 340.620117188 485.774414062 c 4
 341.706054688 489.618164062 343.672851562 501.978515625 344.616210938 541.322265625 c 4xfcc0
610.435546875 534.852539062 m 4
 610.614257812 524.165039062 610.595703125 512.498046875 610.498046875 503.083007812 c 4
 610.631835938 490.27734375 610.453125 471.953125 608.825195312 458.578125 c 4
 605.977539062 434.897460938 598.555664062 411.758789062 586.763671875 389.822265625 c 4
 574.625 367.2265625 555.625976562 348.930664062 530.280273438 335.421875 c 4
 505.291992188 322.08984375 473.734375 315.327148438 436.473632812 315.327148438 c 6
 320 315.327148438 l 5
 320 0 l 5xfe40
 47.8447265625 -0.3642578125 l 5
 23.736328125 23.7080078125 l 5
 23.736328125 783.248046875 l 5
 412.463867188 783.248046875 l 6
 449.724609375 783.248046875 481.290039062 776.494140625 506.270507812 763.162109375 c 4
 518.729492188 756.524414062 529.622070312 748.709960938 538.95703125 739.8203125 c 6
 538.95703125 739.846679688 l 5
 539.223632812 739.580078125 l 6
 539.5 739.3125 539.776367188 739.018554688 540.04296875 738.760742188 c 6
 566.518554688 712.366210938 l 5
 566.366210938 712.392578125 l 6
 574.52734375 704.036132812 581.432617188 694.817382812 586.87109375 684.6796875 c 4
 598.653320312 662.76171875 606.075195312 639.623046875 608.931640625 615.924804688 c 4
 610.54296875 602.549804688 610.729492188 584.225585938 610.60546875 571.206054688 c 4
 610.685546875 562.022460938 610.739257812 548.032226562 610.435546875 534.852539062 c 4
45.984375 761 m 5
 45.984375 45.982421875 l 5
 273.645507812 46.2763671875 l 5
 273.645507812 361.647460938 l 5
 412.365234375 361.647460938 l 6
 445.93359375 361.647460938 473.975585938 367.521484375 495.698242188 379.1171875 c 4
 517.100585938 390.534179688 533.030273438 405.76953125 543.05078125 424.421875 c 4
 553.524414062 443.912109375 560.110351562 464.397460938 562.62890625 485.3203125 c 4
 564.09765625 497.502929688 564.266601562 514.794921875 564.141601562 527.155273438 c 4
 564.240234375 536.615234375 564.2578125 548.049804688 564.0703125 558.978515625 c 4
 564.3828125 572.309570312 564.329101562 586.032226562 564.240234375 595.26953125 c 4
 564.365234375 607.852539062 564.1953125 625.143554688 562.717773438 637.327148438 c 4
 560.200195312 658.267578125 553.614257812 678.744140625 543.1484375 698.216796875 c 4
 533.120117188 716.877929688 517.189453125 732.130859375 495.795898438 743.540039062 c 4
 474.072265625 755.125976562 446.022460938 761 412.455078125 761 c 6
 45.984375 761 l 5
EndSplineSet
Validated: 524321
EndChar

StartChar: Q
Encoding: 81 81 16
Width: 652
VWidth: 0
Flags: W
HStem: -214.125 47.3252<275.598 494.493> -51.1895 22.2031<457.741 494.493> -6.0791 47.2275<457.116 517.4> 161.778 22.293<312.781 332.862> 592.67 47.2725<316.137 336.916> 760.589 22.2393<129.75 494.541>
VStem: 18.082 22.1406<138.587 663.126> 173 21.4824<-74.4321 2.4289> 263.639 47.2285<187.467 592.567> 338.409 22.248<187.052 591.967> 409.426 47.6904<-26.273 -6.0791> 494.493 47.2734<-166.8 -54.0283> 584.055 47.1836<111.27 671.144>
LayerCount: 2
Fore
SplineSet
312.450195312 639.942382812 m 2
 340.225585938 639.942382812 350.565429688 626.184570312 354.34765625 614.66015625 c 0
 357.0625 606.41015625 360.657226562 585.479492188 360.657226562 499.317382812 c 2
 360.657226562 302.413085938 l 2
 360.657226562 216.232421875 357.0625 195.310546875 354.34765625 187.051757812 c 0
 350.565429688 175.52734375 340.225585938 161.778320312 312.450195312 161.778320312 c 2
 312.147460938 161.795898438 l 2
 283.963867188 161.884765625 273.711914062 175.580078125 269.95703125 187.0703125 c 0
 267.2421875 195.328125 263.638671875 216.286132812 263.638671875 302.413085938 c 2
 263.638671875 499.30859375 l 2
 263.638671875 585.416992188 267.2421875 606.375 269.965820312 614.651367188 c 0
 273.729492188 626.184570312 284.053710938 639.942382812 311.854492188 639.942382812 c 2
 312.450195312 639.942382812 l 2
338.409179688 302.421875 m 1
 338.409179688 499.317382812 l 2
 338.409179688 550.3984375 337.092773438 577.870117188 335.642578125 592.669921875 c 0
 319.34765625 592.52734375 317.051757812 585.65625 316.090820312 582.693359375 c 0
 314.141601562 576.740234375 310.8671875 554.759765625 310.8671875 474.265625 c 2
 310.8671875 277.370117188 l 2
 310.8671875 226.342773438 312.18359375 198.860351562 313.642578125 184.071289062 c 0
 329.946289062 184.329101562 332.251953125 191.07421875 333.211914062 193.993164062 c 0
 335.588867188 201.228515625 338.409179688 225.90625 338.409179688 302.421875 c 1
631.265625 497.607421875 m 1
 631.336914062 469.361328125 l 1
 631.23828125 253.9921875 l 2
 630.891601562 199.251953125 629.485351562 162.525390625 626.993164062 141.915039062 c 0
 624.047851562 117.424804688 616.3671875 93.494140625 604.158203125 70.8095703125 c 0
 591.619140625 47.466796875 571.978515625 28.5390625 545.796875 14.5673828125 c 0
 521.831054688 1.796875 492.037109375 -5.126953125 457.116210938 -6.0791015625 c 1
 457.54296875 -15.9833984375 458.05078125 -23.37109375 458.583984375 -28.986328125 c 2
 516.767578125 -28.986328125 l 1
 541.766601562 -54.0283203125 l 1
 541.766601562 -214.125 l 1
 373.321289062 -214.125 l 2
 336.051757812 -214.125 304.486328125 -207.379882812 279.505859375 -194.047851562 c 0
 260.203125 -183.76171875 244.603515625 -170.65234375 232.8828125 -155.025390625 c 0
 218.127929688 -143.678710938 206.407226562 -130.1875 198.024414062 -114.578125 c 0
 186.258789062 -92.712890625 178.837890625 -69.5927734375 175.954101562 -45.83203125 c 0
 174.6640625 -35.2509765625 173.685546875 -20.11328125 173 0 c 0
 157.719726562 3.390625 140.517578125 8.1865234375 128.5390625 14.5849609375 c 0
 114.43359375 22.1142578125 102.303710938 31.1201171875 92.078125 41.42578125 c 2
 92.052734375 41.3359375 l 1
 71.2109375 62.4716796875 l 2
 67.943359375 65.498046875 64.8212890625 68.6123046875 61.927734375 71.87890625 c 2
 61.77734375 72.0380859375 l 1
 61.8037109375 72.0380859375 l 2
 55.3251953125 79.380859375 49.7548828125 87.318359375 45.1533203125 95.888671875 c 0
 32.9609375 118.572265625 25.291015625 142.484375 22.3271484375 167.010742188 c 0
 19.84375 187.452148438 18.419921875 225.131835938 18.08203125 279.0703125 c 1
 18.0283203125 279.0703125 l 1
 17.984375 307.28125 l 1
 18.08203125 522.650390625 l 2
 18.419921875 576.588867188 19.84375 614.259765625 22.3271484375 634.708984375 c 0
 25.291015625 659.217773438 32.9609375 683.1484375 45.1533203125 705.83203125 c 0
 57.7109375 729.18359375 77.3603515625 748.103515625 103.541015625 762.057617188 c 0
 129.366210938 775.842773438 162.018554688 782.828125 200.578125 782.828125 c 2
 423.7265625 782.828125 l 2
 462.26953125 782.828125 494.911132812 775.842773438 520.763671875 762.048828125 c 0
 535.598632812 754.155273438 548.235351562 744.59765625 558.771484375 733.616210938 c 2
 558.736328125 733.784179688 l 1
 580.690429688 711.794921875 l 1
 580.627929688 711.822265625 l 2
 590.115234375 702.575195312 597.991210938 692.216796875 604.123046875 680.790039062 c 0
 616.333007812 658.096679688 624.012695312 634.158203125 626.958007812 609.649414062 c 0
 629.458984375 589.06640625 630.85546875 552.34765625 631.203125 497.607421875 c 1
 631.265625 497.607421875 l 1
494.493164062 -166.799804688 m 1
 494.493164062 -51.189453125 l 1
 455.629882812 -51.189453125 l 2
 428.612304688 -51.189453125 418.538085938 -37.7783203125 414.854492188 -26.529296875 c 0
 413.091796875 -21.1630859375 410.626953125 -9.478515625 409.42578125 29.6787109375 c 2
 409.078125 41.1484375 l 1
 423.7265625 41.1484375 l 2
 458.583984375 41.1484375 487.720703125 47.2451171875 510.306640625 59.294921875 c 0
 532.545898438 71.1484375 549.107421875 87.015625 559.528320312 106.43359375 c 0
 570.420898438 126.661132812 577.264648438 147.940429688 579.872070312 169.680664062 c 0
 582.400390625 190.487304688 583.796875 231.05859375 584.018554688 290.23828125 c 2
 584.0546875 307.290039062 l 1
 584.018554688 511.490234375 l 2
 583.788085938 570.6796875 582.400390625 611.243164062 579.872070312 632.0390625 c 0
 577.264648438 653.78125 570.4296875 675.067382812 559.537109375 695.303710938 c 0
 549.107421875 714.72265625 532.545898438 730.572265625 510.306640625 742.434570312 c 0
 487.694335938 754.474609375 458.575195312 760.588867188 423.7265625 760.588867188 c 2
 200.569335938 760.588867188 l 2
 165.702148438 760.588867188 136.583984375 754.484375 113.998046875 742.434570312 c 0
 91.7490234375 730.572265625 75.1787109375 714.72265625 64.740234375 695.303710938 c 0
 53.8662109375 675.084960938 47.03125 653.790039062 44.40625 632.048828125 c 0
 41.861328125 611.064453125 40.462890625 570.51953125 40.267578125 511.499023438 c 2
 40.22265625 494.44921875 l 1
 40.22265625 296.227539062 l 1
 40.267578125 290.247070312 l 2
 40.4716796875 231.237304688 41.861328125 190.665039062 44.40625 169.689453125 c 0
 47.03125 147.94921875 53.875 126.65234375 64.740234375 106.443359375 c 0
 75.1787109375 87.0244140625 91.7490234375 71.158203125 113.998046875 59.2861328125 c 0
 132.47265625 49.443359375 171.353515625 42.787109375 184.782226562 41.05078125 c 2
 194.3046875 39.83203125 l 1
 194.482421875 30.220703125 l 2
 195.087890625 -4.1396484375 196.280273438 -28.8076171875 198.024414062 -43.1083984375 c 0
 200.569335938 -64.1103515625 207.1640625 -84.5966796875 217.602539062 -104.014648438 c 0
 227.6328125 -122.685546875 243.561523438 -137.9296875 264.955078125 -149.34765625 c 0
 286.678710938 -160.92578125 314.728515625 -166.799804688 348.296875 -166.799804688 c 2
 494.493164062 -166.799804688 l 1
EndSplineSet
Validated: 524289
EndChar

StartChar: R
Encoding: 82 82 17
Width: 628
VWidth: 0
Flags: W
HStem: 0 45.9561<47.8447 273.368 368.67 564.025> 333.445 45.9561<320 342.697> 453.977 22.3379<320.553 330.866> 622.661 45.9824<320.553 343.246> 761 22.248<45.708 480.664>
VStem: 23.4609 22.2471<45.9561 761> 273.368 87.916<276.088 376.445 583.871 665.989> 273.368 46.6318<45.9561 333.445 476.314 622.661> 344.286 22.249<45.9561 332.855 478.397 621.783> 563.839 46.8271<45.9561 387.048 471.093 681.935>
LayerCount: 2
Fore
SplineSet
330.866210938 454.012695312 m 5xfc40
 319.7421875 453.9765625 l 5
 273.912109375 453.9765625 l 5
 273.912109375 668.643554688 l 5
 319.7421875 668.643554688 l 6
 348.504882812 668.643554688 358.516601562 654.663085938 361.834960938 642.942382812 c 4
 363.419921875 637.327148438 365.626953125 624.913085938 366.66796875 581.875976562 c 4
 367.049804688 574.561523438 366.631835938 527.075195312 365.83203125 516.823242188 c 4
 364.666015625 492.20703125 363.000976562 483.842773438 361.834960938 479.72265625 c 4
 358.98828125 469.638671875 351.21875 457.928710938 330.866210938 454.8046875 c 6
 330.866210938 454.012695312 l 5xfc40
343.635742188 518.2109375 m 4
 344.418945312 528.400390625 344.8203125 573.599609375 344.4375 581.022460938 c 4
 343.948242188 601.081054688 343.201171875 614.13671875 342.453125 622.661132812 c 6
 320.552734375 622.661132812 l 5
 320.552734375 476.314453125 l 6
 337.727539062 476.52734375 339.711914062 483.209960938 340.44140625 485.765625 c 4
 341.171875 488.408203125 342.594726562 496.185546875 343.635742188 518.2109375 c 4
608.913085938 321.360351562 m 4
 609.918945312 313.173828125 610.426757812 293.763671875 610.479492188 262.14453125 c 6
 610.666015625 251.021484375 l 5
 610.666015625 0 l 5
 368.669921875 0 l 5
 344.286132812 23.7255859375 l 5
 344.233398438 273.26953125 l 6
 343.83203125 304.123046875 342.888671875 322.481445312 341.918945312 333.4453125 c 6
 320 333.4453125 l 5
 320 0 l 5xfdc0
 47.8447265625 0 l 5
 23.4609375 23.7255859375 l 5
 23.4609375 783.248046875 l 5
 412.177734375 783.248046875 l 6
 449.440429688 783.248046875 481.004882812 776.494140625 505.984375 763.162109375 c 4
 518.391601562 756.541992188 529.274414062 748.763671875 538.57421875 739.900390625 c 6
 538.57421875 739.926757812 l 5
 538.903320312 739.606445312 l 6
 539.107421875 739.418945312 539.303710938 739.223632812 539.5078125 739.02734375 c 6
 562.5390625 716.611328125 l 5
 562.450195312 716.637695312 l 6
 572.35546875 707.29296875 580.541992188 696.747070312 586.852539062 685.026367188 c 4
 598.643554688 663.099609375 606.06640625 639.961914062 608.913085938 616.262695312 c 4
 610.541992188 602.887695312 610.719726562 584.563476562 610.595703125 571.544921875 c 4
 610.80859375 550.782226562 610.666015625 522.731445312 608.913085938 508.280273438 c 4
 606.057617188 484.590820312 598.634765625 461.4609375 586.852539062 439.515625 c 4
 582.099609375 430.696289062 576.208984375 422.4296875 569.240234375 414.829101562 c 4
 576.217773438 407.229492188 582.108398438 398.961914062 586.852539062 390.143554688 c 4
 598.643554688 368.188476562 606.06640625 345.049804688 608.913085938 321.360351562 c 4
45.7080078125 761 m 5
 45.7080078125 45.9560546875 l 5
 273.368164062 45.9560546875 l 5
 273.368164062 379.401367188 l 5xfdc0
 319.19921875 379.401367188 l 6
 347.953125 379.401367188 357.963867188 365.420898438 361.284179688 353.69140625 c 4xfe40
 363.162109375 347.052734375 365.715820312 331.532226562 366.481445312 273.393554688 c 6
 366.53515625 45.9560546875 l 5
 564.025390625 45.9560546875 l 5
 563.838867188 274.74609375 l 6
 563.91015625 320.5859375 563.126953125 336.8359375 562.450195312 342.416015625 c 4
 559.931640625 363.338867188 553.34765625 383.833007812 542.864257812 403.314453125 c 4
 537.541992188 413.208984375 530.396484375 422.3046875 521.638671875 430.33203125 c 6
 512.668945312 438.537109375 l 5
 521.638671875 446.741210938 l 6
 530.405273438 454.768554688 537.541992188 463.864257812 542.864257812 473.760742188 c 4
 553.34765625 493.249023438 559.931640625 513.734375 562.450195312 534.657226562 c 4
 563.705078125 545.024414062 564.240234375 566.534179688 563.962890625 595.26953125 c 4
 564.087890625 607.84375 563.928710938 625.135742188 562.450195312 637.318359375 c 4
 559.931640625 658.258789062 553.34765625 678.744140625 542.864257812 698.216796875 c 4
 532.8515625 716.877929688 516.913085938 732.131835938 495.51953125 743.540039062 c 4
 473.796875 755.125976562 445.754882812 761 412.177734375 761 c 6
 45.7080078125 761 l 5
EndSplineSet
Validated: 524321
EndChar

StartChar: S
Encoding: 83 83 18
Width: 657
VWidth: 0
Flags: W
HStem: 0 46.3916<60 514.878> 180.797 22.2656<58.292 326.764> 286.208 46.3916<131.961 343.035> 495.109 22.248<316.624 478.446> 599.417 46.4258<321.874 526.134> 779.341 22.2568<139.67 526.134>
VStem: 35.0566 22.3721<46.3916 181.455> 263.41 47.1836<522.744 587.842> 349.074 22.2393<225.08 280.099> 526.134 47.1924<645.843 777.4>
LayerCount: 2
Fore
SplineSet
644.963867188 286.109375 m 0
 651.416015625 220.149414062 641.09375 151.713867188 616.655273438 98.3896484375 c 0
 602.907226562 68.3916015625 581.432617188 44.095703125 552.813476562 26.1376953125 c 0
 524.673828125 8.498046875 489.237304688 -0.4541015625 447.5 -0.4541015625 c 2
 445.640625 -0.4365234375 l 1
 60 0 l 1
 35.056640625 24.197265625 l 1
 36.205078125 203.881835938 l 1
 47.3369140625 203.791992188 l 2
 48.28125 203.791992188 152.293945312 203.0625 228.720703125 203.0625 c 0
 283.842773438 203.0625 300.609375 203.4453125 304.978515625 203.774414062 c 0
 305.841796875 203.819335938 306.901367188 204.157226562 308.201171875 204.744140625 c 2
 309.926757812 205.368164062 l 2
 332.82421875 211.60546875 348.9140625 232.51953125 349.07421875 256.2265625 c 0
 349.119140625 264.939453125 347.02734375 273.162109375 343.3515625 280.440429688 c 0
 336.615234375 283.600585938 329.149414062 285.459960938 321.228515625 285.49609375 c 2
 211.661132812 286.208007812 l 2
 176.91015625 288.904296875 147.685546875 297.991210938 123.986328125 313.270507812 c 0
 113.9921875 319.731445312 104.932617188 327.001953125 96.74609375 334.994140625 c 2
 96.7548828125 334.904296875 l 1
 70.4130859375 360.471679688 l 1
 70.421875 360.471679688 l 2
 56.013671875 374.826171875 44.525390625 391.565429688 36.1240234375 410.512695312 c 0
 12.36328125 464.139648438 2.9208984375 532.708007812 10.201171875 598.633789062 c 0
 11.705078125 612.213867188 13.9208984375 625.481445312 16.794921875 638.092773438 c 0
 22.2412109375 662.057617188 29.57421875 684.430664062 37.984375 702.7890625 c 0
 51.7509765625 732.762695312 73.224609375 757.06640625 101.827148438 775.024414062 c 0
 129.984375 792.662109375 165.39453125 801.606445312 207.086914062 801.606445312 c 2
 209.009765625 801.59765625 l 1
 548.381835938 801.59765625 l 1
 573.326171875 777.400390625 l 1
 573.326171875 599.416992188 l 1
 415.80078125 599.416992188 l 2
 386.388671875 599.416992188 364.23046875 599.416992188 363.998046875 599.416992188 c 0
 334.612304688 599.416992188 310.78125 575.736328125 310.59375 546.625976562 c 0
 310.540039062 537.905273438 312.60546875 529.672851562 316.307617188 522.40234375 c 0
 323.03515625 519.244140625 330.500976562 517.409179688 338.413085938 517.357421875 c 0
 338.439453125 517.365234375 344.874023438 517.561523438 355.2421875 517.561523438 c 0
 403.5546875 517.561523438 490.581054688 513.69921875 530.645507812 487.874023438 c 0
 540.942382812 481.243164062 550.25 473.75 558.607421875 465.491210938 c 2
 558.616210938 465.544921875 l 1
 581.068359375 443.759765625 l 1
 580.934570312 443.733398438 l 2
 596.846679688 428.684570312 609.483398438 410.95703125 618.499023438 390.623046875 c 0
 626.739257812 372.041015625 633.787109375 349.588867188 638.885742188 325.666992188 c 0
 641.635742188 312.754882812 643.674804688 299.458984375 644.963867188 286.109375 c 0
58.2919921875 181.455078125 m 2
 57.4287109375 46.3916015625 l 1
 422.537109375 45.9560546875 l 2
 460.029296875 45.9560546875 491.489257812 53.759765625 516.033203125 69.1552734375 c 0
 540.90625 84.7470703125 559.55859375 105.829101562 571.475585938 131.815429688 c 0
 593.999023438 180.948242188 603.8671875 246.874023438 597.87890625 308.14453125 c 0
 596.677734375 320.657226562 594.755859375 333.125 592.182617188 345.201171875 c 0
 587.395507812 367.626953125 580.836914062 388.583984375 573.219726562 405.778320312 c 0
 561.6328125 431.932617188 543.24609375 453.255859375 518.578125 469.158203125 c 0
 480.978515625 493.41796875 384.047851562 495.3046875 355.2421875 495.3046875 c 0
 345.051757812 495.3046875 338.831054688 495.109375 338.733398438 495.109375 c 0
 296.747070312 495.357421875 263.143554688 529.388671875 263.41015625 570.947265625 c 0
 263.677734375 612.248046875 297.485351562 645.842773438 338.77734375 645.842773438 c 0
 340.0234375 645.842773438 361.916015625 645.842773438 390.874023438 645.842773438 c 2
 526.133789062 645.842773438 l 1
 526.133789062 779.33203125 l 1
 207.069335938 779.340820312 l 2
 169.62109375 779.340820312 138.180664062 771.545898438 113.63671875 756.158203125 c 0
 88.771484375 740.548828125 70.119140625 719.466796875 58.1943359375 693.499023438 c 0
 50.416015625 676.510742188 43.5908203125 655.6328125 38.4736328125 633.14453125 c 0
 35.7861328125 621.352539062 33.7119140625 608.919921875 32.2978515625 596.185546875 c 0
 25.5341796875 534.958984375 34.56640625 468.909179688 56.4501953125 419.509765625 c 0
 68.0458984375 393.399414062 86.431640625 372.067382812 111.091796875 356.146484375 c 0
 131.657226562 342.887695312 157.412109375 334.966796875 187.642578125 332.599609375 c 2
 296.41796875 331.923828125 l 2
 337.9765625 331.666015625 371.571289062 297.634765625 371.313476562 256.075195312 c 0
 371.100585938 222.721679688 348.65625 193.255859375 316.609375 184.133789062 c 0
 313.201171875 182.65625 309.935546875 181.819335938 306.634765625 181.5625 c 0
 299.603515625 181.0546875 274.133789062 180.796875 228.712890625 180.796875 c 0
 166.987304688 180.796875 87.267578125 181.268554688 58.2919921875 181.455078125 c 2
EndSplineSet
Validated: 524321
EndChar

StartChar: T
Encoding: 84 84 19
Width: 643
VWidth: 0
Flags: W
HStem: 0 46.8896<193.937 423.831> 601.098 46.8809<36.1357 169.998 470 581.641> 773.805 22.248<34.4453 581.641>
VStem: 12.1973 22.248<647.979 773.805> 169.998 22.2568<46.8896 601.098> 423.831 46.1689<46.8896 601.107> 581.641 46.1953<647.979 771.421>
LayerCount: 2
Fore
SplineSet
603.879882812 796.052734375 m 1
 627.8359375 771.420898438 l 1
 627.8359375 601.107421875 l 1
 470 601.107421875 l 1
 470 0 l 1
 193.936523438 0 l 1
 169.998046875 24.6328125 l 1
 169.998046875 601.09765625 l 1
 36.1357421875 601.09765625 l 1
 12.197265625 625.73046875 l 1
 12.197265625 796.052734375 l 1
 603.879882812 796.052734375 l 1
34.4453125 773.8046875 m 1
 34.4453125 647.978515625 l 1
 192.254882812 647.978515625 l 1
 192.254882812 46.8896484375 l 1
 423.831054688 46.8896484375 l 1
 423.831054688 647.978515625 l 1
 581.640625 647.978515625 l 1
 581.640625 773.8046875 l 1
 34.4453125 773.8046875 l 1
EndSplineSet
Validated: 524289
EndChar

StartChar: U
Encoding: 85 85 20
Width: 656
VWidth: 0
Flags: W
HStem: 0 46.2051<127.497 523.102> 168.284 22.248<315.693 337.383> 773.129 22.248<41.7852 267.62 365.387 589.585>
VStem: 19.5371 22.248<144.818 773.129> 267.62 46.0273<194.164 771.421> 343.166 22.248<200.989 773.129> 589.585 45.9385<114.117 771.421>
LayerCount: 2
Fore
SplineSet
635.5234375 771.420898438 m 1
 637.311523438 273.97265625 l 2
 637.241210938 269.575195312 635.5859375 171.373046875 632.942382812 149.506835938 c 0
 629.970703125 124.8125 622.2109375 100.650390625 609.875976562 77.708984375 c 0
 597.256835938 54.169921875 577.428710938 35.072265625 550.971679688 20.9580078125 c 0
 524.87890625 7.0576171875 491.924804688 0 453 0 c 2
 227.600585938 0 l 2
 188.67578125 0 155.712890625 7.0576171875 129.637695312 20.9580078125 c 0
 113.805664062 29.4033203125 100.395507812 39.673828125 89.421875 51.580078125 c 2
 89.4130859375 51.4912109375 l 1
 70.9384765625 70.01953125 l 1
 70.947265625 70.037109375 l 2
 61.23828125 79.443359375 53.193359375 90.0068359375 46.919921875 101.673828125 c 0
 34.5947265625 124.616210938 26.8427734375 148.77734375 23.8701171875 173.47265625 c 0
 21.2099609375 195.534179688 19.7412109375 237.387695312 19.537109375 297.857421875 c 2
 19.537109375 795.376953125 l 1
 289.868164062 795.376953125 l 1
 313.647460938 771.420898438 l 1
 313.647460938 286.270507812 l 2
 313.647460938 232.963867188 315.071289062 205.118164062 316.6015625 190.532226562 c 2
 317.607421875 190.497070312 l 2
 334.551757812 190.5234375 336.901367188 197.65234375 337.897460938 200.6953125 c 0
 339.864257812 206.693359375 343.166015625 228.90625 343.166015625 310.217773438 c 2
 343.138671875 795.376953125 l 1
 611.744140625 795.376953125 l 1
 635.5234375 771.420898438 l 1
45.966796875 176.151367188 m 0
 48.6103515625 154.20703125 55.5166015625 132.688476562 66.515625 112.192382812 c 0
 77.0791015625 92.560546875 93.8359375 76.54296875 116.31640625 64.546875 c 0
 139.142578125 52.3720703125 168.581054688 46.205078125 203.8125 46.205078125 c 2
 429.204101562 46.205078125 l 2
 464.435546875 46.205078125 493.874023438 52.380859375 516.701171875 64.546875 c 0
 539.224609375 76.560546875 555.963867188 92.587890625 566.482421875 112.192382812 c 0
 577.5 132.688476562 584.415039062 154.188476562 587.05859375 176.142578125 c 0
 589.576171875 196.877929688 591.258789062 297.065429688 591.276367188 298.071289062 c 2
 589.584960938 773.12890625 l 1
 365.38671875 773.12890625 l 1
 365.4140625 310.217773438 l 2
 365.4140625 223.254882812 361.765625 202.1015625 359.015625 193.762695312 c 0
 355.206054688 182.140625 344.803710938 168.284179688 316.82421875 168.284179688 c 2
 316.21875 168.284179688 l 2
 288.212890625 168.284179688 277.80078125 182.131835938 273.9921875 193.762695312 c 0
 271.259765625 202.110351562 267.620117188 223.263671875 267.620117188 310.217773438 c 2
 267.620117188 773.12890625 l 1
 41.78515625 773.12890625 l 1
 41.78515625 297.892578125 l 2
 41.998046875 238.321289062 43.3955078125 197.340820312 45.966796875 176.151367188 c 0
EndSplineSet
Validated: 524289
EndChar

StartChar: V
Encoding: 86 86 21
Width: 655
VWidth: 0
Flags: W
HStem: 0 46.4082<217.228 415.413> 774.409 22.248<41.5664 240.044 386.312 584.81>
LayerCount: 2
Fore
SplineSet
612.82421875 796.657226562 m 1
 636.75390625 772.497070312 l 1
 457 0 l 1
 217.227539062 0 l 1
 193.297851562 24.16015625 l 1
 13.55078125 796.657226562 l 1
 257.71875 796.657226562 l 1
 281.6484375 772.497070312 l 1
 322.353515625 597.609375 l 1
 368.65625 796.657226562 l 1
 612.82421875 796.657226562 l 1
41.56640625 774.409179688 m 1
 210.962890625 46.408203125 l 1
 415.413085938 46.408203125 l 1
 584.809570312 774.409179688 l 1
 386.3125 774.409179688 l 1
 313.1875 460.080078125 l 1
 240.043945312 774.409179688 l 1
 41.56640625 774.409179688 l 1
EndSplineSet
Validated: 524289
EndChar

StartChar: W
Encoding: 87 87 22
Width: 930
VWidth: 0
Flags: W
HStem: 0 46.5693<163.059 351.473 560.106 747.097> 781.103 22.2393<37.8545 227.089 399.324 505.714 677.95 867.183>
LayerCount: 2
Fore
SplineSet
893.35546875 803.350585938 m 1
 917.365234375 779.028320312 l 1
 790 0 l 1
 560.106445312 0 l 1
 536.095703125 24.3125 l 1
 467.4921875 305.52734375 l 1
 392.951171875 0 l 1
 163.05859375 0 l 1
 139.048828125 24.3125 l 1
 11.6826171875 803.341796875 l 1
 245.901367188 803.359375 l 1
 269.90234375 779.045898438 l 1
 306.309570312 563.053710938 l 1
 382.620117188 803.100585938 l 1
 522.106445312 803.100585938 l 1
 545.32421875 779.055664062 l 1
 617.336914062 555.301757812 l 1
 659.13671875 803.3671875 l 1
 893.35546875 803.350585938 l 1
452.514648438 460.783203125 m 1
 553.565429688 46.5693359375 l 1
 747.096679688 46.5693359375 l 1
 867.182617188 781.102539062 l 1
 677.950195312 781.120117188 l 1
 618.431640625 427.989257812 l 1
 505.713867188 781.120117188 l 1
 399.32421875 781.120117188 l 1
 286.606445312 427.989257812 l 1
 227.088867188 781.120117188 l 1
 37.8544921875 781.102539062 l 1
 157.951171875 46.578125 l 1
 351.47265625 46.578125 l 1
 452.514648438 460.783203125 l 1
EndSplineSet
Validated: 524289
EndChar

StartChar: X
Encoding: 88 88 23
Width: 752
VWidth: 0
Flags: W
HStem: 0 46.4014<50.3066 271.416 466.968 677.186> 775.479 22.248<50.3066 271.416 456.058 677.168>
LayerCount: 2
Fore
SplineSet
523.745117188 386.787109375 m 1
 739 0 l 1
 466.967773438 0 l 1
 442.984375 24.162109375 l 1
 382.452148438 132.936523438 l 1
 308.473632812 0 l 1
 36.44140625 0 l 1
 12.45703125 24.162109375 l 1
 227.721679688 410.939453125 l 1
 12.4658203125 797.7265625 l 1
 284.498046875 797.7265625 l 1
 308.482421875 773.57421875 l 1
 369.0234375 664.817382812 l 1
 442.993164062 797.7265625 l 1
 715.024414062 797.7265625 l 1
 739.0078125 773.57421875 l 1
 523.745117188 386.787109375 l 1
253.190429688 410.939453125 m 1
 50.306640625 46.4013671875 l 1
 271.416015625 46.4013671875 l 1
 363.754882812 212.30859375 l 1
 456.084960938 46.41015625 l 1
 677.185546875 46.41015625 l 1
 474.291992188 410.939453125 l 1
 677.16796875 775.478515625 l 1
 456.057617188 775.478515625 l 1
 363.74609375 609.588867188 l 1
 271.416015625 775.478515625 l 1
 50.306640625 775.478515625 l 1
 253.190429688 410.939453125 l 1
EndSplineSet
Validated: 524289
EndChar

StartChar: Y
Encoding: 89 89 24
Width: 750
VWidth: 0
Flags: W
HStem: 0 46.168<248 477.592> 774.16 22.2568<48.373 269.483 454.134 675.234>
VStem: 223.777 22.2393<46.168 413.244> 477.592 46.4717<46.168 389.358>
LayerCount: 2
Fore
SplineSet
713.083984375 796.408203125 m 1
 737.297851562 772.48828125 l 1
 524.063476562 389.358398438 l 1
 524.063476562 0 l 1
 248 0 l 1
 223.77734375 23.919921875 l 1
 223.77734375 413.244140625 l 1
 10.5341796875 796.416992188 l 1
 282.556640625 796.416992188 l 1
 306.770507812 772.497070312 l 1
 367.250976562 663.819335938 l 1
 441.051757812 796.408203125 l 1
 713.083984375 796.408203125 l 1
269.483398438 774.16015625 m 1
 48.373046875 774.16015625 l 1
 246.016601562 419.009765625 l 1
 246.016601562 46.16796875 l 1
 477.591796875 46.16796875 l 1
 477.591796875 419.045898438 l 1
 675.234375 774.16015625 l 1
 454.133789062 774.16015625 l 1
 361.794921875 608.270507812 l 1
 269.483398438 774.16015625 l 1
EndSplineSet
Validated: 524289
EndChar

StartChar: Z
Encoding: 90 90 25
Width: 754
VWidth: 0
Flags: W
HStem: 0 46.8008<49.3086 694.057> 164.439 22.248<426.556 694.057> 609.285 46.793<95.6553 326.057> 773.716 22.248<95.6553 686.582>
VStem: 73.4072 22.248<656.078 773.716> 694.057 38.9434<46.8008 162.144>
LayerCount: 2
Fore
SplineSet
426.555664062 186.6875 m 1
 716.305664062 186.6875 l 1
 733 162.143554688 l 1
 733 0 l 1
 28.8046875 0 l 1
 12.109375 24.544921875 l 1
 326.056640625 609.28515625 l 1
 90.1025390625 609.28515625 l 1
 73.4072265625 633.830078125 l 1
 73.4072265625 795.963867188 l 1
 723.771484375 795.8671875 l 1
 740.475585938 771.323242188 l 1
 426.555664062 186.6875 l 1
376.435546875 656.078125 m 1
 49.30859375 46.80078125 l 1
 694.056640625 46.80078125 l 1
 694.056640625 164.439453125 l 1
 359.491210938 164.439453125 l 1
 686.58203125 773.610351562 l 1
 95.6552734375 773.715820312 l 1
 95.6552734375 656.078125 l 1
 376.435546875 656.078125 l 1
EndSplineSet
Validated: 524289
EndChar

StartChar: a
Encoding: 97 97 26
Width: 643
VWidth: 0
Flags: W
HStem: 0 46.8008<112.789 572.626> 167.377 22.248<299.585 319.383> 427.402 22.248<117.47 319.808> 469.31 46.792<103.504 306.112> 636.713 22.248<101.635 484.088>
VStem: 6.69824 22.2207<141.118 333.084> 79.4043 22.2305<516.102 636.713> 252.548 46.3652<192.881 259.781> 319.8 22.2383<190.158 259.83 449.65 469.123> 572.626 46.3652<46.8008 549.957>
LayerCount: 2
Fore
SplineSet
257.62109375 192.659179688 m 0
 256.098632812 197.322265625 253.909179688 206.942382812 252.547851562 236.5859375 c 2
 252.530273438 237.092773438 l 1
 252.547851562 237.599609375 l 2
 253.901367188 267.26171875 256.08984375 276.880859375 257.612304688 281.536132812 c 0
 261.393554688 293.078125 271.725585938 306.828125 299.5 306.828125 c 2
 342.038085938 306.809570312 l 1
 342.038085938 189.081054688 l 1
 340.694335938 186.607421875 l 2
 335.9609375 177.833007812 325.290039062 167.376953125 301.430664062 167.376953125 c 2
 300.087890625 167.376953125 l 2
 271.743164062 167.376953125 261.403320312 181.125 257.62109375 192.659179688 c 0
301.439453125 189.625 m 2
 313.09765625 189.625 317.76171875 192.80078125 319.799804688 195.186523438 c 2
 319.799804688 259.830078125 l 2
 305.916015625 258.8515625 303.762695312 252.799804688 302.86328125 250.05859375 c 0
 301.903320312 247.104492188 300.096679688 238.303710938 298.913085938 212.548828125 c 0
 299.3671875 202.5546875 299.926757812 195.16015625 300.479492188 189.625 c 2
 301.439453125 189.625 l 2
618.991210938 422.25 m 2
 619 0 l 1
 212.368164062 0 l 2
 173.833984375 0 141.192382812 6.986328125 115.366210938 20.76171875 c 0
 99.908203125 29.001953125 86.7998046875 39.0146484375 76.0234375 50.6005859375 c 2
 76.0234375 50.4853515625 l 1
 55.0029296875 71.8515625 l 1
 55.1181640625 71.826171875 l 2
 46.228515625 80.7421875 38.7705078125 90.62109375 32.9150390625 101.522460938 c 0
 20.732421875 124.1875 13.0517578125 148.109375 10.09765625 172.618164062 c 0
 8.7978515625 183.340820312 7.53515625 213.376953125 6.6982421875 236.692382812 c 0
 7.908203125 271.4609375 9.056640625 293.033203125 10.09765625 301.59375 c 0
 13.04296875 326.09375 20.7236328125 350.015625 32.9150390625 372.681640625 c 0
 45.4541015625 396.015625 65.0859375 414.935546875 91.2666015625 428.889648438 c 0
 117.092773438 442.665039062 149.7265625 449.650390625 188.268554688 449.650390625 c 2
 319.807617188 449.650390625 l 1
 319.807617188 469.123046875 l 1
 280.954101562 469.166992188 116.469726562 469.309570312 114.618164062 469.309570312 c 2
 103.50390625 469.318359375 l 1
 79.404296875 493.87109375 l 1
 79.404296875 658.9609375 l 1
 412.671875 658.9609375 l 2
 451.864257812 658.9609375 484.505859375 651.974609375 510.33203125 638.19921875 c 0
 523.333007812 631.275390625 534.698242188 623.115234375 544.397460938 613.815429688 c 2
 544.397460938 613.82421875 l 1
 544.504882812 613.716796875 l 2
 544.771484375 613.46875 545.021484375 613.182617188 545.288085938 612.924804688 c 2
 570.712890625 587.08203125 l 1
 570.615234375 587.08984375 l 2
 579.487304688 578.182617188 586.935546875 568.3125 592.783203125 557.438476562 c 0
 604.965820312 534.771484375 612.646484375 510.850585938 615.600585938 486.342773438 c 0
 616.6328125 477.791015625 617.771484375 456.21875 618.991210938 422.25 c 2
32.17578125 175.288085938 m 0
 34.7919921875 153.538085938 41.6357421875 132.268554688 52.501953125 112.059570312 c 0
 62.9326171875 92.6494140625 79.494140625 76.7998046875 101.733398438 64.9375 c 0
 124.301757812 52.90625 153.418945312 46.80078125 188.268554688 46.80078125 c 2
 572.625976562 46.80078125 l 1
 572.625976562 446.40234375 l 2
 571.477539062 478.404296875 570.3125 500.509765625 569.38671875 508.225585938 c 0
 566.770507812 529.965820312 559.926757812 551.245117188 549.061523438 571.455078125 c 0
 538.631835938 590.86328125 522.069335938 606.712890625 499.831054688 618.576171875 c 0
 477.26171875 630.607421875 448.14453125 636.712890625 413.293945312 636.712890625 c 2
 101.634765625 636.712890625 l 1
 101.634765625 516.1015625 l 1
 145.462890625 516.065429688 303.682617188 515.940429688 304.946289062 515.870117188 c 2
 306.112304688 515.745117188 l 2
 331.500976562 511.741210938 341.30859375 493.791015625 342.021484375 478.333007812 c 2
 342.038085938 427.40234375 l 1
 188.259765625 427.40234375 l 2
 153.41015625 427.40234375 124.301757812 421.307617188 101.724609375 409.266601562 c 0
 79.4853515625 397.403320312 62.923828125 381.553710938 52.501953125 362.145507812 c 0
 41.626953125 341.934570312 34.783203125 320.657226562 32.17578125 298.924804688 c 0
 31.2421875 291.200195312 30.0849609375 269.103515625 28.9189453125 236.692382812 c 0
 30.0849609375 205.145507812 31.2421875 183.047851562 32.17578125 175.288085938 c 0
EndSplineSet
Validated: 524289
EndChar

StartChar: b
Encoding: 98 98 27
Width: 646
VWidth: 0
Flags: W
HStem: 0 46.5967<42 517.974> 469.345 46.5879<317.102 337.568> 636.509 22.2305<317.102 495.135> 765.734 22.2471<39.9619 270.567>
VStem: 17.7139 22.248<46.5967 765.734> 270.576 84.418<379.339 513.025> 270.576 46.5254<189.634 469.345 658.739 763.651> 339.065 22.2568<192.455 468.119> 580.43 46.374<108.502 556.384>
LayerCount: 2
Fore
SplineSet
313.106445312 515.932617188 m 2xfa80
 340.880859375 515.932617188 351.211914062 502.182617188 354.994140625 490.650390625 c 0xfc80
 357.708984375 482.374023438 361.322265625 461.42578125 361.322265625 375.3515625 c 2
 361.322265625 307.75390625 l 2xf980
 361.322265625 221.6796875 357.708984375 200.731445312 354.994140625 192.455078125 c 0xfc80
 351.220703125 180.920898438 340.880859375 167.171875 313.106445312 167.171875 c 2
 270.576171875 167.180664062 l 1
 270.576171875 515.915039062 l 1
 313.106445312 515.932617188 l 2xfa80
339.07421875 307.762695312 m 1
 339.065429688 307.762695312 l 1
 339.065429688 375.360351562 l 2
 339.065429688 427.251953125 337.703125 454.723632812 336.216796875 469.353515625 c 2
 317.1015625 469.344726562 l 1
 317.1015625 189.633789062 l 2xfb80
 330.81640625 190.65625 332.951171875 196.654296875 333.858398438 199.38671875 c 0
 335.807617188 205.331054688 339.07421875 227.303710938 339.07421875 307.762695312 c 1
630.834960938 397.154296875 m 2
 631.12890625 240.545898438 l 2
 631.047851562 237.1640625 628.95703125 165.819335938 626.803710938 148.055664062 c 0
 623.849609375 123.56640625 616.177734375 99.6533203125 603.985351562 76.96875 c 0
 591.447265625 53.6357421875 571.806640625 34.7158203125 545.633789062 20.76171875 c 0
 519.80859375 6.986328125 487.166015625 0 448.6328125 0 c 2
 42 0 l 1
 17.7138671875 24.330078125 l 1
 17.7138671875 787.981445312 l 1
 292.815429688 787.981445312 l 1
 317.1015625 763.651367188 l 1
 317.1015625 658.739257812 l 1
 424.364257812 658.739257812 l 2
 462.907226562 658.739257812 495.540039062 651.751953125 521.366210938 637.9765625 c 0
 536.200195312 630.07421875 548.846679688 620.516601562 559.375 609.525390625 c 2
 559.338867188 609.704101562 l 1
 576.958984375 591.8515625 l 1
 576.780273438 591.887695312 l 2
 587.931640625 581.787109375 597.08984375 570.315429688 604.00390625 557.448242188 c 0
 616.196289062 534.754882812 623.866210938 510.841796875 626.822265625 486.3515625 c 0
 628.939453125 468.865234375 630.264648438 439.674804688 630.834960938 397.154296875 c 2
39.9619140625 765.734375 m 1
 39.9619140625 46.5966796875 l 1
 424.336914062 46.5966796875 l 2
 459.1875 46.5966796875 488.3046875 52.6923828125 510.881835938 64.7333984375 c 0
 533.12109375 76.595703125 549.673828125 92.4453125 560.104492188 111.854492188 c 0
 570.978515625 132.073242188 577.813476562 153.350585938 580.4296875 175.07421875 c 0
 582.467773438 191.840820312 584.5859375 264.458007812 584.612304688 265.188476562 c 2
 584.29296875 421.325195312 l 2
 583.740234375 462.33203125 582.440429688 491.547851562 580.438476562 508.021484375 c 0
 577.813476562 529.752929688 570.978515625 551.03125 560.104492188 571.258789062 c 0
 549.682617188 590.659179688 533.129882812 606.5 510.881835938 618.372070312 c 0
 488.3046875 630.403320312 459.1875 636.508789062 424.336914062 636.508789062 c 2
 270.567382812 636.508789062 l 1
 270.567382812 765.734375 l 1
 39.9619140625 765.734375 l 1
EndSplineSet
Validated: 524289
EndChar

StartChar: c
Encoding: 99 99 28
Width: 444
VWidth: 0
Flags: W
HStem: 0 46.3115<114.155 383.894> 167.243 22.2393<301.152 383.894> 470.493 46.3203<304.417 383.894> 637.745 22.2393<120.251 383.894>
VStem: 7.17188 22.248<142.869 541.184> 253.048 46.1074<192.977 460.189> 383.894 46.1064<46.3115 165.437 516.796 635.921> 406.275 23.707<506.82 509.845>
LayerCount: 2
Fore
SplineSet
304.370117188 460.48046875 m 0xfd
 302.412109375 454.52734375 299.137695312 432.510742188 299.155273438 351.830078125 c 2
 299.155273438 284.081054688 l 2
 299.155273438 231.655273438 300.543945312 204.049804688 302.0390625 189.482421875 c 2
 406.151367188 189.5 l 1
 430 165.436523438 l 1
 430 0 l 1xfe
 213.6875 0 l 2
 175.064453125 0 142.350585938 6.9951171875 116.462890625 20.806640625 c 0
 102.651367188 28.1748046875 90.7177734375 36.931640625 80.6259765625 46.9609375 c 2
 80.6435546875 46.8544921875 l 1
 56.625 71.0859375 l 1
 56.712890625 71.0859375 l 2
 47.64453125 80.1103515625 40.0546875 90.1396484375 34.109375 101.201171875 c 0
 21.900390625 123.930664062 14.2021484375 147.904296875 11.23828125 172.475585938 c 0
 9.0673828125 190.372070312 7.705078125 221.510742188 7.171875 265 c 0
 7.3671875 288.637695312 9.1474609375 494.37890625 11.23828125 511.581054688 c 0
 14.2021484375 536.151367188 21.8916015625 560.1171875 34.109375 582.836914062 c 0
 46.67578125 606.224609375 66.3515625 625.1875 92.595703125 639.177734375 c 0
 118.482421875 652.989257812 151.196289062 659.984375 189.828125 659.984375 c 2
 406.1328125 659.984375 l 1
 429.982421875 635.920898438 l 1
 429.982421875 470.474609375 l 1
 325.1953125 470.493164062 l 2
 307.654296875 470.493164062 305.348632812 463.471679688 304.370117188 460.48046875 c 0xfd
406.275390625 506.8203125 m 1xfd
 406.1328125 509.844726562 l 1
 406.1328125 506.80078125 l 1
 406.275390625 506.8203125 l 1xfd
383.884765625 46.3115234375 m 1
 383.893554688 46.3115234375 l 1
 383.893554688 167.260742188 l 1
 301.3359375 167.243164062 l 2
 273.525390625 167.243164062 263.166992188 181.01953125 259.375 192.579101562 c 0
 256.661132812 200.85546875 253.047851562 221.857421875 253.047851562 308.153320312 c 2
 253.047851562 375.903320312 l 2
 253.047851562 462.208007812 256.661132812 483.201171875 259.384765625 491.4765625 c 0
 263.166992188 503.038085938 273.525390625 516.813476562 301.3359375 516.813476562 c 2
 383.893554688 516.795898438 l 1
 383.893554688 637.745117188 l 1xfe
 189.828125 637.745117188 l 2
 154.890625 637.745117188 125.700195312 631.622070312 103.069335938 619.563476562 c 0
 80.767578125 607.666015625 64.1630859375 591.771484375 53.705078125 572.309570312 c 0
 42.8037109375 552.053710938 35.951171875 530.713867188 33.3173828125 508.919921875 c 0
 31.857421875 496.84375 30.185546875 356.458007812 29.419921875 265.053710938 c 0
 29.935546875 222.586914062 31.2529296875 192.258789062 33.3173828125 175.145507812 c 0
 35.951171875 153.341796875 42.8037109375 132.010742188 53.705078125 111.73828125 c 0
 64.15234375 92.2841796875 80.767578125 76.390625 103.069335938 64.4921875 c 0
 125.700195312 52.43359375 154.890625 46.3115234375 189.828125 46.3115234375 c 2
 383.884765625 46.3115234375 l 1
EndSplineSet
Validated: 524321
EndChar

StartChar: d
Encoding: 100 100 29
Width: 661
VWidth: 0
Flags: W
HStem: 0 45.0029<135.369 600.549> 166.006 23.2803<308.865 331.561> 640.13 23.2793<127.421 331.569> 764.273 23.2891<354.832 600.549>
VStem: 14.3291 23.2891<142.002 253.449 265.099 543.128> 262.369 44.4424<192.224 471.94> 331.561 23.2803<189.295 472.691 663.409 764.273> 600.549 44.4512<45.0029 742.551>
LayerCount: 2
Fore
SplineSet
311.465820312 166.005859375 m 6
 283.174804688 166.005859375 272.62890625 180.047851562 268.776367188 191.822265625 c 4
 266.026367188 200.196289062 262.369140625 221.412109375 262.369140625 308.419921875 c 6
 262.369140625 376.711914062 l 6
 262.369140625 463.728515625 266.026367188 484.935546875 268.776367188 493.301757812 c 4
 272.620117188 505.083007812 283.166992188 519.125976562 311.465820312 519.125976562 c 6
 354.840820312 519.099609375 l 5
 354.840820312 166.0234375 l 5
 311.465820312 166.005859375 l 6
308.858398438 189.428710938 m 4
 309.739257812 189.392578125 310.49609375 189.286132812 311.465820312 189.286132812 c 6
 331.560546875 189.294921875 l 5
 331.560546875 472.69140625 l 6
 321.7890625 470.305664062 315.435546875 464.885742188 312.631835938 456.297851562 c 4
 308.734375 444.42578125 306.811523438 406.782226562 306.811523438 343.331054688 c 6
 306.811523438 275.046875 l 6
 306.811523438 237.403320312 307.48828125 208.908203125 308.858398438 189.428710938 c 4
623.846679688 787.5625 m 5
 645 742.55078125 l 5
 645 0 l 5
 376.002929688 0 l 5
 231.8984375 0 l 6
 198.08984375 0 163.534179688 5.3388671875 133.98046875 22.6025390625 c 4
 121.2890625 30.0166015625 108.296875 36.806640625 95.9794921875 44.859375 c 4
 74.5947265625 58.8583984375 55.1240234375 75.9716796875 42.033203125 98.1845703125 c 4
 29.21875 119.924804688 21.716796875 146.67578125 18.69921875 171.666015625 c 4
 16.7236328125 188.057617188 15.3974609375 215.546875 14.765625 253.44921875 c 4
 14.5966796875 253.44921875 14.3291015625 265.098632812 14.3291015625 265.098632812 c 5
 14.3291015625 434.82421875 l 5
 14.828125 434.82421875 l 5
 15.46875 471.586914062 16.7412109375 497.39453125 18.69921875 513.501953125 c 4
 21.689453125 538.27734375 29.4580078125 562.4921875 41.80078125 585.452148438 c 4
 54.5009765625 609.088867188 74.3994140625 628.248046875 100.918945312 642.389648438 c 4
 127.065429688 656.334960938 160.098632812 663.409179688 199.104492188 663.409179688 c 6
 331.569335938 663.409179688 l 5
 331.569335938 787.5625 l 5
 623.846679688 787.5625 l 5
37.609375 411.526367188 m 5
 37.6181640625 411.526367188 l 5
 37.6181640625 272.787109375 l 5
 37.8955078125 265.22265625 l 6
 38.419921875 222.186523438 39.74609375 191.64453125 41.828125 174.44140625 c 4
 44.470703125 152.53125 51.3681640625 131.092773438 62.314453125 110.706054688 c 4
 72.806640625 91.189453125 89.4833984375 75.2333984375 111.874023438 63.2900390625 c 4
 134.611328125 51.1435546875 163.9609375 45.0029296875 199.104492188 45.0029296875 c 6
 600.548828125 45.0029296875 l 5
 600.548828125 764.2734375 l 5
 354.83203125 764.2734375 l 5
 354.83203125 640.129882812 l 5
 199.095703125 640.129882812 l 6
 163.9609375 640.129882812 134.611328125 633.970703125 111.865234375 621.840820312 c 4
 89.474609375 609.8984375 72.7978515625 593.93359375 62.314453125 574.416992188 c 4
 51.3505859375 554.0390625 44.4619140625 532.599609375 41.8193359375 510.690429688 c 4
 39.791015625 494.022460938 38.482421875 464.529296875 37.9306640625 423.005859375 c 6
 37.609375 411.526367188 l 5
EndSplineSet
Validated: 524289
EndChar

StartChar: e
Encoding: 101 101 30
Width: 627
VWidth: 0
Flags: W
HStem: 0 48.1094<117.891 562.247> 164.11 22.248<287.43 562.247> 207.343 48.0918<287.334 561.001> 374.418 129.092<257.835 338.35> 374.418 22.2568<299.204 321.345> 619.876 22.248<121.301 474.869>
VStem: 12.4619 22.2393<141.255 526.702> 239.552 47.7539<189.067 207.343> 250.774 48.4297<396.675 455.144> 321.345 22.5596<396.675 454.308> 561.491 46.6045<48.1094 160.854 255.435 535.205>
LayerCount: 2
Fore
SplineSet
343.904296875 385.844726562 m 2xf6e0
 344.215820312 374.41796875 l 1
 250.685546875 374.41796875 l 1xeee0
 250.774414062 385.630859375 l 2
 251.28125 454.029296875 254.4765625 471.525390625 256.842773438 478.743164062 c 0
 260.5546875 490.044921875 270.690429688 503.509765625 297.815429688 503.509765625 c 2
 298.865234375 503.509765625 l 2
 325.669921875 503.349609375 335.6640625 489.973632812 339.330078125 478.734375 c 0
 339.873046875 477.114257812 341.58984375 471.944335938 343.904296875 385.844726562 c 2xf6e0
299.204101562 396.674804688 m 2
 321.344726562 396.674804688 l 2
 320.704101562 418.513671875 319.912109375 440.450195312 319.19140625 455.1953125 c 1
 306.340820312 454.171875 304.329101562 448.530273438 303.475585938 445.967773438 c 0
 302.229492188 442.104492188 300.262695312 430.482421875 299.204101562 396.674804688 c 2
584.504882812 186.697265625 m 1
 610 160.853515625 l 1
 610 0 l 1
 215.364257812 0 l 2
 177.943359375 0 146.216796875 6.791015625 121.0859375 20.18359375 c 0
 106.126953125 28.166015625 93.4267578125 37.857421875 82.970703125 49.0712890625 c 2
 82.970703125 48.955078125 l 1
 64.041015625 68.2578125 l 1
 64.130859375 68.2578125 l 2
 53.8251953125 77.814453125 45.3173828125 88.63671875 38.830078125 100.704101562 c 0
 27.0302734375 122.649414062 19.572265625 145.89453125 16.6533203125 169.797851562 c 0
 14.8017578125 185.103515625 12.5595703125 243.135742188 12.4619140625 245.6015625 c 2
 12.4521484375 438.509765625 l 2
 12.5771484375 441.028320312 15.1220703125 485.435546875 16.6533203125 498.133789062 c 0
 19.5625 522.046875 27.0302734375 545.291015625 38.830078125 567.254882812 c 0
 51.048828125 589.965820312 70.1376953125 608.360351562 95.5810546875 621.931640625 c 0
 120.711914062 635.333984375 152.438476562 642.124023438 189.8671875 642.124023438 c 2
 406.315429688 642.124023438 l 2
 443.75390625 642.124023438 475.48828125 635.333984375 500.592773438 621.931640625 c 0
 512.518554688 615.569335938 522.983398438 608.120117188 532.0703125 599.701171875 c 2
 532.025390625 599.825195312 l 1
 532.817382812 599.033203125 l 2
 534.587890625 597.361328125 536.287109375 595.608398438 537.9609375 593.854492188 c 2
 561.916992188 569.719726562 l 1
 561.775390625 569.737304688 l 2
 570.176757812 561.220703125 577.26953125 551.796875 582.848632812 541.419921875 c 0
 594.666015625 519.439453125 602.142578125 496.185546875 605.04296875 472.299804688 c 0
 606.369140625 461.380859375 607.375 445.44140625 608.095703125 423.791015625 c 2
 608.416015625 423.791015625 l 1
 609.235351562 412.666015625 l 1
 609.235351562 251.821289062 l 1
 608.264648438 207.342773438 l 1
 308.387695312 207.342773438 l 2
 291.666015625 207.342773438 289.512695312 200.731445312 288.604492188 197.919921875 c 0
 288.35546875 197.1796875 287.919921875 195.54296875 287.305664062 191.431640625 c 0xe760
 287.420898438 189.615234375 287.403320312 188.0234375 287.4296875 186.358398438 c 2
 584.504882812 186.697265625 l 1
38.7314453125 172.485351562 m 0
 41.3134765625 151.349609375 47.943359375 130.748046875 58.42578125 111.258789062 c 0
 68.517578125 92.4990234375 84.5458984375 77.15625 106.0546875 65.6767578125 c 0
 127.9296875 54.01953125 156.130859375 48.109375 189.8671875 48.109375 c 2
 562.247070312 48.109375 l 1
 562.247070312 164.439453125 l 1
 281.494140625 164.110351562 l 2
 254.325195312 164.110351562 244.224609375 177.567382812 240.522460938 188.869140625 c 0
 239.133789062 193.077148438 239.330078125 197.571289062 239.551757812 203.258789062 c 0
 239.712890625 207.28125 239.8984375 211.845703125 239.525390625 216.901367188 c 2
 239.427734375 218.09375 l 1
 239.60546875 219.286132812 l 2
 240.379882812 224.705078125 241.083007812 228.140625 241.97265625 230.774414062 c 0
 245.62109375 241.953125 255.704101562 255.434570312 282.891601562 255.434570312 c 2
 561.000976562 255.434570312 l 1
 561.491210938 277.905273438 l 1
 561.491210938 430.251953125 l 1
 560.671875 438.216796875 l 2
 559.978515625 464.397460938 558.900390625 483.655273438 557.458984375 495.463867188 c 0
 554.887695312 516.590820312 548.266601562 537.202148438 537.765625 556.727539062 c 0
 527.646484375 575.495117188 511.619140625 590.837890625 490.119140625 602.30859375 c 0
 468.252929688 613.966796875 440.060546875 619.875976562 406.306640625 619.875976562 c 2
 189.858398438 619.875976562 l 2
 156.122070312 619.875976562 127.920898438 613.966796875 106.045898438 602.299804688 c 0
 84.5458984375 590.828125 68.517578125 575.495117188 58.4169921875 556.717773438 c 0
 47.93359375 537.2109375 41.3134765625 516.599609375 38.7314453125 495.463867188 c 0
 37.28125 483.467773438 34.7099609375 438.340820312 34.6826171875 437.877929688 c 2
 34.701171875 246.028320312 l 2
 34.7099609375 245.859375 36.9970703125 186.875 38.7314453125 172.485351562 c 0
EndSplineSet
Validated: 524289
EndChar

StartChar: f
Encoding: 102 102 31
Width: 391
VWidth: 0
Flags: W
HStem: 0 46.4277<39.3506 245.351> 357.322 46.4355<291.644 332.027> 508.956 152.452<251.353 331.333> 508.956 22.2754<292.258 332.027> 615 46.5781<296.067 332.027> 765.565 22.2568<108.804 332.027>
VStem: 14.957 22.2393<46.4277 693.913> 245.351 46.6494<46.4277 357.322 531.231 605.468> 332.027 46.624<403.758 507.052 661.578 763.644>
LayerCount: 2
Fore
SplineSet
296.03125 605.50390625 m 4xdf80
 295.817382812 604.73828125 295.603515625 603.723632812 295.399414062 602.567382812 c 4
 293.921875 590.3125 292.879882812 561.444335938 292.2578125 531.231445312 c 6
 354.266601562 531.231445312 l 5
 378.651367188 507.051757812 l 5
 378.651367188 357.322265625 l 5
 291.643554688 357.322265625 l 5
 292 0 l 5
 39.3505859375 0 l 5
 14.966796875 24.1796875 l 5
 14.95703125 35.2861328125 l 6
 14.7802734375 178.936523438 14.2451171875 648.24609375 15.1630859375 655.73046875 c 4
 17.7705078125 677.516601562 24.61328125 698.838867188 35.48828125 719.057617188 c 4
 46.71875 739.944335938 64.267578125 756.853515625 87.62890625 769.302734375 c 4
 110.641601562 781.592773438 139.724609375 787.822265625 174.040039062 787.822265625 c 6
 354.27734375 787.822265625 l 5
 378.66015625 763.643554688 l 5
 378.66015625 615.266601562 l 5
 367.58984375 615.212890625 l 5
 367.58984375 615.212890625 317.825195312 615 316.712890625 615 c 4
 298.727539062 615 296.76953125 608.102539062 296.03125 605.50390625 c 4xdf80
332.02734375 403.7578125 m 5
 332.02734375 508.956054688 l 5
 244.9765625 508.956054688 l 5xdf80
 245.091796875 520.1953125 l 6
 245.296875 540.041992188 246.185546875 606.598632812 249.034179688 630.0390625 c 4
 249.470703125 632.602539062 249.853515625 634.301757812 250.2265625 635.672851562 c 4
 253.573242188 647.4453125 263.56640625 661.408203125 292.329101562 661.408203125 c 4xe780
 293.174804688 661.408203125 317.352539062 661.515625 332.02734375 661.578125 c 6
 332.02734375 765.565429688 l 5
 174.040039062 765.565429688 l 6
 143.41796875 765.565429688 117.868164062 760.225585938 98.103515625 749.670898438 c 4
 78.6669921875 739.313476562 64.197265625 725.46484375 55.0849609375 708.521484375 c 4
 45.53515625 690.7578125 39.5283203125 672.10546875 37.25 653.060546875 c 4
 36.6279296875 641.447265625 36.9296875 257.5625 37.1962890625 46.427734375 c 5
 245.350585938 46.427734375 l 5
 244.985351562 403.7578125 l 5
 332.02734375 403.7578125 l 5
EndSplineSet
Validated: 524321
EndChar

StartChar: g
Encoding: 103 103 32
Width: 643
VWidth: 0
Flags: W
HStem: -207.386 45.9824<71.5977 510.221> -45.793 22.248<69.9785 331.464> 0.553711 45.9824<130.167 333.867> 162.155 22.2568<312.353 336.546> 453.498 46.0527<315.569 334.802> 615.153 22.248<135.466 573.551>
VStem: 31.5879 22.0967<128.18 533.527> 47.7305 22.248<-161.403 -45.793> 264.383 46.1064<187.215 453.452> 336.537 22.2568<-21.124 0.553711 184.421 452.631> 573.551 46.1055<-95.877 613.658>
LayerCount: 2
Fore
SplineSet
311.290039062 499.55078125 m 0xfce0
 340.0703125 499.55078125 350.063476562 485.580078125 353.391601562 473.850585938 c 0
 355.71484375 465.63671875 358.793945312 444.642578125 358.793945312 357.599609375 c 2
 358.793945312 162.172851562 l 1
 311.7265625 162.155273438 l 2
 284.272460938 162.155273438 274.197265625 175.56640625 270.513671875 186.833007812 c 0
 267.897460938 194.7890625 264.3828125 215.016601562 264.3828125 298.224609375 c 2
 264.3828125 363.46484375 l 2
 264.3828125 446.654296875 267.887695312 466.900390625 270.53125 474.891601562 c 0
 274.197265625 486.130859375 284.272460938 499.55078125 311.290039062 499.55078125 c 0xfce0
336.545898438 184.420898438 m 1
 336.537109375 184.420898438 l 1
 336.537109375 357.608398438 l 2
 336.537109375 410.74609375 335.317382812 438.70703125 334.018554688 453.498046875 c 0
 318.587890625 453.186523438 316.415039062 446.939453125 315.526367188 444.20703125 c 0
 313.639648438 438.502929688 310.489257812 417.3671875 310.489257812 339.73046875 c 2
 310.489257812 274.490234375 l 2
 310.489257812 225.063476562 311.779296875 198.625 313.185546875 184.412109375 c 2
 336.545898438 184.420898438 l 1
595.780273438 637.401367188 m 1
 619.65625 613.658203125 l 1
 619.65625 11.6787109375 l 2
 619.55078125 8.8046875 617.326171875 -48.9248046875 615.447265625 -64.169921875 c 0
 612.590820312 -87.859375 605.168945312 -110.98828125 593.404296875 -132.889648438 c 0
 581.248046875 -155.475585938 562.256835938 -173.782226562 536.912109375 -187.299804688 c 0
 511.9140625 -200.629882812 480.375 -207.385742188 443.10546875 -207.385742188 c 2
 71.59765625 -207.385742188 l 1
 47.73046875 -183.642578125 l 1
 47.73046875 -23.544921875 l 1xfde0
 311.869140625 -23.544921875 l 2
 328.430664062 -23.544921875 330.583984375 -16.9775390625 331.508789062 -14.18359375 c 0
 332.131835938 -12.3046875 333.012695312 -8.16796875 333.8671875 0.5537109375 c 2
 227.815429688 0.5537109375 l 2
 190.563476562 0.5537109375 159.005859375 7.30859375 134.008789062 20.630859375 c 0
 120.561523438 27.794921875 108.965820312 36.3466796875 99.16796875 46.1357421875 c 2
 99.16796875 46.0478515625 l 1
 77.5166015625 67.6630859375 l 2
 76.8134765625 68.3388671875 76.13671875 69.04296875 75.451171875 69.728515625 c 2
 72.5947265625 72.5751953125 l 1
 72.7373046875 72.5400390625 l 2
 65.19921875 80.513671875 58.783203125 89.244140625 53.6572265625 98.775390625 c 0
 41.8740234375 120.67578125 34.4443359375 143.823242188 31.587890625 167.547851562 c 0
 28.810546875 190.3828125 27.4404296875 351.815429688 27.38671875 358.67578125 c 0
 27.38671875 425.71484375 28.8017578125 471.26171875 31.587890625 494.16796875 c 0xfee0
 34.4443359375 517.892578125 41.8740234375 541.030273438 53.6572265625 562.9140625 c 0
 65.7958984375 585.508789062 84.8046875 603.806640625 110.140625 617.32421875 c 0
 135.129882812 630.645507812 166.686523438 637.401367188 203.947265625 637.401367188 c 2
 595.780273438 637.401367188 l 1
69.978515625 -45.79296875 m 1
 69.978515625 -161.403320312 l 1xfde0
 419.263671875 -161.403320312 l 2
 452.823242188 -161.403320312 480.865234375 -155.529296875 502.587890625 -143.942382812 c 0
 523.999023438 -132.524414062 539.919921875 -117.280273438 549.94921875 -98.6181640625 c 0
 560.397460938 -79.173828125 566.982421875 -58.6875 569.518554688 -37.7392578125 c 0
 571.272460938 -23.384765625 573.532226562 35.2607421875 573.55078125 35.8486328125 c 2
 573.55078125 615.153320312 l 1
 203.96484375 615.153320312 l 2
 170.397460938 615.153320312 142.356445312 609.278320312 120.6328125 597.692382812 c 0
 99.23046875 586.283203125 83.30078125 571.0390625 73.271484375 552.368164062 c 0
 62.8056640625 532.932617188 56.2197265625 512.446289062 53.6845703125 491.489257812 c 0
 51.0048828125 469.462890625 49.64453125 424.815429688 49.64453125 358.774414062 c 0
 50.1240234375 301.178710938 51.583984375 187.508789062 53.6845703125 170.2265625 c 0xfee0
 56.2109375 149.251953125 62.8056640625 128.765625 73.2626953125 109.311523438 c 0
 83.2822265625 90.658203125 99.2216796875 75.4150390625 120.624023438 63.9970703125 c 0
 142.365234375 52.41015625 170.397460938 46.5361328125 203.956054688 46.5361328125 c 2
 358.447265625 46.5361328125 l 1
 358.100585938 35.07421875 l 2
 356.907226562 -4.1181640625 354.432617188 -15.7666015625 352.662109375 -21.1240234375 c 0
 348.969726562 -32.373046875 338.895507812 -45.79296875 311.885742188 -45.79296875 c 2
 69.978515625 -45.79296875 l 1
EndSplineSet
Validated: 524293
EndChar

StartChar: h
Encoding: 104 104 33
Width: 629
VWidth: 0
Flags: W
HStem: 0.00976562 46.0713<42.9404 270.858 355 561.427> 486.824 45.9736<317.134 328.533> 636.944 22.248<317.134 489.816> 765.236 22.2568<41.1699 270.867>
VStem: 18.9219 22.248<46.0811 765.236> 270.858 46.2754<46.0811 486.824 659.192 763.652> 330.981 22.2832<46.0811 486.726> 561.427 46.249<46.0811 569.743>
LayerCount: 2
Fore
SplineSet
607.471679688 503.243164062 m 4
 608.388671875 495.78515625 607.86328125 124.662109375 607.67578125 11.107421875 c 6
 607.657226562 0 l 5
 355 0 l 5
 330.981445312 23.8330078125 l 5
 331.453125 357.865234375 l 6
 331.453125 403.215820312 330.375976562 458.666992188 328.533203125 486.725585938 c 4
 326.095703125 486.744140625 321.547851562 486.788085938 317.133789062 486.82421875 c 6
 317.133789062 0.009765625 l 5
 42.9404296875 0.009765625 l 5
 18.921875 23.841796875 l 5
 18.921875 787.493164062 l 5
 293.115234375 787.493164062 l 5
 317.133789062 763.65234375 l 5
 317.133789062 659.192382812 l 5
 424.575195312 659.192382812 l 6
 458.907226562 659.192382812 487.981445312 652.963867188 511.00390625 640.674804688 c 4
 522.884765625 634.336914062 533.243164062 626.834960938 542.053710938 618.256835938 c 6
 542.03515625 618.301757812 l 5
 563.5 596.872070312 l 5
 563.393554688 596.872070312 l 6
 573.083984375 587.981445312 581.067382812 577.8984375 587.145507812 566.596679688 c 4
 598.020507812 546.377929688 604.864257812 525.0546875 607.471679688 503.243164062 c 4
41.169921875 765.236328125 m 5
 41.169921875 46.0810546875 l 5
 270.858398438 46.0810546875 l 5
 270.858398438 533.118164062 l 5
 282.088867188 533.010742188 l 5
 282.088867188 533.010742188 305.076171875 532.797851562 306.286132812 532.797851562 c 4
 335.047851562 532.797851562 345.041992188 518.826171875 348.370117188 507.114257812 c 4
 348.76171875 505.690429688 349.14453125 503.999023438 349.482421875 502.077148438 c 4
 352.588867188 476.723632812 353.701171875 400.244140625 353.701171875 357.84765625 c 6
 353.264648438 46.0810546875 l 5
 561.426757812 46.0810546875 l 5
 561.640625 185.576171875 562.005859375 513.415039062 561.328125 524.833007812 c 4
 559.0859375 543.475585938 553.079101562 562.138671875 543.530273438 579.901367188 c 4
 534.41796875 596.836914062 519.947265625 610.692382812 500.520507812 621.051757812 c 4
 480.74609375 631.596679688 455.196289062 636.944335938 424.564453125 636.944335938 c 6
 270.8671875 636.944335938 l 5
 270.8671875 765.236328125 l 5
 41.169921875 765.236328125 l 5
EndSplineSet
Validated: 524321
EndChar

StartChar: i
Encoding: 105 105 34
Width: 324
VWidth: 0
Flags: W
HStem: 0 47.7969<32.9375 262.075> 576.056 22.248<30.499 262.075> 614.127 47.7979<32.9375 262.075> 766.944 22.248<30.499 262.075>
VStem: 8.25098 22.248<47.7969 576.056 661.925 766.944> 262.075 46.9248<47.7969 572.753 661.925 763.643>
LayerCount: 2
Fore
SplineSet
8.2509765625 598.303710938 m 5
 284.323242188 598.303710938 l 5
 309 572.752929688 l 5
 309 0 l 5
 32.9375 0 l 5
 8.2509765625 25.548828125 l 5
 8.2509765625 598.303710938 l 5
30.4990234375 576.055664062 m 5
 30.4990234375 47.796875 l 5
 262.075195312 47.796875 l 5
 262.075195312 576.055664062 l 5
 30.4990234375 576.055664062 l 5
284.33203125 789.192382812 m 5
 309 763.642578125 l 5
 309 614.126953125 l 5
 32.9375 614.126953125 l 5
 8.2509765625 639.67578125 l 5
 8.2509765625 789.192382812 l 5
 284.33203125 789.192382812 l 5
30.4990234375 766.944335938 m 5
 30.4990234375 661.924804688 l 5
 262.075195312 661.924804688 l 5
 262.075195312 766.944335938 l 5
 30.4990234375 766.944335938 l 5
EndSplineSet
Validated: 524289
EndChar

StartChar: j
Encoding: 106 106 35
Width: 435
VWidth: 0
Flags: W
HStem: -197.935 46.4551<40.7676 309.73> -35.8701 22.248<38.7998 130.649> 572.864 22.248<157.239 372.681> 612.278 46.4541<159.216 372.689> 763.752 22.248<157.248 372.689>
VStem: 16.5518 22.248<-151.479 -35.8701> 135.009 22.2305<-4.09684 572.864 658.732 763.752> 372.681 46.4814<-85.9561 570.906 658.732 761.794>
LayerCount: 2
Fore
SplineSet
135 595.112304688 m 1
 394.947265625 595.112304688 l 1
 419.162109375 570.90625 l 1
 419.162109375 21.138671875 l 2
 419.0546875 18.2724609375 416.830078125 -39.4482421875 414.970703125 -54.6923828125 c 0
 412.086914062 -78.4169921875 404.666015625 -101.555664062 392.900390625 -123.438476562 c 0
 380.76171875 -146.034179688 361.770507812 -164.330078125 336.42578125 -177.838867188 c 0
 311.427734375 -191.170898438 279.87109375 -197.934570312 242.610351562 -197.934570312 c 2
 40.767578125 -197.934570312 l 1
 16.5517578125 -173.71875 l 1
 16.5517578125 -13.6220703125 l 1
 111.052734375 -13.6220703125 l 2
 127.623046875 -13.6220703125 129.767578125 -7.0634765625 130.693359375 -4.2685546875 c 0
 131.850585938 -0.7265625 133.950195312 10.486328125 135.008789062 45.681640625 c 2
 135 595.112304688 l 1
38.7998046875 -35.8701171875 m 1
 38.7998046875 -151.479492188 l 1
 218.38671875 -151.479492188 l 2
 251.954101562 -151.479492188 279.99609375 -145.606445312 301.727539062 -134.028320312 c 0
 323.130859375 -122.611328125 339.051757812 -107.366210938 349.080078125 -88.6962890625 c 0
 359.528320312 -69.259765625 366.11328125 -48.765625 368.649414062 -27.806640625 c 0
 370.40234375 -13.4619140625 372.6640625 45.1845703125 372.680664062 45.771484375 c 2
 372.680664062 572.864257812 l 1
 157.239257812 572.864257812 l 1
 157.239257812 45.3525390625 l 2
 156.065429688 5.8935546875 153.58203125 -5.80859375 151.829101562 -11.193359375 c 0
 148.13671875 -22.4501953125 138.061523438 -35.8701171875 111.043945312 -35.8701171875 c 2
 38.7998046875 -35.8701171875 l 1
394.947265625 786 m 1
 419.153320312 761.793945312 l 1
 419.153320312 612.278320312 l 1
 159.215820312 612.278320312 l 1
 135 636.484375 l 1
 135 786 l 1
 394.947265625 786 l 1
157.248046875 763.751953125 m 1
 157.248046875 658.732421875 l 1
 372.689453125 658.732421875 l 1
 372.689453125 763.751953125 l 1
 157.248046875 763.751953125 l 1
EndSplineSet
Validated: 524289
EndChar

StartChar: k
Encoding: 107 107 36
Width: 644
VWidth: 0
Flags: W
HStem: 0 46.1699<50.2764 280.597 363.307 570.32> 638.03 22.2305<362.194 570.32> 765.315 22.25<49.0215 280.597>
VStem: 26.7734 22.248<46.1699 765.315> 280.597 76.6582<242.024 281.641> 280.597 45.7422<46.1699 241.713 419.68 763.652> 339.812 22.3818<46.1699 240.157 420.579 638.03> 570.792 45.7412<46.1699 293.001 369.545 636.349>
LayerCount: 2
Fore
SplineSet
595.291992188 291.939453125 m 4xf7
 615.296875 254.705078125 617.530273438 215.282226562 617.0859375 181.642578125 c 4
 616.41796875 131.432617188 616.266601562 80.3515625 616.106445312 30.9521484375 c 6
 616 0 l 5
 363.306640625 0 l 5
 339.8125 23.9130859375 l 5
 340.337890625 113.154296875 l 6
 340.337890625 157.606445312 339.3046875 211.811523438 337.516601562 240.341796875 c 4
 333.95703125 240.974609375 330.200195312 241.481445312 326.34765625 241.712890625 c 6
 326.34765625 0 l 5
 50.2763671875 0 l 5
 26.7734375 23.9130859375 l 5
 26.7734375 787.565429688 l 5
 302.8359375 787.565429688 l 5
 326.338867188 763.65234375 l 5
 326.338867188 419.6796875 l 6
 331.384765625 421.397460938 335.024414062 423.301757812 335.9765625 424.875976562 c 4
 336.056640625 425.28515625 336.26953125 426.30078125 336.475585938 427.458007812 c 4
 338.859375 447.213867188 340.337890625 514.483398438 340.337890625 567.717773438 c 6
 339.8125 660.260742188 l 5
 592.497070312 660.260742188 l 5
 616 636.348632812 l 5
 616.124023438 595.0390625 l 6
 616.186523438 579.758789062 616.186523438 564.469726562 616.168945312 549.171875 c 4
 616.150390625 523.061523438 616.1328125 496.051757812 616.533203125 469.541992188 c 4
 617.094726562 431.106445312 617.806640625 383.272460938 595.291992188 341.338867188 c 4
 590.547851562 332.51171875 584.65625 324.235351562 577.697265625 316.635742188 c 4
 584.65625 309.043945312 590.556640625 300.767578125 595.291992188 291.939453125 c 4xf7
49.021484375 765.315429688 m 5
 49.021484375 46.169921875 l 5
 280.596679688 46.169921875 l 5
 280.596679688 288.772460938 l 5xf7
 292.227539062 288.247070312 l 6
 292.236328125 288.247070312 296.526367188 288.051757812 297.612304688 288.041992188 c 4
 298.12890625 288.041992188 350.038085938 287.749023438 357.254882812 262.349609375 c 4xf9
 357.637695312 260.953125 358.020507812 259.252929688 358.3671875 257.331054688 c 4
 361.46484375 231.96875 362.5859375 155.497070312 362.5859375 113.100585938 c 6
 362.194335938 46.169921875 l 5
 570.3203125 46.169921875 l 5
 570.35546875 54.9365234375 l 6
 570.5078125 104.397460938 570.666992188 155.533203125 571.325195312 205.848632812 c 4
 571.770507812 238.206054688 569.758789062 272.646484375 552.201171875 305.333007812 c 4
 546.87890625 315.237304688 539.7421875 324.32421875 530.966796875 332.3515625 c 6
 522.005859375 340.555664062 l 5
 530.966796875 348.760742188 l 6
 539.750976562 356.796875 546.887695312 365.892578125 552.201171875 375.779296875 c 4
 570.533203125 409.92578125 571.467773438 447.534179688 570.791992188 493.142578125 c 4
 570.391601562 519.822265625 570.409179688 546.919921875 570.426757812 573.120117188 c 4
 570.4453125 588.373046875 570.454101562 603.626953125 570.3828125 618.870117188 c 6
 570.3203125 638.030273438 l 5
 362.194335938 638.030273438 l 5
 362.5859375 567.7890625 l 6
 362.5859375 525.331054688 361.46484375 448.8515625 358.46484375 424.146484375 c 4
 358.020507812 421.583984375 357.646484375 419.884765625 357.263671875 418.513671875 c 4
 350.055664062 393.071289062 298.137695312 392.77734375 297.603515625 392.77734375 c 4
 296.517578125 392.768554688 292.227539062 392.572265625 292.227539062 392.572265625 c 5
 280.579101562 392.030273438 l 5
 280.596679688 403.6875 l 5
 280.596679688 765.315429688 l 5
 49.021484375 765.315429688 l 5
EndSplineSet
Validated: 524321
EndChar

StartChar: l
Encoding: 108 108 37
Width: 333
VWidth: 0
Flags: W
HStem: 0 45.0215<54.0039 278.558> 764.701 23.2803<32.8506 278.558>
VStem: 9.56152 23.2891<45.0215 764.701> 278.558 42.4424<45.0215 742.979>
LayerCount: 2
Fore
SplineSet
301.838867188 787.981445312 m 1
 321 742.978515625 l 1
 321 0 l 1
 54.00390625 0 l 1
 9.5615234375 21.72265625 l 1
 9.5615234375 787.981445312 l 1
 301.838867188 787.981445312 l 1
32.8505859375 764.701171875 m 1
 32.8505859375 45.021484375 l 1
 278.557617188 45.021484375 l 1
 278.557617188 764.701171875 l 1
 32.8505859375 764.701171875 l 1
EndSplineSet
Validated: 524289
EndChar

StartChar: m
Encoding: 109 109 38
Width: 819
VWidth: 0
Flags: W
HStem: -0.0273438 46.3115<41.5029 270.071 366.315 510.163 606.399 751.715> 453.415 46.2939<316.347 340.661 561.038 580.739> 615.443 22.2646<39.7139 349.772 522.506 551.664 551.678 665.844>
VStem: 17.4834 22.2305<46.2842 615.443> 270.071 88.3418<367.377 496.872> 270.071 46.2754<46.2842 453.415> 342.297 22.2393<46.2842 452.735> 510.163 46.2666<46.2842 443.605> 582.38 22.2393<46.2842 452.645> 751.715 46.2852<46.2842 531.229>
LayerCount: 2
Fore
SplineSet
793.81640625 470.279296875 m 0xf7c0
 796.629882812 447.051757812 798 402.724609375 798 334.779296875 c 2
 798 0 l 1
 606.399414062 0 l 1
 582.379882812 24.0537109375 l 1
 582.379882812 363.532226562 l 2
 582.379882812 412.487304688 581.125976562 438.98046875 579.736328125 453.326171875 c 0
 563.701171875 452.80078125 561.70703125 446.392578125 561.00390625 443.901367188 c 0
 559.295898438 437.840820312 556.4296875 415.424804688 556.4296875 333.604492188 c 2
 556.4296875 -0.0087890625 l 1
 366.315429688 -0.0087890625 l 1
 342.296875 24.044921875 l 1
 342.296875 363.5234375 l 2
 342.296875 412.602539062 341.033203125 439.095703125 339.635742188 453.415039062 c 2
 316.346679688 453.415039062 l 1
 316.346679688 -0.02734375 l 1
 41.5029296875 -0.02734375 l 1
 17.4833984375 24.02734375 l 1
 17.4833984375 637.708007812 l 1
 327.604492188 637.334960938 l 2
 333.727539062 637.2734375 341.69140625 636.935546875 348.606445312 636.578125 c 2
 349.772460938 636.454101562 l 2
 371.379882812 633.037109375 392.194335938 625.998046875 411.666992188 615.53125 c 0
 420.485351562 610.797851562 428.752929688 604.897460938 436.361328125 597.938476562 c 0
 443.953125 604.907226562 452.229492188 610.806640625 461.047851562 615.541015625 c 0
 480.350585938 625.91796875 501.0234375 632.9296875 522.505859375 636.3828125 c 2
 523.751953125 636.516601562 l 2
 533.4609375 636.969726562 551.677734375 637.334960938 551.677734375 637.334960938 c 1
 597.206054688 637.690429688 l 2
 634.600585938 637.690429688 666.184570312 630.926757812 691.190429688 617.587890625 c 0
 705.65234375 609.872070312 717.977539062 600.537109375 728.211914062 589.813476562 c 2
 728.211914062 589.9375 l 1
 750.752929688 567.405273438 l 1
 750.59375 567.467773438 l 2
 759.038085938 558.924804688 766.1484375 549.482421875 771.747070312 539.086914062 c 0
 783.538085938 517.133789062 790.969726562 493.986328125 793.81640625 470.279296875 c 0xf7c0
39.7138671875 615.443359375 m 1
 39.7138671875 46.2841796875 l 1
 270.071289062 46.2841796875 l 1
 270.071289062 499.708984375 l 1xf7c0
 317.57421875 499.708984375 l 2
 344.62890625 499.708984375 354.720703125 486.296875 358.413085938 475.030273438 c 0xf9c0
 361.029296875 467.012695312 364.536132812 446.721679688 364.536132812 363.5234375 c 2
 364.536132812 46.2841796875 l 1
 510.163085938 46.2841796875 l 1
 510.163085938 357.650390625 l 2
 510.163085938 444.693359375 513.233398438 465.731445312 515.555664062 473.98046875 c 0
 518.883789062 485.737304688 528.88671875 499.708984375 557.658203125 499.708984375 c 0
 584.702148438 499.708984375 594.802734375 486.296875 598.497070312 475.030273438 c 0
 601.11328125 467.012695312 604.619140625 446.721679688 604.619140625 363.5234375 c 2
 604.619140625 46.2841796875 l 1
 751.71484375 46.2841796875 l 1
 751.71484375 358.825195312 l 2
 751.71484375 424.946289062 750.370117188 469.629882812 747.700195312 491.663085938 c 0
 745.182617188 512.61328125 738.59765625 533.116210938 728.11328125 552.614257812 c 0
 718.083984375 571.276367188 702.127929688 586.546875 680.70703125 597.982421875 c 0
 658.966796875 609.578125 630.890625 615.459960938 597.286132812 615.459960938 c 2
 551.971679688 615.104492188 l 2
 552.015625 615.104492188 535.02734375 614.766601562 525.416992188 614.338867188 c 0
 506.620117188 611.251953125 488.502929688 605.06640625 471.575195312 595.971679688 c 0
 461.6796875 590.649414062 452.584960938 583.502929688 444.557617188 574.73828125 c 2
 436.352539062 565.766601562 l 1
 428.147460938 574.729492188 l 2
 420.111328125 583.512695312 411.016601562 590.649414062 401.12109375 595.961914062 c 0
 384.034179688 605.146484375 365.78125 611.348632812 346.853515625 614.41015625 c 0
 340.375 614.739257812 333.049804688 615.04296875 327.453125 615.104492188 c 2
 39.7138671875 615.443359375 l 1
EndSplineSet
Validated: 524289
EndChar

StartChar: n
Encoding: 110 110 39
Width: 637
VWidth: 0
Flags: W
HStem: -0.0185547 46.4365<46.0986 259.414 355.544 568.831> 453.433 46.4189<305.565 330.008> 615.595 22.2393<44.4355 482.638>
VStem: 22.1875 22.248<46.418 615.595> 259.414 88.3428<367.512 497.013> 259.414 46.1514<46.418 453.433> 331.631 22.248<46.4092 452.751> 568.831 46.1689<46.4092 531.352>
LayerCount: 2
Fore
SplineSet
610.817382812 470.279296875 m 4xf7
 613.5859375 447.380859375 615 401.790039062 615 334.788085938 c 6
 615 0 l 5
 355.543945312 0 l 5
 331.630859375 24.1787109375 l 5
 331.630859375 363.658203125 l 6
 331.630859375 412.5859375 330.385742188 439.078125 328.997070312 453.432617188 c 6
 305.565429688 453.432617188 l 5
 305.565429688 -0.0185546875 l 5
 46.0986328125 -0.0185546875 l 5
 22.1875 24.1611328125 l 5
 22.1875 637.833984375 l 5
 414.412109375 637.833984375 l 6
 451.69140625 637.833984375 483.283203125 631.071289062 508.307617188 617.73046875 c 4
 523.231445312 609.774414062 535.895507812 600.1015625 546.32421875 588.915039062 c 6
 546.342773438 589.00390625 l 5
 563.073242188 571.953125 l 5
 562.939453125 571.953125 l 6
 573.4765625 562.296875 582.153320312 551.350585938 588.739257812 539.096679688 c 4
 600.5390625 517.142578125 607.969726562 493.987304688 610.817382812 470.279296875 c 4xf7
44.435546875 615.594726562 m 5
 44.435546875 46.41796875 l 5
 259.4140625 46.41796875 l 5
 259.4140625 499.8515625 l 5xf7
 306.91796875 499.8515625 l 6
 333.98046875 499.8515625 344.063476562 486.431640625 347.756835938 475.165039062 c 4xf9
 350.381835938 467.137695312 353.87890625 446.84765625 353.87890625 363.658203125 c 6
 353.87890625 46.4091796875 l 5
 568.831054688 46.4091796875 l 5
 568.831054688 358.950195312 l 6
 568.831054688 425.071289062 567.478515625 469.75390625 564.817382812 491.780273438 c 4
 562.298828125 512.728515625 555.704101562 533.241210938 545.221679688 552.740234375 c 4
 535.18359375 571.418945312 519.235351562 586.681640625 497.815429688 598.107421875 c 4
 476.056640625 609.711914062 447.98046875 615.594726562 414.39453125 615.594726562 c 6
 44.435546875 615.594726562 l 5
EndSplineSet
Validated: 524289
EndChar

StartChar: o
Encoding: 111 111 40
Width: 624
VWidth: 0
Flags: W
HStem: 0 46.3027<117.639 458.356> 161.913 22.2744<299.524 318.988> 452.944 46.3291<302.753 322.277> 614.874 22.2393<122.945 475.202>
VStem: 19.0918 22.0889<127.955 533.218> 251.887 45.8232<186.957 452.909> 324.042 22.2383<186.657 452.264> 556.961 45.6797<104.966 539.121>
LayerCount: 2
Fore
SplineSet
299.0703125 161.930664062 m 2
 271.661132812 162.055664062 261.666992188 175.385742188 257.983398438 186.572265625 c 0
 255.375976562 194.58203125 251.88671875 214.827148438 251.88671875 297.973632812 c 2
 251.88671875 363.205078125 l 2
 251.88671875 446.359375 255.375976562 466.61328125 257.983398438 474.60546875 c 0
 261.684570312 485.862304688 271.758789062 499.2734375 298.794921875 499.2734375 c 0
 326.390625 499.2734375 336.474609375 485.87109375 340.158203125 474.614257812 c 0
 342.784179688 466.586914062 346.280273438 446.323242188 346.280273438 363.205078125 c 2
 346.280273438 297.973632812 l 2
 346.280273438 214.862304688 342.784179688 194.590820312 340.158203125 186.581054688 c 0
 336.465820312 175.323242188 326.390625 161.913085938 299.35546875 161.913085938 c 2
 299.0703125 161.930664062 l 2
324.033203125 297.973632812 m 1
 324.041992188 297.973632812 l 1
 324.041992188 363.205078125 l 2
 324.041992188 412.158203125 322.787109375 438.625 321.399414062 452.944335938 c 0
 305.780273438 452.7578125 303.609375 446.385742188 302.709960938 443.618164062 c 0
 300.841796875 437.930664062 297.709960938 416.77734375 297.709960938 339.149414062 c 2
 297.709960938 273.918945312 l 2
 297.709960938 224.901367188 298.955078125 198.470703125 300.342773438 184.1875 c 0
 315.952148438 184.374023438 318.124023438 190.754882812 319.03125 193.513671875 c 0
 320.8828125 199.21875 324.033203125 220.389648438 324.033203125 297.973632812 c 1
602.631835938 469.825195312 m 0
 604.838867188 451.529296875 604.838867188 161.575195312 602.640625 143.251953125 c 0
 599.776367188 119.534179688 592.353515625 96.396484375 580.5703125 74.486328125 c 0
 568.450195312 51.9091796875 549.458984375 33.61328125 524.104492188 20.0849609375 c 0
 505.674804688 10.2431640625 483.631835938 4.0224609375 458.40234375 1.4150390625 c 2
 458.357421875 1.3974609375 l 1
 458.286132812 1.40625 l 2
 449.3515625 0.490234375 440.025390625 0 430.2890625 0 c 2
 215 0 l 2
 177.729492188 0 146.181640625 6.7548828125 121.202148438 20.0849609375 c 0
 106.40234375 27.978515625 93.828125 37.5546875 83.451171875 48.6171875 c 2
 83.451171875 48.5009765625 l 1
 65.5458984375 66.8779296875 l 1
 65.6259765625 66.869140625 l 2
 55.6767578125 76.23046875 47.462890625 86.7939453125 41.1533203125 98.541015625 c 0
 29.3623046875 120.459960938 21.9404296875 143.598632812 19.091796875 167.305664062 c 0
 16.8583984375 185.602539062 16.8583984375 475.583984375 19.091796875 493.888671875 c 0
 21.94921875 517.579101562 29.37109375 540.708007812 41.1533203125 562.626953125 c 0
 53.291015625 585.221679688 72.30078125 603.518554688 97.6279296875 617.028320312 c 0
 122.607421875 630.358398438 154.15625 637.11328125 191.42578125 637.11328125 c 2
 406.724609375 637.11328125 l 2
 443.9765625 637.11328125 475.541992188 630.358398438 500.522460938 617.028320312 c 0
 515.331054688 609.125976562 527.9140625 599.541015625 538.282226562 588.478515625 c 2
 538.30859375 588.577148438 l 1
 555.794921875 570.591796875 l 1
 555.670898438 570.619140625 l 2
 565.81640625 561.159179688 574.171875 550.479492188 580.561523438 538.563476562 c 0
 592.344726562 516.662109375 599.765625 493.533203125 602.631835938 469.825195312 c 0
41.1806640625 491.219726562 m 0
 39.1689453125 474.693359375 39.1689453125 186.510742188 41.1806640625 169.983398438 c 0
 43.6982421875 149.026367188 50.283203125 128.548828125 60.75 109.078125 c 0
 70.7783203125 90.4169921875 86.708984375 75.171875 108.102539062 63.763671875 c 0
 129.825195312 52.17578125 157.8671875 46.302734375 191.42578125 46.302734375 c 2
 406.715820312 46.302734375 l 2
 440.283203125 46.302734375 468.32421875 52.17578125 490.047851562 63.763671875 c 0
 511.44140625 75.1806640625 527.372070312 90.42578125 537.3828125 109.069335938 c 0
 547.857421875 128.541015625 554.443359375 149.026367188 556.9609375 169.974609375 c 0
 558.963867188 186.501953125 558.963867188 474.719726562 556.9609375 491.219726562 c 0
 554.443359375 512.159179688 547.857421875 532.63671875 537.3828125 552.099609375 c 0
 527.372070312 570.751953125 511.44140625 585.99609375 490.047851562 597.4140625 c 0
 468.32421875 609.000976562 440.283203125 614.874023438 406.715820312 614.874023438 c 2
 191.42578125 614.874023438 l 2
 157.857421875 614.874023438 129.81640625 609.000976562 108.102539062 597.4140625 c 0
 86.708984375 586.004882812 70.7783203125 570.760742188 60.75 552.099609375 c 0
 50.283203125 532.627929688 43.6982421875 512.159179688 41.1806640625 491.219726562 c 0
EndSplineSet
Validated: 524321
EndChar

StartChar: p
Encoding: 112 112 41
Width: 659
VWidth: 0
Flags: W
HStem: -186.625 46.249<47.8984 277.16> 0 46.249<323 523.934> 469.336 46.249<323 344.166> 636.161 22.248<46.5635 501.742>
VStem: 24.3154 22.248<-140.376 636.161> 277.17 84.4258<378.992 512.677> 277.17 45.8301<-140.376 0 189.251 469.336> 345.667 22.248<192.116 468.654> 587.04 45.6533<108.498 556.383>
LayerCount: 2
Fore
SplineSet
361.595703125 192.116210938 m 4xfc80
 357.813476562 180.583007812 347.481445312 166.833984375 319.708007812 166.82421875 c 6
 277.169921875 166.833984375 l 5
 277.169921875 515.567382812 l 5xfa80
 319.708007812 515.584960938 l 6
 347.47265625 515.584960938 357.813476562 501.8359375 361.595703125 490.303710938 c 4xfc80
 364.309570312 482.02734375 367.915039062 461.078125 367.915039062 375.004882812 c 6
 367.915039062 307.415039062 l 6xf980
 367.915039062 221.341796875 364.309570312 200.392578125 361.595703125 192.116210938 c 4xfc80
345.666992188 307.415039062 m 6xfb80
 345.666992188 375.004882812 l 6
 345.666992188 427.314453125 344.287109375 454.813476562 342.782226562 469.344726562 c 6
 323 469.3359375 l 5
 323 189.250976562 l 6
 337.336914062 190.11328125 339.543945312 196.263671875 340.452148438 199.040039062 c 4
 342.400390625 204.984375 345.666992188 226.95703125 345.666992188 307.415039062 c 6xfb80
632.702148438 486.3515625 m 4
 634.85546875 468.59765625 636.9375 397.260742188 637.017578125 394.227539062 c 6
 636.715820312 237.395507812 l 6
 636.145507812 194.741210938 634.829101562 165.561523438 632.693359375 148.056640625 c 4
 629.747070312 123.565429688 622.076171875 99.64453125 609.883789062 76.9697265625 c 4
 597.336914062 53.6357421875 577.705078125 34.7158203125 551.5234375 20.76171875 c 4
 525.698242188 6.986328125 493.063476562 0 454.522460938 0 c 6
 323 0 l 5
 323 -186.625 l 5
 47.8984375 -186.625 l 5
 24.3154296875 -162.633789062 l 5
 24.3154296875 658.409179688 l 5
 430.947265625 658.409179688 l 6
 469.490234375 658.409179688 502.123046875 651.423828125 527.94921875 637.647460938 c 4
 544.047851562 629.059570312 557.6640625 618.576171875 568.681640625 606.366210938 c 6
 568.681640625 606.40234375 l 5
 586.256835938 588.647460938 l 5
 586.221679688 588.65625 l 6
 595.779296875 579.366210938 603.708984375 568.9453125 609.883789062 557.447265625 c 4
 622.076171875 534.771484375 629.747070312 510.8515625 632.702148438 486.3515625 c 4
46.5634765625 636.161132812 m 5
 46.5634765625 -140.375976562 l 5
 277.16015625 -140.375976562 l 5
 277.16015625 46.2490234375 l 5
 430.947265625 46.2490234375 l 6
 465.796875 46.2490234375 494.915039062 52.3447265625 517.484375 64.3857421875 c 4
 539.731445312 76.2490234375 556.28515625 92.0986328125 566.705078125 111.506835938 c 4
 577.588867188 131.725585938 584.415039062 153.00390625 587.040039062 174.736328125 c 4
 589.04296875 191.217773438 590.350585938 220.43359375 590.90234375 261.575195312 c 6
 591.213867188 417.934570312 l 6
 591.196289062 418.317382812 589.077148438 490.92578125 587.040039062 507.682617188 c 4
 584.415039062 529.415039062 577.588867188 550.692382812 566.705078125 570.911132812 c 4
 556.293945312 590.3125 539.731445312 606.153320312 517.484375 618.024414062 c 4
 494.915039062 630.055664062 465.796875 636.161132812 430.947265625 636.161132812 c 6
 46.5634765625 636.161132812 l 5
EndSplineSet
Validated: 524289
EndChar

StartChar: q
Encoding: 113 113 42
Width: 670
VWidth: 0
Flags: W
HStem: -186.625 46.2764<365.072 593.845> 0 46.2773<133.983 341> 166.87 22.248<320.812 341> 636.197 22.248<138.662 593.845>
VStem: 31.2891 22.0879<132.537 549.956> 272.503 46.3203<192.549 469.101> 341 22.248<-140.349 0 189.136 469.15> 593.845 46.3203<-140.349 634.417>
LayerCount: 2
Fore
SplineSet
320.701171875 166.870117188 m 6
 292.92578125 166.870117188 282.594726562 180.619140625 278.8125 192.15234375 c 4
 276.09765625 200.419921875 272.502929688 221.369140625 272.502929688 307.442382812 c 6
 272.502929688 375.041015625 l 6
 272.502929688 461.114257812 276.09765625 482.0625 278.821289062 490.33984375 c 4
 282.603515625 501.872070312 292.943359375 515.62109375 320.701171875 515.62109375 c 6
 363.248046875 515.603515625 l 5
 363.248046875 166.87890625 l 5
 320.701171875 166.870117188 l 6
321.706054688 189.118164062 m 6
 341 189.135742188 l 5
 341 469.150390625 l 6
 327.099609375 468.170898438 324.9453125 462.119140625 324.038085938 459.37890625 c 4
 322.088867188 453.442382812 318.823242188 431.470703125 318.823242188 351.012695312 c 6
 318.823242188 283.4140625 l 6
 318.823242188 231.203125 320.193359375 203.668945312 321.706054688 189.118164062 c 6
616.092773438 658.4453125 m 5
 640.165039062 634.416992188 l 5
 640.165039062 -186.625 l 5
 365.072265625 -186.625 l 5
 341 -162.587890625 l 5
 341 0 l 5
 233.533203125 0 l 6
 194.999023438 0 162.366210938 6.986328125 136.541015625 20.7626953125 c 4
 121.900390625 28.56640625 109.388671875 37.96484375 98.9404296875 48.77734375 c 6
 98.94921875 48.634765625 l 5
 77.796875 69.7431640625 l 5
 77.8134765625 69.7431640625 l 6
 68.2294921875 79.0517578125 60.2919921875 89.482421875 54.1064453125 101.006835938 c 4
 41.9150390625 123.681640625 34.2431640625 147.602539062 31.2890625 172.111328125 c 4
 29.162109375 189.58984375 27.8447265625 218.778320312 27.275390625 261.30859375 c 6
 26.96484375 417.916992188 l 6
 27.052734375 421.298828125 29.1357421875 492.634765625 31.2890625 510.397460938 c 4
 34.2431640625 534.888671875 41.9150390625 558.809570312 54.1064453125 581.484375 c 4
 66.6455078125 604.810546875 86.27734375 623.719726562 112.46875 637.68359375 c 4
 138.284179688 651.459960938 170.926757812 658.4453125 209.4609375 658.4453125 c 6
 616.092773438 658.4453125 l 5
53.376953125 174.790039062 m 4
 55.9931640625 153.03125 62.8369140625 131.76171875 73.7021484375 111.534179688 c 4
 84.1240234375 92.1259765625 100.685546875 76.2763671875 122.924804688 64.4130859375 c 4
 145.501953125 52.380859375 174.610351562 46.27734375 209.4609375 46.27734375 c 6
 363.248046875 46.27734375 l 5
 363.248046875 -140.348632812 l 5
 593.844726562 -140.348632812 l 5
 593.844726562 636.197265625 l 5
 209.451171875 636.197265625 l 6
 174.6015625 636.197265625 145.493164062 630.100585938 122.916015625 618.060546875 c 4
 100.676757812 606.189453125 84.115234375 590.348632812 73.693359375 570.947265625 c 4
 62.818359375 550.728515625 55.984375 529.451171875 53.3681640625 507.727539062 c 4
 51.3388671875 490.961914062 49.2119140625 418.353515625 49.1953125 417.624023438 c 6
 49.5146484375 261.486328125 l 6
 50.0751953125 220.469726562 51.3662109375 191.25390625 53.376953125 174.790039062 c 4
EndSplineSet
Validated: 524289
EndChar

StartChar: r
Encoding: 114 114 43
Width: 648
VWidth: 0
Flags: W
HStem: 0 47.5303<41.1162 261.105> 305.297 47.5215<360.598 580.551> 468.126 47.5225<309 333.982> 635.138 22.96<39.1582 491.889>
VStem: 16.1895 22.9688<47.5303 635.138> 261.105 91.1982<379.027 512.72> 261.105 47.8945<47.5303 468.126> 335.663 22.9688<352.818 467.427> 580.551 47.9229<352.818 546.942>
LayerCount: 2
Fore
SplineSet
624.140625 485.541015625 m 0xfb80
 626.997070312 461.887695312 628.456054688 414.819335938 628.473632812 345.646484375 c 2
 628.473632812 305.296875 l 1
 360.59765625 305.296875 l 1
 335.663085938 329.840820312 l 1
 335.663085938 375.040039062 l 2
 335.663085938 426.041015625 334.345703125 453.416015625 332.895507812 468.125976562 c 2
 309 468.125976562 l 1
 309 0 l 1
 41.1162109375 0 l 1
 16.189453125 24.552734375 l 1
 16.189453125 658.09765625 l 1
 421.104492188 658.09765625 l 2
 459.619140625 658.09765625 492.245117188 651.12109375 518.051757812 637.345703125 c 0
 537.354492188 627.040039062 553.061523438 614.037109375 565.032226562 598.579101562 c 0
 580.409179688 586.806640625 592.627929688 572.790039062 601.33984375 556.575195312 c 0
 613.532226562 533.909179688 621.1953125 510.013671875 624.140625 485.541015625 c 0xfb80
39.158203125 635.137695312 m 1
 39.158203125 47.5302734375 l 1
 261.10546875 47.5302734375 l 1
 261.10546875 515.6484375 l 1xfb80
 310.157226562 515.6484375 l 2
 338.07421875 515.6484375 348.49609375 501.80078125 352.303710938 490.168945312 c 0xfc80
 355.02734375 481.875 358.631835938 460.926757812 358.631835938 375.048828125 c 2
 358.631835938 352.818359375 l 1
 580.55078125 352.818359375 l 1
 580.55078125 370.19921875 l 2
 580.55078125 438.465820312 579.154296875 484.58984375 576.396484375 507.3359375 c 0
 573.796875 528.952148438 566.998046875 550.123046875 556.185546875 570.262695312 c 0
 545.827148438 589.51953125 529.354492188 605.290039062 507.240234375 617.098632812 c 0
 484.778320312 629.060546875 455.802734375 635.137695312 421.104492188 635.137695312 c 2
 39.158203125 635.137695312 l 1
EndSplineSet
Validated: 524289
EndChar

StartChar: s
Encoding: 115 115 44
Width: 581
VWidth: 0
Flags: W
HStem: 0 46.7656<64 462.272> 161.646 22.2031<62.0605 322.582> 230.676 46.8018<112.97 321.566 321.642 331.584> 385.807 22.2393<248.015 438.443> 460.623 46.7842<249.589 454.204> 615.941 22.2295<116.805 454.204>
VStem: 39.8125 22.248<46.7656 161.646> 199.322 46.4453<409.549 456.276> 333.202 22.2568<194.463 229.809> 454.204 46.4365<508.012 613.645>
LayerCount: 2
Fore
SplineSet
567.456054688 224.580078125 m 0
 573.338867188 173.1875 564.538085938 117.745117188 543.926757812 76.248046875 c 0
 532.518554688 53.296875 514.577148438 34.662109375 490.611328125 20.83203125 c 0
 466.663085938 7.01171875 436.104492188 0 399.821289062 0 c 2
 64 0 l 1
 41.2724609375 24.5263671875 l 1
 39.8125 24.5263671875 l 1
 39.8125 183.857421875 l 1
 50.9091796875 183.848632812 l 1
 50.9091796875 183.848632812 296.163085938 184.1953125 297.454101562 184.1953125 c 0
 317.165039062 184.1953125 333.202148438 200.231445312 333.202148438 219.944335938 c 0
 333.202148438 223.290039062 332.587890625 226.45703125 331.734375 229.537109375 c 0
 328.520507812 230.516601562 325.174804688 231.166015625 321.641601562 231.166015625 c 1
 321.686523438 231.166015625 214.877929688 230.67578125 206.12109375 230.67578125 c 0
 169.829101562 230.67578125 139.279296875 237.689453125 115.322265625 251.508789062 c 0
 103.34375 258.423828125 92.8701171875 266.53125 83.9609375 275.778320312 c 2
 83.9609375 275.767578125 l 1
 63.0478515625 297.01953125 l 1
 63.2001953125 297.001953125 l 2
 52.751953125 307.083984375 44.2177734375 318.555664062 37.8193359375 331.451171875 c 0
 17.1904296875 373.000976562 8.3984375 428.452148438 14.3154296875 479.783203125 c 0
 15.5263671875 490.4453125 17.376953125 500.936523438 19.81640625 510.939453125 c 0
 24.4248046875 529.904296875 30.6552734375 547.55078125 37.828125 561.94140625 c 0
 49.2099609375 584.874023438 67.1416015625 603.508789062 91.142578125 617.338867188 c 0
 115.073242188 631.159179688 145.615234375 638.170898438 181.923828125 638.170898438 c 2
 476.443359375 638.170898438 l 1
 500.640625 613.64453125 l 1
 500.640625 461.291015625 l 1
 284.487304688 460.623046875 l 2
 263.12109375 460.623046875 245.767578125 443.26953125 245.767578125 421.946289062 c 0
 245.767578125 417.755859375 246.568359375 413.786132812 247.831054688 410.03125 c 0
 251.755859375 408.6875 255.89453125 407.797851562 260.254882812 407.797851562 c 2
 283.491210938 407.859375 l 2
 311.719726562 407.931640625 356.064453125 408.045898438 360.344726562 408.045898438 c 0
 393.743164062 408.045898438 432.223632812 406.400390625 466.432617188 386.65234375 c 0
 477.779296875 380.111328125 487.71875 372.450195312 496.307617188 363.80859375 c 2
 496.325195312 363.879882812 l 1
 519.338867188 340.403320312 l 2
 520.744140625 339.015625 522.123046875 337.626953125 523.458984375 336.203125 c 2
 524.775390625 334.850585938 l 1
 524.607421875 334.904296875 l 2
 532.313476562 326.38671875 538.818359375 317.016601562 543.926757812 306.719726562 c 0
 551.081054688 292.348632812 557.311523438 274.708984375 561.947265625 255.701171875 c 0
 564.341796875 245.8671875 566.192382812 235.40234375 567.456054688 224.580078125 c 0
62.060546875 161.645507812 m 1
 62.060546875 46.765625 l 1
 375.642578125 46.765625 l 2
 407.97265625 46.765625 434.768554688 52.7724609375 455.299804688 64.625 c 0
 475.4296875 76.2294921875 490.40625 91.71484375 499.8125 110.661132812 c 0
 518.598632812 148.473632812 526.573242188 199.280273438 521.171875 246.551757812 c 0
 520.014648438 256.448242188 518.323242188 266.005859375 516.15234375 274.958984375 c 0
 511.889648438 292.374023438 506.264648438 308.419921875 499.822265625 321.341796875 c 0
 490.388671875 340.296875 475.4296875 355.790039062 455.307617188 367.385742188 c 0
 425.852539062 384.383789062 390.8515625 385.806640625 360.3359375 385.806640625 c 0
 356.045898438 385.806640625 311.74609375 385.692382812 283.544921875 385.62109375 c 2
 260.24609375 385.55859375 l 2
 226.642578125 385.55859375 199.322265625 412.888671875 199.322265625 446.482421875 c 0
 199.322265625 480.077148438 226.65234375 507.407226562 260.24609375 507.407226562 c 2
 454.204101562 508.01171875 l 1
 454.204101562 615.94140625 l 1
 181.94140625 615.94140625 l 2
 149.592773438 615.94140625 122.788085938 609.93359375 102.276367188 598.08984375 c 0
 82.13671875 586.4765625 67.1689453125 570.991210938 57.76171875 552.053710938 c 0
 51.3095703125 539.114257812 45.6767578125 523.078125 41.4404296875 505.6796875 c 0
 39.2158203125 496.59375 37.54296875 487.036132812 36.439453125 477.283203125 c 0
 30.9931640625 430.02734375 38.966796875 379.231445312 57.76171875 341.364257812 c 0
 67.1591796875 322.427734375 82.1279296875 306.942382812 102.2578125 295.337890625 c 0
 122.788085938 283.484375 149.6015625 277.477539062 181.932617188 277.477539062 c 0
 190.698242188 277.477539062 297.41796875 277.966796875 297.41796875 277.966796875 c 2
 329.4375 277.966796875 355.458984375 251.954101562 355.458984375 219.970703125 c 0
 355.458984375 187.987304688 329.4375 161.974609375 297.462890625 161.974609375 c 0
 296.154296875 161.974609375 109.920898438 161.715820312 62.060546875 161.645507812 c 1
EndSplineSet
Validated: 524321
EndChar

StartChar: t
Encoding: 116 116 45
Width: 400
VWidth: 0
Flags: W
HStem: 0 46.0537<105.698 332.652> 150.209 22.2305<295.267 332.652> 486.761 46.0713<292.161 332.652> 638.057 22.248<292.063 332.652> 765.209 22.248<37.8213 245.956>
VStem: 15.7861 22.1328<117.717 765.209> 245.6 46.4639<172.553 486.761 660.305 763.643> 332.652 46.3564<46.0537 148.367 532.832 636.49>
LayerCount: 2
Fore
SplineSet
379 636.490234375 m 1
 379.008789062 636.490234375 l 1
 379.008789062 486.760742188 l 1
 292.161132812 486.760742188 l 2
 292.25 475.663085938 292.34765625 459.734375 292.47265625 440.795898438 c 0
 292.979492188 364.619140625 293.967773438 216.375976562 295.266601562 172.439453125 c 0
 305.171875 172.4140625 343.829101562 172.235351562 343.829101562 172.235351562 c 1
 354.900390625 172.181640625 l 1
 379 148.3671875 l 1
 379 0 l 1
 198.763671875 0 l 2
 164.439453125 0 135.375 6.2294921875 112.342773438 18.5185546875 c 0
 100.231445312 24.98046875 89.712890625 32.6689453125 80.7958984375 41.4521484375 c 2
 80.8046875 41.380859375 l 1
 58.236328125 63.7275390625 l 1
 58.28125 63.7177734375 l 2
 49.2919921875 72.2607421875 41.8701171875 81.890625 36.12109375 92.5703125 c 0
 25.2373046875 112.7890625 18.3935546875 134.111328125 15.7861328125 155.922851562 c 0
 14.87890625 163.380859375 15.4033203125 632.681640625 15.5908203125 776.350585938 c 2
 15.599609375 787.45703125 l 1
 268.266601562 787.45703125 l 1
 292.365234375 763.642578125 l 1
 292.063476562 660.3046875 l 1
 354.900390625 660.3046875 l 1
 379 636.490234375 l 1
332.65234375 46.0537109375 m 1
 332.65234375 150.041015625 l 2
 317.977539062 150.103515625 293.797851562 150.208984375 292.952148438 150.208984375 c 0
 264.190429688 150.208984375 254.1875 164.181640625 250.868164062 175.892578125 c 0
 250.467773438 177.317382812 250.09375 179.0078125 249.747070312 180.9296875 c 0
 248.056640625 194.794921875 246.998046875 334.521484375 246.134765625 464.467773438 c 0
 245.947265625 491.28125 245.814453125 512.052734375 245.715820312 521.591796875 c 2
 245.599609375 532.83203125 l 1
 332.65234375 532.83203125 l 1
 332.65234375 638.056640625 l 1
 245.599609375 638.056640625 l 1
 245.956054688 765.208984375 l 1
 37.8212890625 765.208984375 l 1
 37.5546875 554.07421875 37.2509765625 170.169921875 37.9189453125 158.103515625 c 0
 40.162109375 139.522460938 46.16015625 120.859375 55.716796875 103.09765625 c 0
 64.830078125 86.1533203125 79.30078125 72.3056640625 98.7275390625 61.947265625 c 0
 118.501953125 51.40234375 144.051757812 46.0537109375 174.673828125 46.0537109375 c 2
 332.65234375 46.0537109375 l 1
EndSplineSet
Validated: 524321
EndChar

StartChar: u
Encoding: 117 117 46
Width: 629
VWidth: 0
Flags: W
HStem: 0 46.6494<172.525 561.323> 162.4 22.2393<300.372 324.088> 615.817 22.2471<36.9102 251.879 346.345 561.323>
VStem: 14.6611 22.249<139.429 615.817> 251.879 46.6855<187.473 613.663> 324.088 22.2568<184.64 615.817> 561.323 46.6768<46.6494 613.663>
LayerCount: 2
Fore
SplineSet
583.5625 638.064453125 m 5
 608 613.663085938 l 5
 608 0 l 5
 215.79296875 0 l 6
 200.495117188 0 186.203125 1.208984375 172.880859375 3.4697265625 c 6
 172.525390625 3.4609375 l 5
 172.462890625 3.5498046875 l 6
 153.490234375 6.806640625 136.537109375 12.2978515625 121.896484375 20.09375 c 4
 108.032226562 27.4970703125 96.134765625 36.3701171875 86.1484375 46.55078125 c 6
 86.17578125 46.3994140625 l 5
 65.494140625 67.134765625 l 5
 65.5654296875 67.1435546875 l 6
 55.5361328125 76.541015625 47.259765625 87.158203125 40.9140625 98.9677734375 c 4
 29.123046875 120.903320312 21.69140625 144.059570312 18.8349609375 167.776367188 c 4
 16.0673828125 190.69140625 14.6611328125 236.282226562 14.6611328125 303.284179688 c 6
 14.6611328125 638.064453125 l 5
 274.126953125 638.064453125 l 5
 298.564453125 613.663085938 l 5
 298.564453125 274.184570312 l 6
 298.564453125 225.443359375 299.801757812 199.012695312 301.189453125 184.639648438 c 6
 324.087890625 184.639648438 l 5
 324.087890625 638.064453125 l 5
 583.5625 638.064453125 l 5
36.91015625 303.284179688 m 6
 36.91015625 237.1640625 38.25390625 192.470703125 40.931640625 170.455078125 c 4
 43.451171875 149.498046875 50.044921875 128.993164062 60.51953125 109.50390625 c 4
 70.5576171875 90.8330078125 86.5048828125 75.5625 107.92578125 64.126953125 c 4
 129.684570312 52.53125 157.760742188 46.6494140625 191.35546875 46.6494140625 c 6
 561.323242188 46.6494140625 l 5
 561.323242188 615.817382812 l 5
 346.344726562 615.817382812 l 5
 346.344726562 162.400390625 l 5
 298.83203125 162.400390625 l 6
 271.778320312 162.400390625 261.6953125 175.821289062 258.001953125 187.087890625 c 4
 255.368164062 195.114257812 251.87890625 215.405273438 251.87890625 298.594726562 c 6
 251.87890625 615.817382812 l 5
 36.91015625 615.817382812 l 5
 36.91015625 303.284179688 l 6
EndSplineSet
Validated: 524289
EndChar

StartChar: v
Encoding: 118 118 47
Width: 644
VWidth: 0
Flags: W
HStem: 0 46.2842<223.176 403.109> 615.451 22.248<50.9668 238.411 380.55 567.691>
LayerCount: 2
Fore
SplineSet
597.291015625 637.69921875 m 1
 621.442382812 613.663085938 l 1
 444 0 l 1
 223.17578125 0 l 1
 199.014648438 24.0361328125 l 1
 21.3681640625 637.69921875 l 1
 255.212890625 637.69921875 l 1
 279.375 613.663085938 l 1
 318.1484375 477.807617188 l 1
 363.775390625 637.69921875 l 1
 597.291015625 637.69921875 l 1
50.966796875 615.451171875 m 1
 215.736328125 46.2841796875 l 1
 403.109375 46.2841796875 l 1
 567.69140625 615.451171875 l 1
 380.549804688 615.451171875 l 1
 309.48046875 366.43359375 l 1
 238.411132812 615.451171875 l 1
 50.966796875 615.451171875 l 1
EndSplineSet
Validated: 524289
EndChar

StartChar: w
Encoding: 119 119 48
Width: 884
VWidth: 0
Flags: W
HStem: 0 46.0967<173.745 361.821 508.409 695.88> 615.39 22.2559<48.7109 237.553 382.245 487.727 626.119 814.97>
LayerCount: 2
Fore
SplineSet
842.334960938 637.63671875 m 1
 866.379882812 613.788085938 l 1
 738 0 l 1
 508.409179688 0 l 1
 484.372070312 23.857421875 l 1
 448.79296875 177.787109375 l 1
 403.11328125 0 l 1
 173.745117188 0 l 1
 149.708007812 23.857421875 l 1
 21.328125 637.645507812 l 1
 255.938476562 637.6640625 l 1
 279.974609375 613.805664062 l 1
 313.186523438 440.58203125 l 1
 365.104492188 637.387695312 l 1
 505.25 637.387695312 l 1
 529.286132812 613.530273438 l 1
 570.356445312 442.752929688 l 1
 607.724609375 637.654296875 l 1
 842.334960938 637.63671875 l 1
435.640625 333.444335938 m 1
 502.063476562 46.0966796875 l 1
 695.879882812 46.0966796875 l 1
 814.969726562 615.389648438 l 1
 626.119140625 615.40625 l 1
 564.705078125 295.061523438 l 1
 487.7265625 615.139648438 l 1
 382.245117188 615.139648438 l 1
 298.485351562 297.615234375 l 1
 237.552734375 615.40625 l 1
 48.7109375 615.389648438 l 1
 167.782226562 46.0966796875 l 1
 361.821289062 46.0966796875 l 1
 435.640625 333.444335938 l 1
EndSplineSet
Validated: 524289
EndChar

StartChar: x
Encoding: 120 120 49
Width: 658
VWidth: 0
Flags: W
HStem: 0 46.2051<52.7861 243.755 395.381 576.8> 612.4 22.248<52.7861 243.755 385.787 576.8>
LayerCount: 2
Fore
SplineSet
635 610.701171875 m 5
 498.193359375 305.350585938 l 5
 635 0 l 5
 395.380859375 0 l 5
 371.521484375 23.94921875 l 5
 332.186523438 109.692382812 l 5
 281.879882812 0 l 5
 42.2412109375 0 l 5
 18.3916015625 23.94921875 l 5
 155.6796875 329.298828125 l 5
 18.3916015625 634.6484375 l 5
 258.020507812 634.6484375 l 5
 281.879882812 610.701171875 l 5
 321.205078125 524.95703125 l 5
 371.521484375 634.6484375 l 5
 611.151367188 634.6484375 l 5
 635 610.701171875 l 5
314.771484375 201.033203125 m 5
 385.795898438 46.1962890625 l 5
 576.799804688 46.1962890625 l 5
 449.958984375 329.298828125 l 5
 576.799804688 612.400390625 l 5
 385.787109375 612.400390625 l 5
 314.771484375 457.571289062 l 5
 243.754882812 612.400390625 l 5
 52.7861328125 612.400390625 l 5
 180.072265625 329.298828125 l 5
 52.7861328125 46.205078125 l 5
 243.754882812 46.205078125 l 5
 314.771484375 201.033203125 l 5
EndSplineSet
Validated: 8912897
EndChar

StartChar: y
Encoding: 121 121 50
Width: 631
VWidth: 0
Flags: W
HStem: -204.687 46.4277<61.0488 499.678> -42.6484 22.2744<58.8584 320.345> 3.2627 46.4268<119.032 322.703> 153.837 22.2393<301.94 325.186> 618.287 22.2578<38.5596 253.592 347.434 562.403>
VStem: 16.2754 22.2842<142.107 618.287> 36.6104 22.248<-158.259 -42.6484> 253.627 46.6855<178.819 616.339> 325.186 22.248<-10.9317 3.2627 176.184 618.287> 562.421 46.6768<-92.737 616.339>
LayerCount: 2
Fore
SplineSet
584.651367188 640.536132812 m 1xfdc0
 609.09765625 616.338867188 l 1
 609.09765625 14.3857421875 l 2
 608.991210938 11.5205078125 606.766601562 -46.2177734375 604.907226562 -61.443359375 c 0
 602.032226562 -85.1865234375 594.610351562 -108.307617188 582.844726562 -130.190429688 c 0
 570.706054688 -152.786132812 551.70703125 -171.08203125 526.361328125 -184.590820312 c 0
 501.380859375 -197.922851562 469.825195312 -204.686523438 432.5546875 -204.686523438 c 2
 61.048828125 -204.686523438 l 1
 36.6103515625 -180.470703125 l 1
 36.6103515625 -20.3740234375 l 1xfbc0
 300.749023438 -20.3740234375 l 2
 317.319335938 -20.3740234375 319.462890625 -13.8154296875 320.389648438 -11.0205078125 c 0
 321.002929688 -9.1611328125 321.857421875 -5.1123046875 322.703125 3.2626953125 c 2
 217.247070312 3.2626953125 l 2
 179.986328125 3.2626953125 148.420898438 10.025390625 123.440429688 23.357421875 c 0
 109.708984375 30.671875 97.9091796875 39.4462890625 87.9775390625 49.51171875 c 2
 87.9775390625 49.3876953125 l 1
 66.05859375 71.1279296875 l 2
 65.80078125 71.3681640625 65.5693359375 71.6162109375 65.3193359375 71.857421875 c 2
 62.4365234375 74.72265625 l 1
 62.595703125 74.6875 l 2
 54.6318359375 82.9365234375 47.8857421875 91.99609375 42.5380859375 101.936523438 c 0
 30.763671875 123.8203125 23.333984375 146.958007812 20.4765625 170.701171875 c 0
 17.6826171875 193.572265625 16.3291015625 611.604492188 16.275390625 629.385742188 c 2
 16.2412109375 640.544921875 l 1
 275.831054688 640.544921875 l 1
 300.267578125 616.338867188 l 1
 300.3125 236.9296875 l 2
 300.686523438 205.87109375 301.692382812 187.252929688 302.778320312 176.076171875 c 0
 307.28125 176.09375 317.256835938 176.147460938 325.185546875 176.18359375 c 2
 325.185546875 640.536132812 l 1
 584.651367188 640.536132812 l 1xfdc0
58.8583984375 -42.6484375 m 1
 58.8583984375 -158.258789062 l 1xfbc0
 408.118164062 -158.258789062 l 2
 441.694335938 -158.258789062 469.735351562 -152.385742188 491.458984375 -140.807617188 c 0
 512.852539062 -129.389648438 528.791992188 -114.14453125 538.811523438 -95.474609375 c 0
 549.258789062 -76.0576171875 555.844726562 -55.5615234375 558.389648438 -34.5869140625 c 0
 560.133789062 -20.2587890625 562.39453125 38.4052734375 562.420898438 38.9921875 c 2
 562.403320312 618.287109375 l 1
 347.43359375 618.287109375 l 1
 347.43359375 154.05078125 l 1
 336.364257812 153.997070312 l 1
 336.364257812 153.997070312 301.603515625 153.836914062 300.383789062 153.836914062 c 0
 273.357421875 153.836914062 263.291992188 167.249023438 259.598632812 178.497070312 c 0
 257.3828125 185.215820312 254.356445312 201.091796875 253.626953125 261.001953125 c 2
 253.591796875 618.287109375 l 1
 38.5595703125 618.287109375 l 1xfdc0
 38.9873046875 490.245117188 40.4375 190.759765625 42.5556640625 173.361328125 c 0
 45.0830078125 152.377929688 51.6767578125 131.909179688 62.1337890625 112.473632812 c 0
 72.1630859375 93.8037109375 88.0927734375 78.55859375 109.495117188 67.140625 c 0
 131.21875 55.5625 159.259765625 49.689453125 192.828125 49.689453125 c 2
 347.30859375 49.689453125 l 1
 346.961914062 38.2177734375 l 2
 345.788085938 -0.90234375 343.313476562 -12.5869140625 341.551757812 -17.9716796875 c 0
 337.859375 -29.2294921875 327.79296875 -42.6484375 300.766601562 -42.6484375 c 2
 58.8583984375 -42.6484375 l 1
EndSplineSet
Validated: 524289
EndChar

StartChar: z
Encoding: 122 122 51
Width: 632
VWidth: 0
Flags: W
HStem: 0 46.4717<46.5752 561.635> 164.11 22.248<414.888 561.635> 448.699 46.4707<39.6152 215.002> 612.81 22.2568<37.7471 555.245>
VStem: 15.499 22.248<495.17 612.81> 561.635 46.3652<46.4717 162.126>
LayerCount: 2
Fore
SplineSet
414.887695312 186.358398438 m 1
 583.892578125 186.358398438 l 1
 608 162.125976562 l 1
 608 0 l 1
 35.3271484375 0 l 1
 11.21875 24.232421875 l 1
 215.001953125 448.69921875 l 1
 39.615234375 448.69921875 l 1
 15.4990234375 472.930664062 l 1
 15.4990234375 635.06640625 l 1
 590.282226562 634.958984375 l 1
 614.389648438 610.727539062 l 1
 414.887695312 186.358398438 l 1
261.999023438 495.169921875 m 1
 46.5751953125 46.4716796875 l 1
 561.634765625 46.4716796875 l 1
 561.634765625 164.110351562 l 1
 344.333984375 164.110351562 l 1
 555.245117188 612.702148438 l 1
 37.7470703125 612.809570312 l 1
 37.7470703125 495.169921875 l 1
 261.999023438 495.169921875 l 1
EndSplineSet
Validated: 524289
EndChar

StartChar: zero
Encoding: 48 48 52
Width: 658
VWidth: 0
Flags: HMW
VStem: -712.152 265.708<171.642 219.83 409.719 625.761> -365.556 265.698<171.996 388.039 577.919 642.765>
LayerCount: 2
Fore
SplineSet
270.694335938 227.098632812 m 6
 270.534179688 229.7421875 l 5
 366.600585938 454.510742188 l 5
 366.600585938 310.859375 l 6
 366.600585938 223.895507812 362.952148438 202.733398438 360.220703125 194.385742188 c 4
 356.393554688 182.763671875 345.990234375 168.92578125 318.001953125 168.92578125 c 6
 317.397460938 168.92578125 l 6
 289.409179688 168.92578125 278.997070312 182.754882812 275.1796875 194.385742188 c 4
 273.150390625 200.543945312 271.7265625 210.938476562 270.694335938 227.098632812 c 6
318.838867188 191.137695312 m 4
 335.755859375 191.173828125 338.079101562 198.275390625 339.075195312 201.318359375 c 4
 340.588867188 205.892578125 342.866210938 220.024414062 343.85546875 262.58984375 c 6
 317.904296875 201.87890625 l 6
 318.198242188 197.536132812 318.52734375 194.145507812 318.838867188 191.137695312 c 4
364.713867188 593.490234375 m 6
 364.892578125 590.837890625 l 5
 268.81640625 366.078125 l 5
 268.81640625 509.739257812 l 6
 268.81640625 596.7109375 272.447265625 617.864257812 275.188476562 626.211914062 c 4
 279.005859375 637.825195312 289.41796875 651.681640625 317.40625 651.681640625 c 6
 318.010742188 651.681640625 l 6
 345.990234375 651.681640625 356.40234375 637.833984375 360.229492188 626.211914062 c 4
 362.25 620.026367188 363.672851562 609.6328125 364.713867188 593.490234375 c 6
341.3984375 605.458984375 m 5
 341.3984375 605.458984375 l 5
 341.3984375 605.458984375 l 5
 341.3984375 605.458984375 l 5
316.391601562 533.999023438 m 6
 342.32421875 594.708007812 l 6
 342.021484375 598.91796875 341.709960938 602.424804688 341.3984375 605.387695312 c 4
 324.471679688 605.147460938 322.122070312 598.259765625 321.134765625 595.26953125 c 4
 319.639648438 590.686523438 317.379882812 576.483398438 316.391601562 533.999023438 c 6
639.49609375 509.1875 m 5
 639.532226562 480.807617188 l 5
 639.442382812 263.36328125 l 6
 639.095703125 208.7578125 637.653320312 170.668945312 635.170898438 150.077148438 c 4
 632.180664062 125.364257812 624.4296875 101.202148438 612.12109375 78.2783203125 c 4
 599.466796875 54.7392578125 579.657226562 35.6416015625 553.200195312 21.544921875 c 4
 527.125 7.626953125 494.153320312 0.5703125 455.237304688 0.5703125 c 6
 229.810546875 0.5703125 l 6
 190.885742188 0.5703125 157.922851562 7.626953125 131.84765625 21.544921875 c 4
 117.938476562 28.9501953125 105.916015625 37.77734375 95.7529296875 47.8779296875 c 6
 95.7529296875 47.8330078125 l 5
 75.1337890625 67.8388671875 l 5
 75.2587890625 67.8388671875 l 6
 64.1611328125 77.95703125 55.021484375 89.4462890625 48.107421875 102.32421875 c 4
 35.798828125 125.23046875 28.0478515625 149.391601562 25.06640625 174.122070312 c 4
 22.5751953125 194.698242188 21.1328125 232.77734375 20.7861328125 287.409179688 c 5
 20.732421875 287.409179688 l 5
 20.6962890625 315.7890625 l 5
 20.7861328125 533.206054688 l 6
 21.1328125 587.821289062 22.5751953125 625.918945312 25.06640625 646.501953125 c 4
 28.0478515625 671.233398438 35.798828125 695.39453125 48.107421875 718.291992188 c 4
 60.779296875 741.866210938 80.587890625 760.955078125 107.028320312 775.051757812 c 4
 133.12109375 788.952148438 166.075195312 796 205 796 c 6
 430.41796875 796 l 6
 469.333007812 796 502.305664062 788.952148438 528.380859375 775.04296875 c 4
 542.619140625 767.4609375 554.854492188 758.383789062 565.16015625 747.98828125 c 6
 565.125 748.078125 l 5
 587.594726562 726.41796875 l 6
 587.73828125 726.265625 587.889648438 726.124023438 588.048828125 725.981445312 c 6
 588.939453125 725.118164062 l 5
 588.885742188 725.090820312 l 6
 598.229492188 715.880859375 606.016601562 705.6015625 612.12109375 694.2734375 c 4
 624.4296875 671.375976562 632.180664062 647.213867188 635.170898438 622.474609375 c 4
 637.653320312 601.899414062 639.095703125 563.811523438 639.442382812 509.1875 c 5
 639.49609375 509.1875 l 5
47.1455078125 176.774414062 m 4
 49.796875 154.810546875 56.703125 133.29296875 67.7119140625 112.825195312 c 4
 78.2490234375 93.2021484375 95.005859375 77.18359375 117.501953125 65.1689453125 c 4
 140.3203125 52.9951171875 169.759765625 46.828125 205 46.828125 c 6
 430.41796875 46.828125 l 6
 465.649414062 46.828125 495.096679688 53.00390625 517.9140625 65.1689453125 c 4
 540.4296875 77.1748046875 557.16015625 93.2197265625 567.71484375 112.825195312 c 4
 578.705078125 133.284179688 585.620117188 154.801757812 588.263671875 176.756835938 c 4
 590.817382812 197.883789062 592.232421875 238.846679688 592.454101562 298.551757812 c 6
 592.489257812 315.780273438 l 5
 592.454101562 522.028320312 l 6
 592.22265625 581.743164062 590.817382812 622.723632812 588.263671875 643.823242188 c 4
 585.620117188 665.813476562 578.696289062 687.314453125 567.71484375 707.764648438 c 4
 557.16015625 727.396484375 540.403320312 743.423828125 517.9140625 755.419921875 c 4
 495.096679688 767.59375 465.649414062 773.760742188 430.41796875 773.760742188 c 6
 205 773.760742188 l 6
 169.768554688 773.760742188 140.3203125 767.5859375 117.501953125 755.419921875 c 4
 94.99609375 743.432617188 78.2578125 727.396484375 67.7119140625 707.764648438 c 4
 56.703125 687.314453125 49.796875 665.813476562 47.1455078125 643.83203125 c 4
 44.591796875 622.71484375 43.1767578125 581.743164062 42.9716796875 522.028320312 c 6
 42.935546875 504.826171875 l 5
 42.935546875 303.712890625 l 5
 42.9716796875 298.551757812 l 6
 43.185546875 238.846679688 44.591796875 197.874023438 47.1455078125 176.774414062 c 4
EndSplineSet
Validated: 524289
EndChar

StartChar: one
Encoding: 49 49 53
Width: 541
VWidth: 0
Flags: W
HStem: 0 47.0859<39.3057 477.968> 173.936 22.248<36.7793 119.337 420.193 477.968> 596.747 47.0947<39.3057 119.337> 770.682 22.248<36.7793 373.161>
VStem: 14.5312 22.248<47.0859 173.936 643.842 770.682> 119.337 22.248<196.184 596.747> 373.161 47.0322<196.184 768.083> 477.968 47.0322<47.0859 171.328>
LayerCount: 2
Fore
SplineSet
500.215820312 196.18359375 m 1
 525 171.328125 l 1
 525 0 l 1
 39.3056640625 0 l 1
 14.53125 24.837890625 l 1
 14.53125 196.18359375 l 1
 119.336914062 196.18359375 l 1
 119.336914062 596.747070312 l 1
 39.3056640625 596.747070312 l 1
 14.53125 621.59375 l 1
 14.53125 792.9296875 l 1
 395.409179688 792.9296875 l 1
 420.193359375 768.083007812 l 1
 420.193359375 196.18359375 l 1
 500.215820312 196.18359375 l 1
36.779296875 173.935546875 m 1
 36.779296875 47.0859375 l 1
 477.967773438 47.0859375 l 1
 477.967773438 173.935546875 l 1
 373.161132812 173.935546875 l 1
 373.161132812 770.681640625 l 1
 36.779296875 770.681640625 l 1
 36.779296875 643.841796875 l 1
 141.584960938 643.841796875 l 1
 141.584960938 173.935546875 l 1
 36.779296875 173.935546875 l 1
EndSplineSet
Validated: 524289
EndChar

StartChar: two
Encoding: 50 50 54
Width: 668
VWidth: 0
Flags: W
HStem: 0 46.498<46.7607 604.029> 173.347 22.249<319.191 604.029> 255.559 46.4805<330.158 520.156> 465.429 22.2217<167.836 305.447 305.452 336.092> 525.445 46.4893<63.0645 275.941> 604.854 45.5283<327.227 356.125> 771.758 22.2393<149.83 514.401>
VStem: 22.0107 22.2305<46.498 331.838> 38.502 22.4346<571.935 676.474> 275.941 46.6855<195.596 247.168 571.935 595.327> 357.806 22.2393<508.473 603.439> 604.029 46.9707<46.498 171.363 399.888 683.175>
LayerCount: 2
Fore
SplineSet
626.268554688 195.595703125 m 1xfef0
 651 171.36328125 l 1
 651 0 l 1
 46.7607421875 0 l 1
 22.0283203125 24.2314453125 l 1
 22.0107421875 35.3388671875 l 2xff70
 22.0029296875 44.6201171875 21.7265625 262.837890625 23.4443359375 280.422851562 c 0
 24.716796875 293.736328125 26.763671875 307.040039062 29.513671875 319.944335938 c 0
 34.6220703125 343.866210938 41.669921875 366.318359375 49.9013671875 384.909179688 c 0
 63.2685546875 415.0859375 84.439453125 439.65625 112.818359375 457.962890625 c 0
 152.874023438 483.788085938 239.900390625 487.650390625 288.213867188 487.650390625 c 0
 298.946289062 487.650390625 305.452148438 487.436523438 305.452148438 487.436523438 c 2
 334.311523438 487.6328125 357.9921875 511.615234375 357.805664062 540.912109375 c 0
 357.165039062 563.862304688 356.017578125 589.127929688 354.797851562 604.74609375 c 2
 346.0234375 604.853515625 l 2
 330.19140625 604.6484375 328.091796875 598.276367188 327.18359375 595.517578125 c 0
 325.893554688 591.583984375 323.580078125 578.64453125 322.626953125 536.3203125 c 2
 322.38671875 525.4453125 l 1
 63.064453125 525.4453125 l 1
 38.3232421875 549.677734375 l 1
 38.501953125 560.970703125 l 2
 39.09765625 600.670898438 40.4248046875 629.263671875 42.453125 645.966796875 c 0
 45.3984375 670.466796875 53.0791015625 694.37890625 65.2705078125 717.045898438 c 0
 77.7822265625 740.361328125 97.4140625 759.263671875 123.60546875 773.234375 c 0
 149.448242188 787.01171875 182.073242188 793.997070312 220.59765625 793.997070312 c 2
 443.638671875 793.997070312 l 2
 482.155273438 793.997070312 514.779296875 787.01171875 540.623046875 773.245117188 c 0
 554.923828125 765.608398438 567.213867188 756.442382812 577.51953125 745.94140625 c 2
 577.51953125 746.06640625 l 1
 599.108398438 724.903320312 l 2
 599.553710938 724.4765625 599.971679688 724.040039062 600.408203125 723.603515625 c 2
 602.650390625 721.423828125 l 1
 602.490234375 721.450195312 l 2
 610.935546875 712.809570312 618.063476562 703.287109375 623.678710938 692.8125 c 0
 635.862304688 670.137695312 643.541992188 646.225585938 646.49609375 621.7265625 c 0
 648.845703125 602.254882812 650.252929688 566.96875 650.6875 516.857421875 c 0
 652.984375 459.306640625 643.088867188 402.19140625 622.7890625 356.38671875 c 0
 609.405273438 326.2265625 588.2421875 301.657226562 559.888671875 283.341796875 c 0
 536.181640625 268.043945312 506.939453125 258.958007812 472.997070312 256.296875 c 2
 371.912109375 255.55859375 l 2
 342.837890625 255.37109375 319.166015625 231.56640625 319.1484375 202.483398438 c 2
 319.19140625 195.595703125 l 1
 626.268554688 195.595703125 l 1xfef0
45.5771484375 278.295898438 m 0
 44.3037109375 265.330078125 44.1796875 115.89453125 44.2412109375 46.498046875 c 1xff70
 604.029296875 46.498046875 l 1
 604.029296875 173.346679688 l 1
 272.5078125 173.346679688 l 1
 272.16796875 226.654296875 l 2
 272.204101562 267.990234375 305.790039062 301.78125 347.029296875 302.0390625 c 2
 447.33203125 302.7421875 l 2
 476.779296875 305.07421875 502.516601562 313.00390625 523.08203125 326.271484375 c 0
 547.750976562 342.192382812 566.13671875 363.505859375 577.732421875 389.633789062 c 0
 596.678710938 432.39453125 605.907226562 485.986328125 603.717773438 540.555664062 c 0
 603.299804688 590.1875 601.947265625 624.635742188 599.6875 643.296875 c 0
 597.080078125 665.029296875 590.236328125 686.307617188 579.370117188 706.518554688 c 0
 568.95703125 725.909179688 552.396484375 741.758789062 530.147460938 753.622070312 c 0
 507.5703125 765.653320312 478.453125 771.7578125 443.638671875 771.7578125 c 2
 220.606445312 771.7578125 l 2
 185.775390625 771.7578125 156.666015625 765.662109375 134.079101562 753.61328125 c 0
 111.831054688 741.75 95.26953125 725.909179688 84.8671875 706.52734375 c 0
 73.9833984375 686.307617188 67.1484375 665.0390625 64.5322265625 643.305664062 c 0
 62.787109375 628.952148438 61.5859375 604.977539062 60.9365234375 571.934570312 c 2xfef0
 275.94140625 571.934570312 l 1
 277.143554688 609.748046875 279.537109375 621.298828125 281.30859375 626.692382812 c 0
 284.938476562 637.771484375 294.754882812 650.951171875 320.865234375 651.342773438 c 2
 320.865234375 651.360351562 l 1
 321.0078125 651.360351562 l 1
 321.0078125 651.360351562 322.048828125 651.369140625 322.102539062 651.369140625 c 1
 322.102539062 651.360351562 l 1
 343.53125 650.381835938 l 2
 363.065429688 647.231445312 371.06640625 635.76953125 374.278320312 625.926757812 c 0
 377.615234375 615.791015625 379.422851562 563.3828125 380.044921875 541.321289062 c 0
 380.302734375 499.521484375 346.69921875 465.482421875 305.149414062 465.223632812 c 0
 304.624023438 465.232421875 298.404296875 465.428710938 288.205078125 465.428710938 c 0
 259.388671875 465.428710938 162.477539062 463.541992188 124.859375 439.283203125 c 0
 100.19140625 423.379882812 81.8056640625 402.06640625 70.2265625 375.919921875 c 0
 62.6103515625 358.708984375 56.05078125 337.760742188 51.263671875 315.325195312 c 0
 48.69140625 303.249023438 46.7783203125 290.790039062 45.5771484375 278.295898438 c 0
EndSplineSet
Validated: 524325
EndChar

StartChar: three
Encoding: 51 51 55
Width: 665
VWidth: 0
Flags: W
HStem: 0 46.418<131.313 523.405> 166.833 22.2842<309.584 329.714> 246.242 22.2568<47.1094 262.124> 301.809 46.4541<259.721 342.869> 468.66 22.2568<257.772 329.714> 525.419 46.4277<48.6943 262.124> 604.827 45.4482<312.866 342.965> 771.661 22.2656<135.994 500.584>
VStem: 24.6738 22.4355<141.718 246.242 571.847 676.377> 235.533 22.2393<348.263 468.66> 262.124 46.1416<191.751 244.302 571.847 604.789> 343.988 22.2305<195.971 300.916 493.624 604.279> 585.859 46.2861<108.478 383.03 385.009 411.402 411.486 691.706>
LayerCount: 2
Fore
SplineSet
612.059570312 384.01953125 m 4
 622.666992188 362.919921875 629.413085938 340.795898438 632.145507812 318.192382812 c 4
 633.834960938 304.130859375 636.203125 240.2890625 636.086914062 232.955078125 c 4
 636.203125 225.952148438 633.834960938 162.108398438 632.145507812 148.029296875 c 4
 629.198242188 123.5390625 621.51953125 99.626953125 609.3359375 76.9609375 c 4
 596.787109375 53.6181640625 577.15625 34.70703125 550.983398438 20.7529296875 c 4
 525.176757812 6.986328125 492.533203125 0 454 0 c 6
 230.967773438 0 l 6
 192.43359375 0 159.791992188 6.986328125 133.974609375 20.7529296875 c 4
 118.161132812 29.1982421875 104.776367188 39.451171875 93.8662109375 51.3935546875 c 6
 93.857421875 51.322265625 l 5
 75.2216796875 69.796875 l 5
 75.23046875 69.796875 l 6
 65.6025390625 79.123046875 57.6376953125 89.5888671875 51.4345703125 101.1484375 c 4
 39.2431640625 123.815429688 31.5712890625 147.727539062 28.6171875 172.217773438 c 4
 26.5966796875 188.921875 25.271484375 217.514648438 24.673828125 257.21484375 c 6
 24.505859375 268.499023438 l 5
 283.837890625 268.499023438 l 5
 308.03515625 244.301757812 l 5
 308.274414062 233.436523438 l 6
 308.755859375 211.953125 309.583007812 198.10546875 310.456054688 189.1171875 c 6
 318.598632812 189.2421875 l 6
 336.067382812 189.2421875 338.345703125 196.2109375 339.32421875 199.201171875 c 4
 340.615234375 203.16015625 342.955078125 215.984375 343.98828125 257.59765625 c 4
 343.444335938 278.758789062 342.581054688 292.375 341.673828125 301.185546875 c 6
 259.720703125 301.80859375 l 5
 235.533203125 326.005859375 l 5
 235.533203125 490.916992188 l 5
 318.598632812 491.068359375 l 6
 336.067382812 491.068359375 338.345703125 498.044921875 339.32421875 501.026367188 c 4
 340.6328125 505.03125 342.981445312 518.033203125 344.005859375 560.2421875 c 4
 343.48046875 581.89453125 342.58984375 595.767578125 341.673828125 604.693359375 c 6
 331.653320312 604.827148438 l 6
 315.8125 604.61328125 313.73046875 598.241210938 312.822265625 595.482421875 c 4
 311.532226562 591.549804688 309.21875 578.619140625 308.265625 536.294921875 c 6
 308.025390625 525.418945312 l 5
 48.6943359375 525.418945312 l 5
 24.505859375 549.616210938 l 5
 24.673828125 560.909179688 l 6
 25.271484375 600.609375 26.5966796875 629.202148438 28.6171875 645.897460938 c 4
 31.5712890625 670.397460938 39.251953125 694.30859375 51.443359375 716.975585938 c 4
 63.96484375 740.291015625 83.587890625 759.193359375 109.786132812 773.165039062 c 4
 135.612304688 786.940429688 168.236328125 793.926757812 206.779296875 793.926757812 c 6
 429.8125 793.926757812 l 6
 468.344726562 793.926757812 500.98828125 786.940429688 526.794921875 773.165039062 c 4
 541.737304688 765.200195312 554.454101562 755.5703125 565.02734375 744.4921875 c 6
 564.928710938 744.713867188 l 5
 583.493164062 726.061523438 l 5
 583.39453125 726.061523438 l 6
 593.966796875 716.254882812 602.6796875 705.157226562 609.3359375 692.76953125 c 4
 621.51953125 670.09375 629.198242188 646.181640625 632.145507812 621.682617188 c 4
 633.942382812 606.7578125 636.184570312 541.553710938 636.095703125 535.608398438 c 4
 636.184570312 529.993164062 633.942382812 464.770507812 632.145507812 449.846679688 c 4
 629.413085938 427.234375 622.658203125 405.120117188 612.059570312 384.01953125 c 4
50.7041015625 174.887695312 m 4
 53.330078125 153.147460938 60.1640625 131.88671875 71.0390625 111.66796875 c 4
 81.4521484375 92.2666015625 98.013671875 76.41796875 120.26171875 64.5458984375 c 4
 142.821289062 52.5234375 171.9296875 46.41796875 206.779296875 46.41796875 c 6
 429.793945312 46.41796875 l 6
 464.643554688 46.41796875 493.76171875 52.5146484375 516.321289062 64.5458984375 c 4
 538.551757812 76.41796875 555.11328125 92.2666015625 565.524414062 111.66796875 c 4
 576.400390625 131.88671875 583.234375 153.147460938 585.859375 174.870117188 c 4
 587.42578125 187.80078125 589.739257812 251.100585938 589.650390625 257.134765625 c 4
 589.739257812 263.497070312 587.42578125 326.797851562 585.859375 339.7109375 c 4
 583.234375 361.43359375 563.504882812 411.438476562 563.504882812 411.438476562 c 5
 566.05859375 414.490234375 l 6
 576.630859375 434.407226562 583.288085938 455.338867188 585.859375 476.705078125 c 4
 587.42578125 489.662109375 589.749023438 553.673828125 589.659179688 559.796875 c 4
 589.749023438 566.249023438 587.42578125 630.243164062 585.859375 643.201171875 c 4
 583.234375 664.94140625 576.400390625 686.2109375 565.533203125 706.420898438 c 4
 555.11328125 725.811523438 538.560546875 741.661132812 516.321289062 753.524414062 c 4
 493.76171875 765.555664062 464.643554688 771.661132812 429.793945312 771.661132812 c 6
 206.770507812 771.661132812 l 6
 171.9296875 771.661132812 142.821289062 765.565429688 120.252929688 753.524414062 c 4
 98.0048828125 741.65234375 81.443359375 725.811523438 71.0390625 706.4296875 c 4
 60.1640625 686.2109375 53.3212890625 664.94140625 50.7041015625 643.209960938 c 4
 48.9697265625 628.864257812 47.7587890625 604.888671875 47.109375 571.846679688 c 6
 262.124023438 571.846679688 l 5
 263.31640625 609.650390625 265.727539062 621.201171875 267.490234375 626.594726562 c 4
 271.112304688 637.657226562 280.891601562 650.791992188 306.895507812 651.25390625 c 6
 329.713867188 650.275390625 l 6
 349.247070312 647.125 357.247070312 635.663085938 360.459960938 625.8203125 c 4
 362.400390625 619.912109375 365.115234375 606.669921875 366.245117188 560.233398438 c 4
 365.115234375 513.263671875 362.409179688 500.01171875 360.459960938 494.0859375 c 4
 357.23828125 484.251953125 349.23828125 472.7890625 329.713867188 469.639648438 c 6
 318.588867188 468.66015625 l 5
 257.772460938 468.66015625 l 5
 257.772460938 348.262695312 l 5
 329.53515625 346.821289062 l 6
 349.194335938 343.706054688 357.23046875 332.216796875 360.459960938 322.348632812 c 4
 362.3828125 316.4921875 365.079101562 303.392578125 366.21875 257.60546875 c 4
 365.087890625 211.25 362.391601562 198.140625 360.459960938 192.267578125 c 4
 357.23828125 182.434570312 349.247070312 170.98046875 329.713867188 167.831054688 c 6
 329.713867188 166.994140625 l 5
 306.895507812 166.833007812 l 5
 280.891601562 167.296875 271.112304688 180.440429688 267.490234375 191.494140625 c 4
 265.71875 196.877929688 263.31640625 208.419921875 262.124023438 246.2421875 c 5
 47.109375 246.2421875 l 6
 47.7587890625 213.198242188 48.9697265625 189.224609375 50.7041015625 174.887695312 c 4
EndSplineSet
Validated: 8912933
EndChar

StartChar: four
Encoding: 52 52 56
Width: 677
VWidth: 0
Flags: W
HStem: 0 45.9736<308 537.36> 150.433 45.9736<40.4893 283.536 584.072 610.778> 323.256 22.248<258.93 283.536 584.072 610.778> 769.569 22.248<300.962 537.36>
VStem: 16.0254 22.248<196.406 331.666> 283.536 22.248<45.9736 150.433 345.504 386.574> 537.36 46.7119<45.9736 150.433 345.504 768.093> 610.778 46.7119<196.406 321.778>
LayerCount: 2
Fore
SplineSet
305.784179688 531.55078125 m 5
 305.784179688 323.255859375 l 5
 180.990234375 323.255859375 l 5
 305.784179688 531.55078125 l 5
258.9296875 345.50390625 m 5
 283.536132812 345.50390625 l 5
 283.536132812 386.57421875 l 5
 258.9296875 345.50390625 l 5
633.036132812 345.50390625 m 5
 657.490234375 321.778320312 l 5
 657.490234375 150.432617188 l 5
 584.072265625 150.432617188 l 5
 584.072265625 0 l 5
 308 0 l 5
 283.536132812 23.7255859375 l 5
 283.536132812 150.432617188 l 5
 40.4892578125 150.432617188 l 5
 16.025390625 174.158203125 l 5
 16.025390625 337.823242188 l 5
 288.368164062 791.817382812 l 5
 559.6171875 791.817382812 l 5
 584.072265625 768.092773438 l 5
 584.072265625 345.50390625 l 5
 633.036132812 345.50390625 l 5
38.2734375 331.666015625 m 5
 38.2734375 196.40625 l 5
 305.784179688 196.40625 l 5
 305.784179688 45.9736328125 l 5
 537.360351562 45.9736328125 l 5
 537.360351562 196.40625 l 5
 610.778320312 196.40625 l 5
 610.778320312 323.255859375 l 5
 537.360351562 323.255859375 l 5
 537.360351562 769.569335938 l 5
 300.961914062 769.569335938 l 5
 38.2734375 331.666015625 l 5
EndSplineSet
Validated: 524289
EndChar

StartChar: five
Encoding: 53 53 57
Width: 648
VWidth: 0
Flags: W
HStem: 0 46.6045<126.212 518.235> 167.029 22.3721<315.196 342.714> 325.943 22.2568<44.001 265.147> 381.607 46.6055<43.9033 343.771> 548.672 22.248<311.646 494.015> 604.07 46.6143<311.646 542.101> 771.865 22.2656<41.7412 541.646>
VStem: 21.6475 22.3535<136.202 325.943 428.213 771.865> 265.343 46.6416<192.793 323.833 570.92 604.07> 346.984 22.5596<198.799 381.248> 542.101 46.7383<650.791 769.757> 580.678 46.4902<108.478 468.478>
LayerCount: 2
Fore
SplineSet
627.176757812 398.461914062 m 4xffe0
 629.178710938 382.0703125 629.178710938 164.404296875 627.16796875 148.029296875 c 4xffd0
 624.231445312 123.5390625 616.55078125 99.626953125 604.349609375 76.9599609375 c 4
 591.829101562 53.6357421875 572.206054688 34.724609375 546.015625 20.7529296875 c 4
 520.172851562 6.986328125 487.546875 0 449.032226562 0 c 6
 226 0 l 6
 187.483398438 0 154.850585938 6.986328125 129.015625 20.7529296875 c 4
 113.921875 28.806640625 101.072265625 38.5517578125 90.4375 49.7998046875 c 6
 90.4287109375 49.6923828125 l 5
 71.8740234375 68.2392578125 l 5
 71.990234375 68.2216796875 l 6
 61.5068359375 77.9921875 52.8740234375 89.0283203125 46.26171875 101.334960938 c 4
 34.0693359375 124.01953125 26.3994140625 147.932617188 23.4443359375 172.421875 c 4
 23.0615234375 175.581054688 22.8125 199.244140625 22.1982421875 273.59765625 c 4
 22.01953125 296.397460938 21.833984375 319.134765625 21.6474609375 336.969726562 c 6
 21.53125 348.200195312 l 5
 287.38671875 348.200195312 l 5
 311.796875 323.833007812 l 5
 311.984375 286.341796875 l 6
 312.508789062 264.502929688 313.701171875 214.729492188 315.196289062 189.401367188 c 6
 323.91796875 189.27734375 l 6
 339.75 189.491210938 341.849609375 195.862304688 342.7578125 198.630859375 c 4
 343.905273438 202.110351562 345.944335938 213.056640625 347.020507812 247.336914062 c 6
 346.984375 271.114257812 l 6
 346.770507812 277.282226562 346.512695312 288.041992188 346.201171875 300.642578125 c 4
 345.666992188 323.3984375 344.778320312 360.3828125 343.771484375 381.607421875 c 4
 334.143554688 381.607421875 307.053710938 381.607421875 273.0859375 381.607421875 c 6
 43.9033203125 381.607421875 l 5
 19.4931640625 405.982421875 l 5
 19.4931640625 794.130859375 l 5
 563.849609375 794.130859375 l 5
 588.26953125 769.756835938 l 5
 588.26953125 756.852539062 l 5
 588.838867188 604.176757812 l 5
 311.646484375 604.0703125 l 5
 311.646484375 570.919921875 l 5
 424.622070312 570.885742188 l 6
 463.13671875 570.885742188 495.780273438 563.899414062 521.60546875 550.1328125 c 4
 535.006835938 542.977539062 546.674804688 534.513671875 556.560546875 524.858398438 c 6
 556.54296875 524.89453125 l 5
 579.921875 501.524414062 l 5
 579.921875 501.515625 l 6
 589.844726562 492.029296875 598.03125 481.358398438 604.376953125 469.541015625 c 4
 616.559570312 446.883789062 624.240234375 422.961914062 627.176757812 398.461914062 c 4xffe0
45.55859375 174.81640625 m 4
 48.1484375 153.3515625 54.9833984375 132.073242188 65.8583984375 111.853515625 c 4
 76.2783203125 92.4541015625 92.8310546875 76.6044921875 115.0703125 64.75 c 4
 137.647460938 52.7099609375 166.756835938 46.6044921875 201.588867188 46.6044921875 c 6
 424.61328125 46.6044921875 l 6
 459.444335938 46.6044921875 488.5625 52.701171875 511.139648438 64.75 c 4
 533.387695312 76.6220703125 549.931640625 92.4541015625 560.342773438 111.853515625 c 4
 571.2265625 132.073242188 578.079101562 153.3515625 580.677734375 175.07421875 c 4
 582.3515625 188.805664062 582.3515625 406.41796875 580.677734375 420.16796875 c 4xffd0
 578.0703125 441.909179688 571.2265625 463.178710938 560.361328125 483.387695312 c 4
 549.94921875 502.779296875 533.387695312 518.620117188 511.139648438 530.4921875 c 4
 488.5625 542.5234375 459.444335938 548.62890625 424.61328125 548.62890625 c 6
 286.104492188 548.671875 l 5
 266.170898438 548.342773438 l 5
 266.143554688 548.671875 l 5
 265.21875 548.671875 l 5
 264.977539062 559.796875 l 5
 264.977539062 650.684570312 l 5
 542.100585938 650.791015625 l 5xffe0
 541.646484375 771.865234375 l 5
 41.7412109375 771.865234375 l 5
 41.7412109375 428.212890625 l 5
 317.5546875 428.212890625 l 6
 319.209960938 428.212890625 321.149414062 428.212890625 323.134765625 428.0078125 c 4
 323.15234375 428.0078125 323.169921875 428.0078125 323.169921875 428.0078125 c 5
 323.169921875 428.212890625 l 6
 350.143554688 428.194335938 360.208984375 414.79296875 363.893554688 403.5625 c 4
 365.672851562 398.1328125 366.66015625 376.1171875 368.450195312 301.150390625 c 4
 368.743164062 288.637695312 369.009765625 277.958007812 369.21484375 271.4609375 c 6
 369.543945312 261.610351562 l 5
 369.356445312 250.174804688 l 6
 368.208984375 209.158203125 365.690429688 197.14453125 363.90234375 191.688476562 c 4
 360.270507812 180.600585938 350.456054688 167.4296875 324.344726562 167.029296875 c 6
 301.6875 167.999023438 l 6
 282.14453125 171.159179688 274.153320312 182.620117188 270.931640625 192.454101562 c 4
 268.680664062 199.32421875 267.2734375 229.110351562 265.342773438 310.494140625 c 6
 265.147460938 325.943359375 l 5
 44.0009765625 325.943359375 l 6
 44.14453125 310.252929688 44.294921875 292.037109375 44.4462890625 273.766601562 c 4
 44.8115234375 229.484375 45.220703125 179.283203125 45.55859375 174.81640625 c 4
EndSplineSet
Validated: 524321
EndChar

StartChar: six
Encoding: 54 54 58
Width: 651
VWidth: 0
Flags: W
HStem: 0 46.4639<126.975 520.235> 166.852 22.3818<314.202 344.724> 302.957 46.2314<312.783 348.388> 469.888 22.2139<312.943 496.009> 525.438 46.4453<372.951 586.283> 604.694 46.5957<317.511 347.967> 771.696 22.2568<132.821 497.412>
VStem: 25.4355 22.1064<131.918 685.477> 267.131 98.7715<273.003 346.658> 267.166 45.6348<192.576 302.957 492.102 604.615> 349.021 22.3467<191.512 302.151 571.883 604.396> 582.688 45.4658<108.478 389.844 571.883 691.724>
LayerCount: 2
Fore
SplineSet
272.932617188 192.293945312 m 4xff90
 270.983398438 198.204101562 268.260742188 211.446289062 267.130859375 257.881835938 c 6
 267.130859375 349.41015625 l 5
 330.875 349.188476562 l 6
 353.61328125 347.435546875 362.494140625 335.163085938 365.90234375 324.750976562 c 4xff90
 367.611328125 319.553710938 370.013671875 308.358398438 371.233398438 271.284179688 c 6
 371.553710938 261.451171875 l 5
 371.3671875 250.014648438 l 6xff30
 370.209960938 208.962890625 367.692382812 196.966796875 365.90234375 191.51171875 c 4
 362.28125 180.458984375 352.4921875 167.32421875 326.497070312 166.8515625 c 5
 303.6796875 166.8515625 l 5
 303.6796875 167.838867188 l 6
 284.146484375 170.981445312 276.154296875 182.443359375 272.932617188 192.293945312 c 4xff90
344.767578125 198.444335938 m 4
 345.907226562 201.94140625 347.944335938 212.87890625 349.020507812 247.159179688 c 6xff30
 348.985351562 270.919921875 l 6
 348.49609375 285.594726562 347.828125 295.810546875 347.133789062 302.95703125 c 6
 312.783203125 302.95703125 l 5
 312.783203125 233.952148438 l 6
 313.30859375 212.069335938 314.208007812 198.186523438 315.1328125 189.233398438 c 6
 325.927734375 189.090820312 l 6
 341.767578125 189.3046875 343.859375 195.6953125 344.767578125 198.444335938 c 4
605.345703125 390.907226562 m 4
 617.537109375 368.25 625.2265625 344.329101562 628.154296875 319.830078125 c 4
 630.103515625 303.765625 630.103515625 164.075195312 628.154296875 148.030273438 c 4
 625.208984375 123.5390625 617.528320312 99.6279296875 605.336914062 76.9609375 c 4
 592.806640625 53.63671875 573.18359375 34.7255859375 546.993164062 20.771484375 c 4
 521.176757812 6.9853515625 488.54296875 0 450 0 c 6
 226.9765625 0 l 6
 188.434570312 0 155.809570312 6.9853515625 129.984375 20.771484375 c 4
 113.4140625 29.5986328125 99.478515625 40.447265625 88.291015625 53.1201171875 c 6
 88.291015625 53.083984375 l 5
 68.962890625 72.8857421875 l 5
 69.1044921875 72.8857421875 l 6
 60.8193359375 81.4375 53.806640625 90.84375 48.25390625 101.184570312 c 4
 36.0615234375 123.850585938 28.3916015625 147.763671875 25.435546875 172.25390625 c 4
 23.71875 186.474609375 21.44921875 557.821289062 21.494140625 560.999023438 c 4
 21.38671875 568.001953125 23.74609375 631.853515625 25.4453125 645.923828125 c 4
 28.3916015625 670.4140625 36.0615234375 694.327148438 48.25390625 717.001953125 c 4
 60.783203125 740.326171875 80.4150390625 759.228515625 106.59765625 773.19140625 c 4
 132.422851562 786.967773438 165.047851562 793.953125 203.58984375 793.953125 c 6
 426.622070312 793.953125 l 6
 465.165039062 793.953125 497.797851562 786.967773438 523.615234375 773.19140625 c 4
 537.7734375 765.635742188 549.95703125 756.594726562 560.19140625 746.236328125 c 6
 560.173828125 746.360351562 l 5
 578.977539062 726.578125 l 5
 578.84375 726.595703125 l 6
 589.673828125 716.654296875 598.58203125 705.388671875 605.345703125 692.787109375 c 4
 617.537109375 670.129882812 625.217773438 646.217773438 628.163085938 621.708984375 c 4
 630.18359375 605.0234375 631.517578125 576.430664062 632.10546875 536.73046875 c 6
 632.283203125 525.4375 l 5
 372.951171875 525.4375 l 5
 349.555664062 549.643554688 l 5
 349.314453125 560.518554688 l 6
 348.825195312 581.947265625 347.998046875 595.8125 347.125 604.827148438 c 6
 338.190429688 604.694335938 l 6
 320.720703125 604.694335938 318.43359375 597.716796875 317.46484375 594.735351562 c 4
 316.166015625 590.765625 313.833984375 577.934570312 312.80078125 536.338867188 c 4xff50
 312.836914062 535.235351562 312.889648438 512.916015625 312.943359375 492.1015625 c 6
 426.61328125 492.056640625 l 6
 465.138671875 492.056640625 497.771484375 485.0703125 523.59765625 471.303710938 c 4
 537.916015625 463.66796875 550.206054688 454.500976562 560.51171875 443.991210938 c 6
 560.51171875 444.116210938 l 5
 585.125976562 418.672851562 l 5
 584.939453125 418.735351562 l 6
 593.028320312 410.30859375 599.908203125 401.043945312 605.345703125 390.907226562 c 4
47.5419921875 174.861328125 m 4
 50.1494140625 153.173828125 56.984375 131.9140625 67.8505859375 111.711914062 c 4
 78.2802734375 92.3125 94.83203125 76.462890625 117.071289062 64.591796875 c 4
 139.630859375 52.5673828125 168.740234375 46.4638671875 203.58984375 46.4638671875 c 6
 426.61328125 46.4638671875 l 6
 461.462890625 46.4638671875 490.581054688 52.55859375 513.139648438 64.591796875 c 4
 535.388671875 76.462890625 551.940429688 92.3125 562.353515625 111.6953125 c 4
 573.228515625 131.931640625 580.072265625 153.19140625 582.688476562 174.915039062 c 4
 584.37890625 188.921875 584.37890625 327.3671875 582.688476562 341.375 c 4
 580.072265625 363.115234375 573.228515625 384.392578125 562.353515625 404.603515625 c 4
 551.94921875 423.985351562 535.388671875 439.826171875 513.139648438 451.698242188 c 4
 490.5625 463.73046875 461.4453125 469.834960938 426.61328125 469.834960938 c 6
 267.37109375 469.887695312 l 5
 267.352539062 480.985351562 l 6
 267.30859375 511.741210938 267.209960938 558.3203125 267.166015625 560.571289062 c 4xff50
 268.296875 606.892578125 271.000976562 620.000976562 272.932617188 625.874023438 c 4
 276.154296875 635.698242188 284.146484375 647.161132812 303.6796875 650.310546875 c 6
 326.497070312 651.298828125 l 5
 326.497070312 651.290039062 l 6
 352.4921875 650.827148438 362.28125 637.68359375 365.90234375 626.629882812 c 4xff90
 367.682617188 621.23828125 370.076171875 609.685546875 371.278320312 571.8828125 c 5
 586.283203125 571.8828125 l 6
 585.642578125 604.924804688 584.431640625 628.908203125 582.697265625 643.236328125 c 4
 580.081054688 664.9765625 573.237304688 686.24609375 562.362304688 706.456054688 c 4
 551.958984375 725.84765625 535.397460938 741.688476562 513.150390625 753.559570312 c 4
 490.58984375 765.591796875 461.471679688 771.696289062 426.622070312 771.696289062 c 6
 203.598632812 771.696289062 l 6
 168.758789062 771.696289062 139.6484375 765.600585938 117.080078125 753.559570312 c 4
 94.841796875 741.697265625 78.2802734375 725.84765625 67.859375 706.456054688 c 4
 56.984375 686.237304688 50.1494140625 664.96875 47.533203125 643.236328125 c 4
 45.9755859375 630.315429688 43.662109375 567.014648438 43.7509765625 560.981445312 c 4
 43.6533203125 539.3203125 46.07421875 189.099609375 47.5419921875 174.861328125 c 4
EndSplineSet
Validated: 524325
EndChar

StartChar: seven
Encoding: 55 55 59
Width: 658
VWidth: 0
Flags: W
HStem: 0 48.1104<132.579 363.114> 596.747 48.1182<41.3184 278.571> 771.697 22.248<38.9961 586.377>
VStem: 16.7471 22.249<644.865 771.697>
LayerCount: 2
Fore
SplineSet
616.520507812 793.9453125 m 5
 641.098632812 768.075195312 l 5
 404.103515625 0 l 5
 127 0 l 5
 102.428710938 25.8623046875 l 5
 278.571289062 596.747070312 l 5
 41.318359375 596.747070312 l 5
 16.7470703125 622.6171875 l 5
 16.7470703125 793.9453125 l 5
 616.520507812 793.9453125 l 5
316.704101562 644.865234375 m 5
 132.579101562 48.1103515625 l 5
 363.114257812 48.1103515625 l 5
 586.376953125 771.697265625 l 5
 38.99609375 771.697265625 l 5
 38.99609375 644.865234375 l 5
 316.704101562 644.865234375 l 5
EndSplineSet
Validated: 524289
EndChar

StartChar: eight
Encoding: 56 56 60
Width: 643
VWidth: 0
Flags: W
HStem: 0 46.418<122.642 512.977> 166.977 22.3359<309.192 329.179> 301.097 45.6875<312.5 333.144> 468.811 22.3467<309.177 329.178> 604.587 46.5332<312.5 333.232> 771.651 22.2656<126.18 490.782>
VStem: 14.9268 22.2578<142.719 372.78 443.987 675.411> 260.545 47.2461<191.138 301.003 492.983 604.493> 334.15 22.2578<192.249 300.862 494.094 604.229> 576.067 47.0771<108.478 257.414 257.774 383.011 384.991 404.524 411.512 691.688>
LayerCount: 2
Fore
SplineSet
319.89453125 346.784179688 m 6
 339.427734375 343.625976562 347.419921875 332.171875 350.649414062 322.329101562 c 4
 352.572265625 316.474609375 355.27734375 303.375 356.408203125 257.587890625 c 4
 355.27734375 211.231445312 352.581054688 198.123046875 350.640625 192.249023438 c 4
 346.876953125 180.724609375 336.544921875 166.9765625 308.76953125 166.9765625 c 4
 280.409179688 166.9765625 270.076171875 180.724609375 266.302734375 192.266601562 c 4
 264.380859375 198.123046875 261.674804688 211.231445312 260.544921875 257.02734375 c 4
 261.674804688 303.366210938 264.380859375 316.474609375 266.311523438 322.34765625 c 4
 269.534179688 332.163085938 277.524414062 343.634765625 297.059570312 346.784179688 c 6
 319.89453125 346.784179688 l 6
329.49609375 199.181640625 m 4
 330.8046875 203.151367188 333.13671875 215.975585938 334.150390625 257.587890625 c 4
 333.625 278.669921875 332.75390625 292.286132812 331.854492188 301.096679688 c 4
 315.703125 300.713867188 313.397460938 294.110351562 312.455078125 291.208984375 c 4
 311.155273438 287.239257812 308.823242188 274.416015625 307.791015625 232.821289062 c 4
 308.326171875 211.748046875 309.197265625 198.123046875 310.096679688 189.3125 c 4
 326.266601562 189.829101562 328.5625 196.31640625 329.49609375 199.181640625 c 4
308.76953125 468.810546875 m 4
 280.409179688 468.810546875 270.084960938 482.560546875 266.302734375 494.102539062 c 4
 264.36328125 500.020507812 261.640625 513.271484375 260.51953125 559.69921875 c 4
 261.649414062 606.677734375 264.36328125 619.919921875 266.311523438 625.846679688 c 4
 270.076171875 637.37109375 280.409179688 651.120117188 308.182617188 651.120117188 c 6
 308.76953125 651.120117188 l 6
 336.544921875 651.120117188 346.876953125 637.37109375 350.649414062 625.828125 c 4
 352.581054688 619.919921875 355.313476562 606.677734375 356.434570312 560.2421875 c 4
 355.313476562 513.271484375 352.598632812 500.020507812 350.640625 494.09375 c 4
 346.8671875 482.560546875 336.544921875 468.810546875 308.76953125 468.810546875 c 4
329.49609375 501.017578125 m 4
 330.813476562 505.021484375 333.171875 518.024414062 334.177734375 560.233398438 c 4
 333.643554688 581.803710938 332.762695312 595.65234375 331.854492188 604.586914062 c 4
 315.703125 604.204101562 313.397460938 597.590820312 312.455078125 594.69921875 c 4
 311.137695312 590.6953125 308.788085938 577.702148438 307.7734375 535.4921875 c 4
 308.298828125 513.938476562 309.1796875 500.091796875 310.096679688 491.157226562 c 4
 326.266601562 491.6640625 328.5625 498.151367188 329.49609375 501.017578125 c 4
603.067382812 384.000976562 m 4
 613.67578125 362.900390625 620.4296875 340.794921875 623.135742188 318.200195312 c 4
 624.790039062 304.451171875 627.17578125 240.509765625 627.0859375 233.052734375 c 6
 627.014648438 228.345703125 l 6
 626.365234375 190.487304688 625.111328125 164.208007812 623.14453125 148.029296875 c 4
 620.19921875 123.5390625 612.518554688 99.6259765625 600.326171875 76.9609375 c 4
 587.796875 53.6357421875 568.173828125 34.724609375 541.983398438 20.7705078125 c 4
 516.158203125 6.9853515625 483.533203125 0 445 0 c 6
 221.967773438 0 l 6
 183.424804688 0 150.791015625 6.9853515625 124.96484375 20.7705078125 c 4
 109.784179688 28.8505859375 96.8798828125 38.67578125 86.2177734375 49.986328125 c 6
 86.2177734375 49.8623046875 l 5
 67.859375 67.482421875 l 5
 67.939453125 67.5009765625 l 6
 57.1884765625 77.404296875 48.34375 88.63671875 41.6162109375 101.166015625 c 4
 29.423828125 123.83203125 21.7431640625 147.745117188 18.7978515625 172.235351562 c 4
 16.83203125 188.396484375 15.5673828125 214.693359375 14.9267578125 252.603515625 c 6
 14.8466796875 257.276367188 l 6
 14.775390625 264.315429688 17.080078125 328.069335938 18.8154296875 342.40625 c 4
 21.5302734375 365.001953125 28.2841796875 387.125 38.892578125 408.224609375 c 4
 28.2841796875 429.325195312 21.5390625 451.448242188 18.8154296875 474.061523438 c 4
 17.0087890625 488.9765625 14.7666015625 554.19921875 14.85546875 560.143554688 c 6
 14.8916015625 563.346679688 l 6
 15.5048828125 601.854492188 16.8212890625 629.592773438 18.7978515625 645.887695312 c 4
 21.7431640625 670.38671875 29.423828125 694.299804688 41.6162109375 716.965820312 c 4
 54.1376953125 740.28125 73.7685546875 759.18359375 99.958984375 773.155273438 c 4
 125.784179688 786.931640625 158.409179688 793.916992188 196.951171875 793.916992188 c 6
 420.001953125 793.916992188 l 6
 458.53515625 793.916992188 491.177734375 786.931640625 516.995117188 773.155273438 c 4
 529.702148438 766.374023438 540.834960938 758.41796875 550.384765625 749.375976562 c 6
 550.375 749.4296875 l 5
 551.024414062 748.798828125 l 6
 551.211914062 748.62890625 551.380859375 748.459960938 551.559570312 748.282226562 c 6
 576.307617188 724.361328125 l 5
 576.779296875 723.916015625 l 5
 576.744140625 723.916015625 l 6
 586.284179688 714.634765625 594.1953125 704.239257812 600.353515625 692.750976562 c 4
 612.545898438 670.09375 620.224609375 646.180664062 623.170898438 621.672851562 c 4
 625.138671875 605.387695312 626.463867188 577.639648438 627.068359375 539.203125 c 6
 627.11328125 536.125 l 6
 627.202148438 529.984375 624.959960938 464.76171875 623.153320312 449.837890625 c 4
 620.4296875 427.225585938 613.67578125 405.100585938 603.067382812 384.000976562 c 4
40.8857421875 174.887695312 m 4
 43.5029296875 153.146484375 50.3447265625 131.88671875 61.220703125 111.666992188 c 4
 71.6240234375 92.2666015625 88.185546875 76.4169921875 110.43359375 64.5458984375 c 4
 132.993164062 52.5224609375 162.102539062 46.41796875 196.951171875 46.41796875 c 6
 419.983398438 46.41796875 l 6
 454.833984375 46.41796875 483.951171875 52.5146484375 506.510742188 64.5458984375 c 4
 528.758789062 76.4169921875 545.311523438 92.2666015625 555.723632812 111.6484375 c 4
 566.598632812 131.88671875 573.451171875 153.146484375 576.067382812 174.8515625 c 4
 577.91015625 190.060546875 579.849609375 257.462890625 579.849609375 257.462890625 c 6
 579.912109375 263.211914062 577.642578125 326.530273438 576.049804688 339.692382812 c 4
 573.43359375 361.423828125 566.598632812 382.702148438 555.723632812 402.912109375 c 6
 554.842773438 404.549804688 l 5
 553.703125 411.46484375 l 5
 556.2578125 414.498046875 l 6
 566.821289062 434.407226562 573.46875 455.328125 576.049804688 476.6953125 c 4
 577.616210938 489.653320312 579.947265625 553.665039062 579.849609375 559.788085938 c 6
 579.814453125 562.883789062 l 6
 579.208007812 600.706054688 577.9453125 627.671875 576.067382812 643.19140625 c 4
 573.451171875 664.932617188 566.607421875 686.201171875 555.733398438 706.411132812 c 4
 545.329101562 725.802734375 528.767578125 741.643554688 506.51953125 753.514648438 c 4
 483.959960938 765.545898438 454.842773438 771.651367188 419.993164062 771.651367188 c 6
 196.96875 771.651367188 l 6
 162.120117188 771.651367188 133.001953125 765.5546875 110.442382812 753.514648438 c 4
 88.1943359375 741.643554688 71.6328125 725.802734375 61.2294921875 706.419921875 c 4
 50.35546875 686.201171875 43.51171875 664.932617188 40.8955078125 643.200195312 c 4
 39.0087890625 627.671875 37.7529296875 600.697265625 37.1484375 563.044921875 c 6
 37.11328125 560.188476562 l 6
 37.0146484375 553.65625 39.3466796875 489.653320312 40.9130859375 476.704101562 c 4
 43.2705078125 457.0546875 49.0908203125 437.788085938 58.212890625 419.340820312 c 6
 60.0908203125 419.340820312 l 5
 63.28515625 406.73828125 l 5
 61.23828125 402.938476562 l 6
 50.3642578125 382.7109375 43.5205078125 361.450195312 40.904296875 339.709960938 c 4
 39.3818359375 327.08984375 37.041015625 263.629882812 37.1220703125 257.498046875 c 6
 37.1845703125 253.013671875 l 6
 37.7978515625 216.33984375 39.0439453125 190.078125 40.8857421875 174.887695312 c 4
EndSplineSet
Validated: 524325
EndChar

